<svg width="720" height="480" viewBox="0 0 720 480" fill="none" xmlns="http://www.w3.org/2000/svg">
<g clip-path="url(#clip0_4_574)">
<path opacity="0.3" d="M464.434 411.759C466.476 410.554 468.498 409.311 470.497 408.026C495.976 391.658 517.839 367.543 525.06 338.134C532.28 308.724 521.947 274.077 496.076 258.337C473.583 244.653 444.784 247.216 419.45 254.386C394.117 261.555 369.713 272.887 343.524 275.601C312.508 278.814 279.252 270.001 251.083 283.376C219.819 298.221 205.725 338.788 215.855 371.883C220.498 387.053 229.367 400.418 240.823 411.338L464.434 411.759Z" fill="#A7FFF8"/>
<path opacity="0.6" d="M269.843 411.631L269.749 411.571C267.751 410.303 265.774 408.992 263.872 407.675C236.099 388.457 217.309 362.512 210.964 334.617C203.499 301.806 215.374 266.651 239.198 251.027C257.763 238.853 282.812 237.44 313.646 246.831C321.664 249.273 329.711 252.224 337.493 255.079C353.479 260.943 370.008 267.006 387.016 268.898C397.543 270.067 408.516 269.686 419.127 269.315C438.643 268.633 458.823 267.929 476.57 277.003C505.741 291.918 521.098 333.496 510.805 369.687C506.361 385.31 497.322 397.67 480.582 411.016L480.478 411.099L480.345 411.1L269.843 411.631ZM276.753 241.47C262.398 241.47 249.98 244.87 239.617 251.666C216.05 267.121 204.313 301.936 211.709 334.448C218.013 362.154 236.692 387.937 264.307 407.046C266.171 408.336 268.107 409.621 270.064 410.866L480.21 410.335C496.749 397.127 505.682 384.903 510.069 369.477C520.268 333.62 505.084 292.441 476.221 277.684C458.651 268.701 438.573 269.405 419.153 270.078C408.515 270.451 397.515 270.835 386.932 269.656C369.832 267.755 353.258 261.676 337.23 255.796C329.458 252.946 321.421 249.997 313.423 247.561C300.085 243.5 287.841 241.47 276.753 241.47Z" fill="#6FEAD8"/>
<path d="M558.97 395.263C551.457 395.263 545.345 389.554 545.345 382.535C545.345 375.516 551.456 369.807 558.97 369.807C566.483 369.807 572.596 375.516 572.596 382.535C572.596 389.554 566.483 395.263 558.97 395.263ZM558.97 374.552C554.074 374.552 550.09 378.133 550.09 382.535C550.09 386.937 554.074 390.518 558.97 390.518C563.867 390.518 567.851 386.937 567.851 382.535C567.851 378.133 563.867 374.552 558.97 374.552Z" fill="#4FBF96"/>
<path d="M554.167 411.02H524.349L519.252 359.284H559.265L554.167 411.02Z" fill="white"/>
<path d="M554.629 411.53H523.887L518.689 358.774H559.827L554.629 411.53ZM524.811 410.51H553.705L558.702 359.794H519.815L524.811 410.51Z" fill="#4FBF96"/>
<path d="M548.98 406.72H529.537L526.213 374.288H552.304L548.98 406.72Z" fill="#A7FFF8"/>
<path d="M177.644 205.261H172.118V204.242H177.644C178.898 204.242 180.123 204.022 181.286 203.588L181.643 204.543C180.366 205.02 179.02 205.261 177.644 205.261ZM166.591 205.261H161.065V204.242H166.591V205.261ZM155.539 205.261H150.012V204.242H155.539V205.261ZM144.486 205.261H138.96V204.242H144.486V205.261ZM133.433 205.261H127.907V204.242H133.433V205.261ZM122.38 205.261H116.854V204.242H122.38V205.261ZM111.328 205.261H105.801V204.242H111.328V205.261ZM100.275 205.261H94.7487V204.242H100.275V205.261ZM89.2224 205.261H83.6959V204.242H89.2224V205.261ZM78.1697 205.261H72.6432V204.242H78.1697V205.261ZM67.0327 204.381C65.2534 203.638 63.6766 202.443 62.4727 200.926L63.2715 200.292C64.3683 201.675 65.8047 202.763 67.4256 203.441L67.0327 204.381ZM186.332 201.265L185.558 200.601C186.707 199.261 187.501 197.643 187.853 195.923L188.851 196.127C188.465 198.017 187.594 199.793 186.332 201.265ZM60.1534 195.695C60.0516 195.078 60.0005 194.448 60.001 193.821V190.094H61.02V193.821C61.0195 194.393 61.0663 194.967 61.1592 195.529L60.1534 195.695ZM189.084 190.515H188.065V184.989H189.084V190.515ZM61.02 184.568H60.001V179.042H61.02V184.568ZM189.084 179.462H188.065V173.936H189.084V179.462ZM61.02 173.515H60.001V167.989H61.02V173.515ZM189.084 168.409H188.065V162.883H189.084V168.409ZM61.02 162.463H60.001V156.936H61.02V162.463ZM189.084 157.356H188.065V151.83H189.084V157.356ZM61.02 151.41H60.001V145.883H61.02V151.41ZM189.084 146.304H188.065V140.777H189.084V146.304ZM61.02 140.357H60.001V134.831H61.02V140.357ZM189.084 135.251H188.065V129.725H189.084V135.251ZM61.02 129.304H60.001V123.778H61.02V129.304ZM189.084 124.199H188.065V118.672H189.084V124.199ZM61.02 118.252H60.001V116.896C60.001 115.424 60.2765 113.991 60.8208 112.636L61.7667 113.016C61.2713 114.25 61.02 115.555 61.02 116.896V118.252ZM187.46 113.391C186.87 111.737 185.857 110.246 184.533 109.078L185.208 108.313C186.661 109.595 187.772 111.232 188.42 113.048L187.46 113.391ZM64.8571 108.818L64.212 108.029C65.7125 106.804 67.5096 105.977 69.409 105.636L69.589 106.64C67.86 106.949 66.2237 107.703 64.8571 108.818ZM179.888 106.718C179.156 106.557 178.401 106.475 177.644 106.475H174.49V105.456H177.644C178.474 105.456 179.303 105.545 180.106 105.722L179.888 106.718ZM168.964 106.475H163.437V105.456H168.964V106.475ZM157.911 106.475H152.385V105.456H157.911V106.475ZM146.858 106.475H141.332V105.456H146.858V106.475ZM135.805 106.475H130.279V105.456H135.805V106.475H135.805ZM124.753 106.475H119.227V105.456H124.753V106.475ZM113.7 106.475H108.174V105.456H113.7V106.475ZM102.647 106.475H97.1208V105.456H102.647V106.475ZM91.5948 106.475H86.0683V105.456H91.5948V106.475ZM80.5421 106.475H75.0156V105.456H80.5421V106.475Z" fill="#6FEAD8"/>
<path d="M211.055 230.618H92.7328C86.0073 230.618 80.5552 225.166 80.5552 218.44V132.737C80.5552 126.012 86.0073 120.56 92.7328 120.56H211.055C217.78 120.56 223.233 126.012 223.233 132.737V218.44C223.233 225.166 217.78 230.618 211.055 230.618Z" fill="#6FEAD8"/>
<path d="M107.049 153.232H93.125V220.009H107.049V153.232Z" fill="white"/>
<path d="M132.952 164.984H119.028V220.009H132.952V164.984Z" fill="white"/>
<path d="M158.855 175.262H144.932V220.009H158.855V175.262Z" fill="white"/>
<path d="M184.759 182.511H170.835V220.009H184.759V182.511Z" fill="white"/>
<path d="M210.663 203.893H196.739V220.009H210.663V203.893Z" fill="white"/>
<path d="M186.434 135.732H117.354V141.718H186.434V135.732Z" fill="white"/>
<path d="M346.281 100.021C339.078 103.356 329.489 108.721 331.313 118.26C333.102 127.618 344.396 125.929 350.988 123.693C355.872 122.036 360.589 119.809 364.932 117.024C367.753 115.216 371.719 112.092 370.756 108.219C369.929 104.892 366.069 103.919 363.103 104.529C358.799 105.413 353.888 108.032 350.517 110.796C347.458 113.304 345.074 117.208 345.674 121.304C346.222 125.047 349.312 127.715 352.751 128.89C357.036 130.353 362.85 130.053 367.159 128.745C369.777 127.95 372.198 125.579 370.485 122.744C368.457 119.387 364.248 120.199 361.329 121.677C357.39 123.671 352.726 126.277 350.778 130.459C349.299 133.635 349.534 137.572 352.412 139.872C355.231 142.125 359.3 142.134 362.715 141.873C365.543 141.657 370.158 141.067 370.607 137.502C371.06 133.906 366.639 132.271 363.829 133.332C359.477 134.977 356.751 140.343 355.432 144.498C353.873 149.408 353.9 154.66 355.415 159.571C355.608 160.196 356.592 159.929 356.398 159.3C354.426 152.911 355.111 145.892 358.484 140.087C360.099 137.306 363.283 132.91 367.085 134.14C369.115 134.797 370.555 137.201 368.755 139.01C367.49 140.282 365.358 140.592 363.661 140.773C361.196 141.037 358.547 141.142 356.125 140.519C351.946 139.444 349.868 135.665 351.423 131.54C352.692 128.175 355.8 126.063 358.76 124.296C361.573 122.617 367.182 119.104 369.604 123.258C372.318 127.911 363.491 128.405 361.069 128.588C357.509 128.856 353.74 128.728 350.626 126.769C347.33 124.695 345.856 121.112 347.054 117.356C348.259 113.577 351.396 111.06 354.746 109.208C357.36 107.764 360.424 106.081 363.374 105.512C365.453 105.111 368.078 105.439 369.317 107.413C370.8 109.775 369.032 112.353 367.32 113.965C362.526 118.478 355.286 121.33 349.094 123.235C342.643 125.219 332.06 125.648 332.153 116.154C332.233 107.942 340.354 103.883 346.796 100.901C347.39 100.626 346.873 99.7471 346.281 100.021Z" fill="#FF0000"/>
<path d="M272.235 148.095C273.886 151.569 275.389 155.096 276.851 158.638L278.991 163.969L281.042 169.331L277.981 168.43L283.12 164.397C284.836 163.056 286.587 161.761 288.318 160.441L290.412 158.844L291.38 161.265C292.076 163.008 292.722 164.771 293.396 166.523C294.063 168.278 294.681 170.053 295.326 171.817C295.932 173.596 296.566 175.364 297.137 177.158C297.729 178.944 298.281 180.746 298.798 182.562L297.323 183.165C296.419 181.507 295.551 179.835 294.721 178.146C293.871 176.467 293.084 174.761 292.27 173.066C291.494 171.356 290.691 169.657 289.937 167.938C289.19 166.216 288.414 164.505 287.69 162.774L290.751 163.599C289.033 164.936 287.334 166.298 285.599 167.615L280.389 171.555L278.176 173.228L277.327 170.654L275.528 165.201L273.818 159.717C272.713 156.049 271.649 152.366 270.734 148.63L272.235 148.095Z" fill="#FFA121"/>
<path d="M417.575 159.334C416.66 163.07 415.595 166.753 414.491 170.422L412.78 175.905L410.982 181.358L410.133 183.932L407.92 182.259L402.709 178.319C400.975 177.003 399.276 175.64 397.557 174.303L400.618 173.479C399.894 175.21 399.119 176.921 398.371 178.642C397.617 180.362 396.814 182.061 396.039 183.771C395.224 185.466 394.437 187.171 393.587 188.851C392.758 190.539 391.889 192.211 390.986 193.869L389.51 193.266C390.028 191.45 390.58 189.649 391.172 187.863C391.742 186.069 392.376 184.3 392.983 182.521C393.628 180.757 394.246 178.982 394.913 177.228C395.587 175.476 396.232 173.712 396.929 171.97L397.896 169.548L399.99 171.145C401.722 172.466 403.473 173.761 405.188 175.102L410.328 179.135L407.266 180.036L409.318 174.673L411.457 169.342C412.919 165.801 414.422 162.274 416.074 158.8L417.575 159.334Z" fill="#FFA121"/>
<mask id="mask0_4_574" style="mask-type:luminance" maskUnits="userSpaceOnUse" x="462" y="117" width="175" height="103">
<path d="M462.279 209.12C462.279 214.672 466.78 219.173 472.332 219.173H626.655C632.207 219.173 636.709 214.672 636.709 209.12V117.91H462.279V209.12V209.12Z" fill="white"/>
</mask>
<g mask="url(#mask0_4_574)">
<path d="M462.279 209.12C462.279 214.672 466.78 219.173 472.332 219.173H626.655C632.207 219.173 636.709 214.672 636.709 209.12V117.91H462.279V209.12Z" fill="white"/>
</g>
<mask id="mask1_4_574" style="mask-type:luminance" maskUnits="userSpaceOnUse" x="462" y="117" width="175" height="103">
<path d="M462.279 209.12C462.279 214.672 466.78 219.173 472.332 219.173H626.655C632.207 219.173 636.709 214.672 636.709 209.12V117.91H462.279V209.12V209.12Z" fill="white"/>
</mask>
<g mask="url(#mask1_4_574)">
<path opacity="0.6" d="M445.68 153.034C446.503 145.613 453.116 139.261 460.565 138.737C468.013 138.212 475.451 143.576 477.305 150.809C480.851 149.711 484.993 150.893 487.425 153.697C489.857 156.5 490.442 160.769 488.855 164.124C496.268 165.294 501.156 174.485 497.98 181.286C503.017 179.948 508.622 180.938 512.897 183.919C517.172 186.901 520.038 191.819 520.523 197.008C522.532 190.01 529.682 184.855 536.956 185.158C544.23 185.461 550.926 191.194 552.346 198.335C574.455 164.712 632.503 174.441 649.042 211.735L625.045 272.702L482.681 275.945L418.471 202.979L445.68 153.034Z" fill="#A7FFF8"/>
<path d="M443.003 171.908C448.211 168.017 453.85 164.469 460.168 162.933C466.486 161.398 473.622 162.128 478.74 166.138C483.858 170.148 486.24 177.816 483.142 183.532C487.548 183.138 492.083 185.512 494.27 189.357C496.457 193.202 496.18 198.313 493.589 201.899C498.047 199.667 503.498 199.522 508.069 201.514C512.639 203.506 516.244 207.597 517.643 212.382C524.007 207.046 534.803 208.357 539.705 215.061C550.272 205.005 566.422 199.46 579.822 205.223C587.595 208.566 593.54 215.265 597.564 222.708C601.589 230.15 603.899 238.377 606.178 246.525L485.275 257.46L434.685 241.245L443.003 171.908Z" fill="white"/>
<path d="M569.1 139.607C565.509 138.112 561.794 137.928 558.73 138.828C556.812 136.435 553.87 134.9 550.565 134.9C544.785 134.9 540.099 139.586 540.099 145.366C540.099 146.871 540.423 148.298 540.994 149.591C538.956 150.972 537.616 153.307 537.616 155.955C537.616 159.668 540.25 162.766 543.751 163.481C543.69 163.94 543.647 164.404 543.647 164.879C543.647 170.659 548.333 175.345 554.113 175.345C559.062 175.345 563.199 171.906 564.289 167.29C565.39 167.9 566.656 168.25 568.004 168.25C572.247 168.25 575.686 164.81 575.686 160.567C575.686 159.589 575.497 158.657 575.163 157.797C576.248 156.915 577.108 155.814 577.652 154.507C579.875 149.171 576.046 142.5 569.1 139.607Z" fill="#FFF2E0"/>
<path d="M526.264 133.931C524.456 133.177 522.585 133.085 521.043 133.538C520.077 132.333 518.595 131.56 516.931 131.56C514.021 131.56 511.662 133.92 511.662 136.83C511.662 137.588 511.824 138.306 512.112 138.957C511.086 139.653 510.411 140.828 510.411 142.162C510.411 144.031 511.737 145.591 513.5 145.952C513.469 146.183 513.448 146.416 513.448 146.655C513.448 149.566 515.808 151.925 518.718 151.925C521.21 151.925 523.293 150.193 523.842 147.869C524.396 148.176 525.034 148.352 525.713 148.352C527.849 148.352 529.581 146.621 529.581 144.484C529.581 143.992 529.485 143.522 529.318 143.089C529.864 142.645 530.297 142.091 530.571 141.433C531.69 138.746 529.762 135.387 526.264 133.931Z" fill="#FFF2E0"/>
<path d="M495.708 130.799C495.976 131.759 495.837 132.811 495.041 133.796C493.168 136.113 489.854 135.082 489.021 132.465C488.696 131.445 488.543 130.325 488.882 129.309C490.083 125.713 494.873 127.809 495.708 130.799Z" fill="#A7FFF8"/>
<path d="M527.003 170.633C527.173 171.242 527.084 171.91 526.579 172.536C525.39 174.007 523.285 173.352 522.756 171.691C522.55 171.043 522.452 170.332 522.668 169.686C523.43 167.402 526.472 168.734 527.003 170.633Z" fill="#A7FFF8"/>
<path d="M599.767 142.091C599.938 142.701 599.849 143.369 599.344 143.994C598.154 145.465 596.049 144.811 595.52 143.149C595.314 142.501 595.217 141.79 595.433 141.145C596.195 138.861 599.237 140.192 599.767 142.091Z" fill="#A7FFF8"/>
</g>
<path d="M626.655 219.683H472.332C466.509 219.683 461.77 214.944 461.77 209.12V117.4H637.219V209.12C637.219 214.944 632.48 219.683 626.655 219.683ZM462.79 118.419V209.12C462.79 214.382 467.07 218.663 472.332 218.663H626.655C631.918 218.663 636.199 214.382 636.199 209.12V118.419H462.79Z" fill="#6FEAD8"/>
<path d="M626.655 78.6561H472.332C466.78 78.6561 462.279 83.1571 462.279 88.7092V117.91H636.709V88.7095C636.709 83.1571 632.208 78.6561 626.655 78.6561Z" fill="white"/>
<path d="M637.219 118.419H461.77V88.7095C461.77 82.8849 466.509 78.1466 472.332 78.1466H626.655C632.48 78.1466 637.219 82.8847 637.219 88.7095V118.419H637.219ZM462.79 117.4H636.199V88.7095C636.199 83.4472 631.917 79.1656 626.655 79.1656H472.332C467.07 79.1656 462.789 83.4472 462.789 88.7095L462.79 117.4Z" fill="#6FEAD8"/>
<path d="M485.951 105.589C489.986 105.589 493.257 102.318 493.257 98.2829C493.257 94.248 489.986 90.9771 485.951 90.9771C481.916 90.9771 478.646 94.248 478.646 98.2829C478.646 102.318 481.916 105.589 485.951 105.589Z" fill="#A7FFF8"/>
<path d="M592.821 104.739H511.607C508.041 104.739 505.15 101.849 505.15 98.2829C505.15 94.7172 508.041 91.8264 511.607 91.8264H592.821C596.387 91.8264 599.278 94.717 599.278 98.2829C599.278 101.849 596.387 104.739 592.821 104.739Z" fill="white"/>
<path d="M592.822 105.249H511.607C507.766 105.249 504.641 102.124 504.641 98.2829C504.641 94.4415 507.766 91.3169 511.607 91.3169H592.822C596.663 91.3169 599.787 94.4417 599.787 98.2829C599.787 102.124 596.663 105.249 592.822 105.249ZM511.607 92.3357C508.328 92.3357 505.661 95.0038 505.661 98.2827C505.661 101.562 508.328 104.23 511.607 104.23H592.822C596.1 104.23 598.767 101.562 598.767 98.2827C598.767 95.0038 596.1 92.3357 592.822 92.3357H511.607Z" fill="#6FEAD8"/>
<path d="M587.724 165.618C587.724 165.618 573.083 151.838 558.442 151.551L569.064 158.728L549.255 154.996L567.628 164.182L546.097 165.618C557.632 167.663 567.824 172.96 576.241 182.555L587.724 165.618Z" fill="#FFA121"/>
<path opacity="0.6" d="M586.462 171.844C586.462 171.844 580.302 161.541 572.581 159.97L577.377 165.62L567.317 161.33L575.985 169.014L564.417 167.905C570.289 170.32 575.074 174.713 578.422 181.719L586.462 171.844Z" fill="white"/>
<path d="M640.623 197.489C632.795 183.788 637.67 165.654 630.138 161.004L615.184 179.521L640.623 197.489Z" fill="#4FBF96"/>
<path d="M630.138 161.004L628.202 160.796C626.142 160.575 624.084 161.247 622.551 162.641L609.907 174.134L615.184 179.521L630.138 161.004Z" fill="#A7FFF8"/>
<path d="M618.492 224.894C603.451 220.125 586.75 228.709 580.618 222.324L595.572 203.807L618.492 224.894Z" fill="#4FBF96"/>
<path d="M580.618 222.324L580.007 220.476C579.357 218.508 579.581 216.356 580.621 214.563L589.194 199.782L595.572 203.807L580.618 222.324Z" fill="#A7FFF8"/>
<path d="M656.16 232.766L650.72 217.5L640.09 230.663L656.16 232.766Z" fill="#FF0000"/>
<path d="M581.468 188.576C592.439 212.04 612.644 230.381 640.095 230.658L650.721 217.5C644.67 190.722 622.487 174.832 597.239 169.047L581.468 188.576Z" fill="#A7FFF8"/>
<path d="M597.238 169.047L591.408 160.452L571.833 184.691L581.468 188.576L597.238 169.047Z" fill="#4FBF96"/>
<path d="M575.755 167.834C576.522 166.883 577.915 166.735 578.866 167.503L598.808 183.608C599.759 184.375 599.907 185.769 599.139 186.719C598.372 187.67 596.978 187.819 596.028 187.051L576.086 170.946C575.135 170.178 574.987 168.785 575.755 167.834Z" fill="#FF0000"/>
<path d="M639.184 211.831C639.322 206.706 635.28 202.441 630.156 202.303C625.032 202.165 620.766 206.207 620.628 211.331C620.49 216.455 624.532 220.721 629.656 220.859C634.781 220.997 639.046 216.955 639.184 211.831Z" fill="white"/>
<path d="M630.513 217.168C633.627 216.836 635.882 214.043 635.551 210.929C635.219 207.814 632.426 205.559 629.312 205.89C626.197 206.222 623.942 209.015 624.273 212.13C624.605 215.244 627.398 217.499 630.513 217.168Z" fill="#FF0000"/>
<path d="M632.216 211.765C631.771 211.405 631.701 210.752 632.061 210.306C632.421 209.86 633.074 209.791 633.52 210.151C633.965 210.511 634.035 211.164 633.675 211.609C633.315 212.055 632.662 212.125 632.216 211.765Z" fill="white"/>
<path d="M390.723 264.648L355.297 262.497L309.077 274.71C292.868 278.992 279.707 290.817 273.733 306.475L244.853 382.107L301.604 331.818L317.235 410.994L423.256 410.654L422.916 300.726L390.723 264.648Z" fill="#4FBF96"/>
<path d="M362.46 305.692C356.04 305.692 350.045 303.191 346.08 298.773L346.838 298.092C351.082 302.82 357.79 305.245 364.774 304.559C372.259 303.833 378.799 299.646 382.72 293.074L383.596 293.597C379.507 300.45 372.683 304.816 364.873 305.574C364.064 305.652 363.258 305.692 362.46 305.692Z" fill="#A7FFF8"/>
<path d="M366.868 291.857C360.078 295.139 351.739 291.898 348.324 284.639L347.172 282.182L335.49 257.359L328.343 242.159L362.871 225.471L377.908 257.42C384.086 270.561 379.162 285.913 366.868 291.857Z" fill="#FFBC96"/>
<path d="M366.164 250.947C363.126 265.749 355.532 275.893 347.172 282.182L335.49 257.359L366.164 250.947Z" fill="#1B1B43"/>
<path d="M370.214 232.424C370.214 250.3 360.135 262.553 347.351 268.87C334.195 275.37 320.457 250.395 313.895 233.698C307.084 216.368 325.834 203.37 341.531 203.37C357.227 203.37 370.214 214.548 370.214 232.424Z" fill="#FFBC96"/>
<path d="M370.925 222.23C369.396 203.88 365.666 186.534 348.667 190.967C342.211 181.962 315.196 182.132 308.57 203.54C304.295 217.351 290.56 224.099 290.56 224.099C307.041 232.764 322.234 229.518 343.401 213.395C350.027 223.079 368.886 223.759 368.886 223.759L370.925 222.23Z" fill="#1B1B43"/>
<path d="M376.196 230.846C376.939 225.052 373.869 219.885 369.34 219.304C364.81 218.723 360.536 222.949 359.793 228.743C359.05 234.537 362.12 239.705 366.649 240.285C371.178 240.866 375.453 236.64 376.196 230.846Z" fill="#FFBC96"/>
<path d="M369.648 225.434C368.55 226.339 368.19 227.566 368.201 228.877C368.209 229.526 368.312 230.185 368.501 230.812C368.7 231.438 368.968 232.03 369.42 232.55L369.117 233.065C368.278 232.79 367.651 232.084 367.265 231.337C366.871 230.579 366.679 229.734 366.679 228.881C366.685 228.032 366.877 227.152 367.35 226.399C367.808 225.644 368.575 225.059 369.399 224.891L369.648 225.434Z" fill="#1B1B43"/>
<path d="M341.182 239.369C342.602 239.275 343.668 237.908 343.562 236.316C343.457 234.725 342.22 233.511 340.799 233.605C339.379 233.699 338.313 235.066 338.419 236.658C338.524 238.249 339.761 239.463 341.182 239.369Z" fill="#1B1B43"/>
<path d="M328.43 244.12C329.634 243.654 330.188 242.182 329.665 240.832C329.143 239.482 327.743 238.765 326.538 239.231C325.334 239.697 324.78 241.169 325.303 242.519C325.825 243.869 327.225 244.586 328.43 244.12Z" fill="#1B1B43"/>
<path d="M347.975 229.042C348.028 229.85 343.735 229.59 341.891 229.98C340.316 230.312 337.917 231.846 336.836 230.315C335.861 228.934 338.311 227.367 341.348 227.166C344.384 226.964 347.921 228.234 347.975 229.042Z" fill="#1B1B43"/>
<path d="M320.306 237.926C320.789 238.588 322.98 236.31 324.239 235.726C325.314 235.228 327.603 235.277 327.226 233.549C326.886 231.991 324.549 231.941 322.755 233.249C320.96 234.557 319.823 237.264 320.306 237.926Z" fill="#1B1B43"/>
<path d="M337.494 256.118C338.476 254.935 339.879 254.169 341.301 253.69C342.737 253.219 344.215 253.013 345.706 253.122L345.816 253.71C344.463 254.352 343.091 254.71 341.772 255.137C340.441 255.549 339.19 256.039 337.851 256.597L337.494 256.118Z" fill="#1B1B43"/>
<path d="M333.629 243.314C333.704 244.424 333.54 245.607 332.966 246.687C332.69 247.226 332.292 247.713 331.89 248.118C331.494 248.524 331.092 248.863 330.997 249.106C330.966 249.23 330.912 249.325 330.94 249.509C330.934 249.619 330.964 249.625 330.958 249.644C330.961 249.671 331.004 249.708 331.03 249.756C331.219 249.97 331.669 250.187 332.118 250.353C333.045 250.683 334.094 250.905 335.127 251.151L335.113 251.748C334 251.899 332.893 251.892 331.746 251.643C331.173 251.501 330.579 251.336 329.976 250.81C329.837 250.653 329.685 250.486 329.59 250.266C329.491 250.031 329.427 249.784 329.43 249.621C329.376 249.269 329.45 248.821 329.623 248.452C330.02 247.723 330.516 247.401 330.881 247.06C331.262 246.729 331.572 246.392 331.851 246.01C332.402 245.244 332.747 244.279 333.034 243.255L333.629 243.314Z" fill="#D28572"/>
<path opacity="0.2" d="M361.422 240.742C361.466 237.142 358.583 234.187 354.983 234.144C351.382 234.1 348.428 236.983 348.384 240.583C348.34 244.183 351.223 247.137 354.824 247.181C358.424 247.225 361.378 244.342 361.422 240.742Z" fill="#FE5B52"/>
<path d="M449.778 301.582C439.706 280.398 418.92 266.371 395.504 264.944L390.723 264.648L425.987 344.948L464.585 330.62L449.778 301.582Z" fill="#4FBF96"/>
<path d="M326.58 249.246C326.198 243.384 327.218 229.622 323.649 231.151C320.081 232.68 319.189 252.558 319.189 252.558C319.189 252.558 318.68 219.426 314.857 220.955C311.034 222.485 311.034 246.441 302.624 271.927L255.389 371.682C249.707 383.682 256.865 397.819 269.901 400.342C279.462 402.192 288.989 397.002 292.625 387.968C304.859 357.57 327.33 291.968 329.511 279.192C331.295 268.743 330.835 264.224 330.145 261.537C329.006 257.097 326.879 253.82 326.58 249.246Z" fill="#FFBC96"/>
<path d="M302.92 269.722C304.366 265.792 305.311 261.685 306.191 257.581C307.058 253.47 307.787 249.329 308.535 245.189L310.751 232.756C311.141 230.685 311.545 228.615 312.03 226.553C312.274 225.522 312.536 224.493 312.863 223.469C313.029 222.958 313.209 222.447 313.443 221.939C313.557 221.684 313.695 221.43 313.865 221.175C314.048 220.934 314.247 220.63 314.743 220.475L314.705 220.486C314.852 220.457 315.009 220.44 315.159 220.438C315.302 220.46 315.442 220.514 315.577 220.566C315.793 220.695 315.998 220.859 316.111 221.021C316.388 221.348 316.544 221.681 316.697 222.014C316.99 222.68 317.201 223.349 317.376 224.021C317.733 225.364 317.984 226.715 318.202 228.068C318.627 230.775 318.919 233.491 319.146 236.211C319.587 241.65 319.822 247.101 319.769 252.564L318.61 252.539C318.737 249.455 318.969 246.393 319.319 243.329C319.69 240.271 320.117 237.208 321.08 234.208C321.344 233.463 321.632 232.718 322.075 232.005C322.309 231.654 322.57 231.299 322.959 231.012C323.325 230.702 323.899 230.554 324.423 230.625C324.546 230.653 324.661 230.698 324.78 230.738C324.903 230.791 325.001 230.789 325.155 230.925C325.226 230.981 325.293 231.041 325.356 231.104C325.411 231.164 325.43 231.211 325.467 231.265C325.528 231.369 325.612 231.485 325.647 231.582C325.828 231.985 325.944 232.373 326.042 232.761C326.242 233.536 326.357 234.305 326.47 235.076C326.868 238.156 326.973 241.238 326.947 244.318C326.937 245.872 326.839 247.379 326.973 248.872C327.095 250.37 327.369 251.855 327.755 253.316C328.144 254.776 328.638 256.213 329.177 257.639C329.729 259.05 330.282 260.545 330.591 262.067C331.248 265.116 331.32 268.251 331.038 271.322C330.753 274.397 330.153 277.428 329.35 280.396L328.908 280.28C329.651 277.318 330.188 274.305 330.413 271.271C330.635 268.242 330.503 265.179 329.813 262.243C329.48 260.763 328.97 259.372 328.395 257.937C327.841 256.5 327.328 255.039 326.918 253.54C326.511 252.041 326.217 250.503 326.081 248.947C325.932 247.383 326.023 245.822 326.022 244.313C326.029 241.267 325.902 238.209 325.495 235.212C325.382 234.468 325.264 233.719 325.075 233.011C324.984 232.657 324.874 232.311 324.74 232.015C324.71 231.932 324.668 231.897 324.636 231.834C324.598 231.754 324.572 231.748 324.572 231.748C324.599 231.729 324.491 231.709 324.438 231.689C324.375 231.67 324.312 231.64 324.251 231.623C323.799 231.551 323.308 231.95 322.944 232.555C322.58 233.147 322.31 233.84 322.069 234.539C321.172 237.388 320.757 240.433 320.413 243.452C320.087 246.48 319.875 249.535 319.769 252.575L318.61 252.55C318.661 247.133 318.482 241.702 318.068 236.297C317.858 233.595 317.585 230.897 317.181 228.228C316.975 226.895 316.735 225.567 316.4 224.279C316.238 223.635 316.038 223.002 315.787 222.422C315.662 222.138 315.517 221.848 315.351 221.658C315.273 221.537 315.188 221.501 315.127 221.446C315.101 221.448 315.082 221.43 315.062 221.42C315.043 221.435 315.031 221.435 315.009 221.423L314.971 221.434C314.953 221.432 314.786 221.555 314.67 221.736C314.548 221.92 314.43 222.126 314.328 222.352C314.12 222.798 313.945 223.28 313.783 223.768C313.464 224.747 313.2 225.757 312.953 226.772C312.463 228.805 312.048 230.864 311.647 232.926L309.361 245.338C308.607 249.48 307.783 253.613 306.847 257.724C305.894 261.828 304.877 265.934 303.347 269.886L302.92 269.722Z" fill="#D28572"/>
<path d="M483.042 386.655C482.869 398.399 477.751 406.605 471.339 411.335L458.321 411.131L455.1 411.08H455.028L439.727 376.246L439.696 376.165L425.985 344.95L464.58 330.617L478.985 365.971C481.941 373.79 483.134 380.681 483.042 386.655Z" fill="#FFBC96"/>
<path d="M472.359 372.597L371.041 383.933L357.857 379.673C351.889 377.745 345.354 378.932 340.453 382.846C328.957 392.027 310.267 408.952 315.111 410.314C323.267 412.608 333.918 408.316 343.48 405.915C348.762 404.589 354.342 405.215 359.189 407.698L365.818 411.093L466.752 411.079L472.359 372.597Z" fill="#FFBC96"/>
<path d="M317.524 408.521C320.259 406.921 323.034 405.403 325.82 403.904C328.597 402.389 331.422 400.969 334.221 399.497C335.601 398.773 337.079 398.028 338.622 397.494C340.164 396.964 341.758 396.578 343.376 396.399C344.992 396.218 346.623 396.2 348.234 396.344C349.841 396.521 351.433 396.832 352.952 397.355L352.795 397.932C351.26 397.631 349.716 397.429 348.168 397.411C346.623 397.36 345.078 397.465 343.563 397.722C342.048 397.977 340.557 398.358 339.124 398.898C337.676 399.407 336.341 400.129 334.909 400.847C332.073 402.246 329.264 403.698 326.406 405.055C323.556 406.427 320.696 407.781 317.796 409.053L317.524 408.521Z" fill="#D28572"/>
<path d="M318.999 403.459C320.838 401.716 322.763 400.08 324.728 398.488C326.685 396.887 328.703 395.361 330.769 393.895C332.847 392.446 334.949 391.025 337.185 389.795C339.429 388.617 341.714 387.332 344.395 387.081L344.445 387.676C343.286 387.982 342.157 388.433 341.079 389.06C339.977 389.611 338.92 390.283 337.867 390.943C335.759 392.275 333.704 393.71 331.645 395.139C329.586 396.57 327.565 398.061 325.513 399.514C323.473 400.983 321.441 402.47 319.38 403.92L318.999 403.459Z" fill="#D28572"/>
<path d="M453.126 375.083L439.533 375.416L439.571 376.944L453.164 376.611L453.126 375.083Z" fill="#D28572"/>
<path d="M416.578 324.61L415.663 325.059L425.531 345.153L426.446 344.704L416.578 324.61Z" fill="#A7FFF8"/>
<path opacity="0.2" d="M483.042 386.655C482.869 398.399 477.752 406.605 471.339 411.335L458.321 411.131C458.311 411.111 458.311 411.1 458.311 411.08C457.832 409.378 457.577 407.584 457.577 405.728C457.577 397.298 462.817 390.1 470.228 387.205C472.471 386.329 474.908 385.85 477.456 385.85C479.393 385.85 481.269 386.125 483.042 386.655Z" fill="#FE5B52"/>
<path d="M321.653 398.787H263.545V411.02H321.653V398.787Z" fill="#1B1B43"/>
<path d="M283.254 411.02H190.996L164.491 318.762H256.749L283.254 411.02Z" fill="#A7FFF8"/>
<path d="M190.628 411.125L163.983 318.379H192.525V319.144H164.999L191.364 410.914L190.628 411.125Z" fill="#1B1B43"/>
<path d="M273.373 377.291L256.462 319.144H213.934V318.379H257.036L274.107 377.077L273.373 377.291Z" fill="#1B1B43"/>
<path d="M284.463 95.9604C285.667 91.9131 283.362 87.6563 279.315 86.4525C275.268 85.2486 271.011 87.5537 269.807 91.6009C268.603 95.6482 270.908 99.905 274.956 101.109C279.003 102.313 283.26 100.008 284.463 95.9604Z" fill="#A7FFF8"/>
<path d="M124.631 278.544C125.881 273.247 122.602 267.94 117.305 266.689C112.008 265.438 106.701 268.718 105.45 274.015C104.199 279.311 107.479 284.619 112.776 285.87C118.072 287.12 123.38 283.841 124.631 278.544Z" fill="#A7FFF8"/>
<path d="M597.749 303.275C601.971 303.275 605.394 299.852 605.394 295.63C605.394 291.408 601.971 287.985 597.749 287.985C593.526 287.985 590.103 291.408 590.103 295.63C590.103 299.852 593.526 303.275 597.749 303.275Z" fill="#A7FFF8"/>
<path d="M588.2 300.635L588.181 299.615C589.416 299.592 590.629 299.379 591.787 298.983L592.117 299.946C590.858 300.378 589.54 300.609 588.2 300.635ZM584.258 300.102C582.979 299.72 581.771 299.142 580.669 298.385L581.246 297.545C582.26 298.241 583.372 298.774 584.551 299.125L584.258 300.102ZM595.636 298.09L595.026 297.273C596.013 296.536 596.877 295.656 597.592 294.657L598.421 295.25C597.645 296.334 596.708 297.291 595.636 298.09ZM577.774 295.655C576.952 294.597 576.304 293.426 575.846 292.173L576.804 291.824C577.225 292.977 577.822 294.056 578.578 295.03L577.774 295.655ZM600.208 291.695L599.237 291.384C599.611 290.218 599.8 288.999 599.8 287.764C599.801 287.449 599.789 287.139 599.765 286.833L600.781 286.752C600.807 287.087 600.821 287.425 600.82 287.765C600.82 289.105 600.614 290.428 600.208 291.695ZM575.083 288.272C575.076 288.105 575.073 287.936 575.072 287.767C575.072 286.593 575.229 285.434 575.539 284.319L576.521 284.59C576.236 285.618 576.092 286.685 576.092 287.764C576.093 287.919 576.096 288.075 576.101 288.231L575.083 288.272ZM598.918 283.267C598.452 282.132 597.813 281.079 597.02 280.136L597.8 279.48C598.662 280.504 599.356 281.647 599.861 282.881L598.918 283.267ZM578.036 281.256L577.185 280.696C577.919 279.58 578.818 278.588 579.857 277.749L580.498 278.542C579.541 279.315 578.713 280.228 578.036 281.256ZM594.258 277.728C593.217 277.071 592.085 276.583 590.894 276.279L591.147 275.291C592.441 275.622 593.671 276.152 594.801 276.865L594.258 277.728ZM583.667 276.705L583.299 275.754C584.542 275.272 585.85 274.989 587.188 274.911L587.246 275.93C586.016 276.001 584.811 276.262 583.667 276.705Z" fill="#6FEAD8"/>
<path d="M416.799 116.21C413.708 116.21 411.192 113.695 411.192 110.603C411.192 107.512 413.708 104.997 416.799 104.997C419.891 104.997 422.407 107.512 422.407 110.603C422.407 113.695 419.891 116.21 416.799 116.21ZM416.799 106.016C414.27 106.016 412.212 108.074 412.212 110.603C412.212 113.133 414.27 115.191 416.799 115.191C419.329 115.191 421.387 113.133 421.387 110.603C421.387 108.074 419.329 106.016 416.799 106.016Z" fill="#6FEAD8"/>
<path d="M611.85 410.229H109.612V411.759H611.85V410.229Z" fill="#FFA121"/>
</g>
<defs>
<clipPath id="clip0_4_574">
<rect width="720" height="480" fill="white"/>
</clipPath>
</defs>
</svg>
