<svg width="463" height="172" viewBox="0 0 463 172" fill="none" xmlns="http://www.w3.org/2000/svg">
<path d="M0.0183022 143.998V141.686C0.0183022 112.741 -0.0228778 83.7957 0.0183022 54.8273C0.0477122 39.8619 10.0185 27.5316 24.607 25.3073C31.0189 24.333 37.6955 25.143 44.6897 25.143V27.5785C44.6897 56.0344 44.6897 84.4903 44.6897 112.946C44.6897 131.139 31.8542 143.904 13.6245 143.969C9.25376 144.01 4.84778 143.998 0.0183022 143.998Z" fill="#4D4394"/>
<path d="M59.5865 94.1973V0.0014023C67.8724 0.433862 76.1286 -1.03651 84.1375 1.8548C95.9321 6.02869 103.952 17.5224 104.175 30.5702C104.334 41.0728 104.269 51.5753 104.228 62.0779C104.151 79.994 92.7238 92.9679 75.716 94.2038C70.4475 94.5251 65.1439 94.1973 59.5865 94.1973Z" fill="#09B7D3"/>
<path d="M148.588 143.659C140.915 143.659 134.296 141.965 128.731 138.578C123.201 135.156 118.932 130.386 115.925 124.268C112.952 118.116 111.466 110.961 111.466 102.804C111.466 94.6468 112.952 87.4574 115.925 81.2358C118.932 74.9796 123.114 70.1061 128.472 66.6151C133.864 63.0895 140.154 61.3267 147.344 61.3267C151.491 61.3267 155.587 62.018 159.631 63.4006C163.675 64.7831 167.357 67.0298 170.675 70.1406C173.993 73.2169 176.637 77.2955 178.607 82.3764C180.577 87.4574 181.562 93.7135 181.562 101.145V106.33H120.176V95.7528H169.119C169.119 91.2595 168.221 87.25 166.423 83.7244C164.661 80.1989 162.137 77.4164 158.854 75.3771C155.605 73.3378 151.768 72.3182 147.344 72.3182C142.47 72.3182 138.253 73.5279 134.693 75.9474C131.168 78.3324 128.454 81.4432 126.553 85.2798C124.652 89.1165 123.702 93.2296 123.702 97.6193V104.67C123.702 110.685 124.739 115.783 126.812 119.965C128.921 124.113 131.842 127.276 135.575 129.453C139.308 131.596 143.645 132.668 148.588 132.668C151.803 132.668 154.706 132.218 157.298 131.32C159.925 130.386 162.189 129.004 164.09 127.172C165.991 125.305 167.46 122.99 168.497 120.224L180.318 123.543C179.074 127.552 176.983 131.078 174.045 134.119C171.107 137.126 167.478 139.477 163.157 141.17C158.836 142.83 153.98 143.659 148.588 143.659ZM212.411 94.0938V142H200.175V62.3636H211.996V74.8068H213.033C214.9 70.7628 217.734 67.5137 221.536 65.0597C225.338 62.571 230.246 61.3267 236.261 61.3267C241.653 61.3267 246.371 62.4328 250.415 64.6449C254.459 66.8224 257.604 70.1406 259.851 74.5994C262.098 79.0237 263.221 84.6231 263.221 91.3977V142H250.985V92.2273C250.985 85.9711 249.361 81.0975 246.112 77.6065C242.862 74.081 238.404 72.3182 232.735 72.3182C228.829 72.3182 225.338 73.165 222.262 74.8587C219.22 76.5523 216.818 79.0237 215.055 82.2727C213.293 85.5218 212.411 89.4621 212.411 94.0938ZM285.58 142V62.3636H297.816V142H285.58ZM291.801 49.0909C289.416 49.0909 287.36 48.2786 285.632 46.6541C283.938 45.0296 283.091 43.0767 283.091 40.7955C283.091 38.5142 283.938 36.5613 285.632 34.9368C287.36 33.3123 289.416 32.5 291.801 32.5C294.186 32.5 296.226 33.3123 297.919 34.9368C299.647 36.5613 300.512 38.5142 300.512 40.7955C300.512 43.0767 299.647 45.0296 297.919 46.6541C296.226 48.2786 294.186 49.0909 291.801 49.0909ZM355.689 62.3636V72.733H312.76V62.3636H355.689ZM325.618 142V51.3722C325.618 46.8097 326.69 43.0076 328.833 39.9659C330.976 36.9242 333.758 34.643 337.18 33.1222C340.602 31.6013 344.214 30.8409 348.016 30.8409C351.023 30.8409 353.477 31.0829 355.378 31.5668C357.279 32.0507 358.696 32.5 359.63 32.9148L356.104 43.4915C355.482 43.2841 354.618 43.0249 353.512 42.7138C352.44 42.4027 351.023 42.2472 349.26 42.2472C345.216 42.2472 342.296 43.2668 340.498 45.3061C338.735 47.3454 337.854 50.3352 337.854 54.2756V142H325.618ZM380.718 171.864C378.644 171.864 376.795 171.691 375.171 171.345C373.546 171.034 372.423 170.723 371.801 170.412L374.911 159.628C377.884 160.388 380.511 160.665 382.792 160.457C385.073 160.25 387.095 159.23 388.858 157.398C390.655 155.601 392.297 152.68 393.784 148.636L396.065 142.415L366.616 62.3636H379.889L401.872 125.824H402.701L424.684 62.3636H437.957L404.153 153.614C402.632 157.727 400.748 161.131 398.502 163.827C396.255 166.558 393.645 168.58 390.673 169.893C387.735 171.207 384.417 171.864 380.718 171.864Z" fill="#09B7D3"/>
</svg>
