<svg width="187" height="52" viewBox="0 0 187 52" fill="none" xmlns="http://www.w3.org/2000/svg">
<mask id="mask0_3_76" style="mask-type:luminance" maskUnits="userSpaceOnUse" x="12" y="5" width="27" height="32">
<path d="M12.7573 5.54669H38.9653V36.192H12.7573V5.54669Z" fill="white"/>
</mask>
<g mask="url(#mask0_3_76)">
<mask id="mask1_3_76" style="mask-type:luminance" maskUnits="userSpaceOnUse" x="0" y="0" width="52" height="52">
<path d="M25.8916 0.286011L51.4095 25.8039L25.5238 51.6896L0.00592041 26.1717L25.8916 0.286011Z" fill="white"/>
</mask>
<g mask="url(#mask1_3_76)">
<mask id="mask2_3_76" style="mask-type:luminance" maskUnits="userSpaceOnUse" x="0" y="0" width="52" height="52">
<path d="M25.8916 0.286011L51.4095 25.8039L25.5238 51.6896L0.00592041 26.1717L25.8916 0.286011Z" fill="white"/>
</mask>
<g mask="url(#mask2_3_76)">
<mask id="mask3_3_76" style="mask-type:luminance" maskUnits="userSpaceOnUse" x="0" y="0" width="52" height="52">
<path d="M25.8916 0.286011L51.4095 25.8039L25.5238 51.6896L0.00592041 26.1717L25.8916 0.286011Z" fill="white"/>
</mask>
<g mask="url(#mask3_3_76)">
<path d="M34.4359 19.8846C33.9852 19.4339 33.7182 18.8338 33.6775 18.1973C33.5605 16.3697 32.8103 14.5773 31.415 13.1815C28.3627 10.1292 23.4119 10.1313 20.3585 13.1853C17.3035 16.2376 17.3046 21.1873 20.3569 24.2391L25.8835 29.7657L27.7246 31.6073C28.7419 32.6246 28.7419 34.2751 27.7241 35.2928C26.7057 36.3106 25.0553 36.3112 24.038 35.2939L16.6703 27.9262C11.5851 22.8399 11.5873 14.5903 16.6762 9.50193C21.7657 4.41188 30.0121 4.41351 35.1 9.49651C37.428 11.8268 38.689 14.82 38.884 17.8685C39.0384 20.2708 36.1372 21.5865 34.4359 19.8846Z" fill="#5385EA"/>
</g>
</g>
</g>
</g>
<mask id="mask4_3_76" style="mask-type:luminance" maskUnits="userSpaceOnUse" x="12" y="15" width="27" height="32">
<path d="M12.48 15.808H38.688V46.3147H12.48V15.808Z" fill="white"/>
</mask>
<g mask="url(#mask4_3_76)">
<mask id="mask5_3_76" style="mask-type:luminance" maskUnits="userSpaceOnUse" x="0" y="0" width="52" height="52">
<path d="M25.8916 0.286011L51.4095 25.8039L25.5238 51.6896L0.00592041 26.1717L25.8916 0.286011Z" fill="white"/>
</mask>
<g mask="url(#mask5_3_76)">
<mask id="mask6_3_76" style="mask-type:luminance" maskUnits="userSpaceOnUse" x="0" y="0" width="52" height="52">
<path d="M25.8916 0.286011L51.4095 25.8039L25.5238 51.6896L0.00592041 26.1717L25.8916 0.286011Z" fill="white"/>
</mask>
<g mask="url(#mask6_3_76)">
<mask id="mask7_3_76" style="mask-type:luminance" maskUnits="userSpaceOnUse" x="0" y="0" width="52" height="52">
<path d="M25.8916 0.286011L51.4095 25.8039L25.5238 51.6896L0.00592041 26.1717L25.8916 0.286011Z" fill="white"/>
</mask>
<g mask="url(#mask7_3_76)">
<path d="M16.978 32.0954C17.4281 32.5455 17.6952 33.1457 17.7363 33.7816C17.8539 35.6086 18.6024 37.4005 19.9983 38.7969C23.0593 41.8579 28.0312 41.8432 31.0808 38.7655C34.1196 35.698 34.0486 30.7277 30.9974 27.6765L23.6903 20.3694C22.6731 19.3521 22.6731 17.7028 23.6914 16.6844C24.7092 15.6666 26.3586 15.6666 27.3758 16.6839L34.7441 24.0522C39.8293 29.1368 39.8287 37.3886 34.7403 42.477C29.6508 47.5665 21.4029 47.5643 16.3155 42.4813C13.988 40.1505 12.7264 37.1583 12.532 34.1104C12.376 31.7086 15.2766 30.3935 16.978 32.0954Z" fill="#84E6EC"/>
</g>
</g>
</g>
</g>
<path d="M64.1406 30.791C64.1406 30.4355 64.0859 30.1165 63.9766 29.834C63.8763 29.5423 63.6849 29.278 63.4023 29.041C63.1198 28.7949 62.7233 28.5534 62.2129 28.3164C61.7025 28.0794 61.0417 27.8333 60.2305 27.5781C59.3281 27.2865 58.4714 26.9583 57.6602 26.5938C56.8581 26.2292 56.1471 25.8053 55.5273 25.3223C54.9167 24.8301 54.4336 24.2604 54.0781 23.6133C53.7318 22.9661 53.5586 22.2142 53.5586 21.3574C53.5586 20.528 53.7409 19.776 54.1055 19.1016C54.4701 18.418 54.9805 17.8346 55.6367 17.3516C56.293 16.8594 57.0677 16.4811 57.9609 16.2168C58.8633 15.9525 59.8522 15.8203 60.9277 15.8203C62.3952 15.8203 63.6758 16.0846 64.7695 16.6133C65.8633 17.1419 66.7109 17.8665 67.3125 18.7871C67.9232 19.7077 68.2285 20.7604 68.2285 21.9453H64.1543C64.1543 21.362 64.0312 20.8516 63.7852 20.4141C63.5482 19.9674 63.1836 19.6165 62.6914 19.3613C62.2083 19.1061 61.5977 18.9785 60.8594 18.9785C60.1484 18.9785 59.556 19.0879 59.082 19.3066C58.6081 19.5163 58.2526 19.8034 58.0156 20.168C57.7786 20.5234 57.6602 20.9245 57.6602 21.3711C57.6602 21.7083 57.7422 22.0137 57.9062 22.2871C58.0794 22.5605 58.3346 22.8158 58.6719 23.0527C59.0091 23.2897 59.4238 23.513 59.916 23.7227C60.4082 23.9323 60.9779 24.1374 61.625 24.3379C62.7096 24.666 63.6621 25.0352 64.4824 25.4453C65.3118 25.8555 66.0046 26.3158 66.5605 26.8262C67.1165 27.3366 67.5358 27.9154 67.8184 28.5625C68.1009 29.2096 68.2422 29.9434 68.2422 30.7637C68.2422 31.6296 68.0736 32.4043 67.7363 33.0879C67.3991 33.7715 66.9115 34.3503 66.2734 34.8242C65.6354 35.2982 64.8743 35.6582 63.9902 35.9043C63.1061 36.1504 62.1172 36.2734 61.0234 36.2734C60.0391 36.2734 59.0684 36.1458 58.1113 35.8906C57.1543 35.6263 56.2839 35.2298 55.5 34.7012C54.7253 34.1725 54.1055 33.498 53.6406 32.6777C53.1758 31.8574 52.9434 30.8867 52.9434 29.7656H57.0586C57.0586 30.3854 57.1543 30.9095 57.3457 31.3379C57.5371 31.7663 57.806 32.1126 58.1523 32.377C58.5078 32.6413 58.9271 32.8327 59.4102 32.9512C59.9023 33.0697 60.4401 33.1289 61.0234 33.1289C61.7344 33.1289 62.3177 33.0286 62.7734 32.8281C63.2383 32.6276 63.5801 32.3496 63.7988 31.9941C64.0267 31.6387 64.1406 31.2376 64.1406 30.791ZM74.6406 24.3652V36H70.7031V21.207H74.3945L74.6406 24.3652ZM74.0664 28.084H73C73 26.9902 73.1413 26.0059 73.4238 25.1309C73.7064 24.2467 74.1029 23.4948 74.6133 22.875C75.1237 22.2461 75.7298 21.7676 76.4316 21.4395C77.1426 21.1022 77.9355 20.9336 78.8105 20.9336C79.5033 20.9336 80.1367 21.0339 80.7109 21.2344C81.2852 21.4349 81.7773 21.7539 82.1875 22.1914C82.6068 22.6289 82.9258 23.2077 83.1445 23.9277C83.3724 24.6478 83.4863 25.5273 83.4863 26.5664V36H79.5215V26.5527C79.5215 25.8965 79.4303 25.3861 79.248 25.0215C79.0658 24.6569 78.7969 24.4017 78.4414 24.2559C78.0951 24.1009 77.6667 24.0234 77.1562 24.0234C76.6276 24.0234 76.1673 24.1283 75.7754 24.3379C75.3926 24.5475 75.0736 24.8392 74.8184 25.2129C74.5723 25.5775 74.3854 26.0059 74.2578 26.498C74.1302 26.9902 74.0664 27.5189 74.0664 28.084ZM85.8516 28.7539V28.4668C85.8516 27.3822 86.0065 26.3841 86.3164 25.4727C86.6263 24.5521 87.0775 23.7546 87.6699 23.0801C88.2624 22.4056 88.9915 21.8815 89.8574 21.5078C90.7233 21.125 91.7168 20.9336 92.8379 20.9336C93.959 20.9336 94.957 21.125 95.832 21.5078C96.707 21.8815 97.4408 22.4056 98.0332 23.0801C98.6348 23.7546 99.0905 24.5521 99.4004 25.4727C99.7103 26.3841 99.8652 27.3822 99.8652 28.4668V28.7539C99.8652 29.8294 99.7103 30.8275 99.4004 31.748C99.0905 32.6595 98.6348 33.457 98.0332 34.1406C97.4408 34.8151 96.7116 35.3392 95.8457 35.7129C94.9798 36.0866 93.9863 36.2734 92.8652 36.2734C91.7441 36.2734 90.7461 36.0866 89.8711 35.7129C89.0052 35.3392 88.2715 34.8151 87.6699 34.1406C87.0775 33.457 86.6263 32.6595 86.3164 31.748C86.0065 30.8275 85.8516 29.8294 85.8516 28.7539ZM89.7891 28.4668V28.7539C89.7891 29.3737 89.8438 29.9525 89.9531 30.4902C90.0625 31.028 90.2357 31.502 90.4727 31.9121C90.7188 32.3132 91.0378 32.6276 91.4297 32.8555C91.8216 33.0833 92.3001 33.1973 92.8652 33.1973C93.4121 33.1973 93.8815 33.0833 94.2734 32.8555C94.6654 32.6276 94.9798 32.3132 95.2168 31.9121C95.4538 31.502 95.627 31.028 95.7363 30.4902C95.8548 29.9525 95.9141 29.3737 95.9141 28.7539V28.4668C95.9141 27.8652 95.8548 27.3001 95.7363 26.7715C95.627 26.2337 95.4492 25.7598 95.2031 25.3496C94.9661 24.9303 94.6517 24.6022 94.2598 24.3652C93.8678 24.1283 93.3939 24.0098 92.8379 24.0098C92.2819 24.0098 91.8079 24.1283 91.416 24.3652C91.0332 24.6022 90.7188 24.9303 90.4727 25.3496C90.2357 25.7598 90.0625 26.2337 89.9531 26.7715C89.8438 27.3001 89.7891 27.8652 89.7891 28.4668ZM106.223 24.4336V36H102.285V21.207H105.99L106.223 24.4336ZM110.68 21.1113L110.611 24.7617C110.42 24.7344 110.188 24.7116 109.914 24.6934C109.65 24.666 109.408 24.6523 109.189 24.6523C108.633 24.6523 108.15 24.7253 107.74 24.8711C107.339 25.0078 107.002 25.2129 106.729 25.4863C106.464 25.7598 106.264 26.0924 106.127 26.4844C105.999 26.8763 105.926 27.3229 105.908 27.8242L105.115 27.5781C105.115 26.6211 105.211 25.7415 105.402 24.9395C105.594 24.1283 105.872 23.4219 106.236 22.8203C106.61 22.2188 107.066 21.7539 107.604 21.4258C108.141 21.0977 108.757 20.9336 109.449 20.9336C109.668 20.9336 109.891 20.9518 110.119 20.9883C110.347 21.0156 110.534 21.0566 110.68 21.1113ZM116.477 14.9863V36H112.539V14.9863H116.477ZM125.801 21.207L119.375 28.5352L115.93 32.0215L114.494 29.1777L117.229 25.7051L121.07 21.207H125.801ZM121.713 36L117.338 29.1641L120.059 26.7852L126.252 36H121.713ZM134.031 36.2734C132.883 36.2734 131.853 36.0911 130.941 35.7266C130.03 35.3529 129.255 34.8379 128.617 34.1816C127.988 33.5254 127.505 32.7643 127.168 31.8984C126.831 31.0234 126.662 30.0938 126.662 29.1094V28.5625C126.662 27.4414 126.822 26.416 127.141 25.4863C127.46 24.5566 127.915 23.75 128.508 23.0664C129.109 22.3828 129.839 21.8587 130.695 21.4941C131.552 21.1204 132.518 20.9336 133.594 20.9336C134.642 20.9336 135.572 21.1068 136.383 21.4531C137.194 21.7995 137.873 22.2917 138.42 22.9297C138.976 23.5677 139.395 24.3333 139.678 25.2266C139.96 26.1107 140.102 27.0951 140.102 28.1797V29.8203H128.344V27.1953H136.232V26.8945C136.232 26.3477 136.132 25.86 135.932 25.4316C135.74 24.9941 135.449 24.6478 135.057 24.3926C134.665 24.1374 134.163 24.0098 133.553 24.0098C133.033 24.0098 132.587 24.1237 132.213 24.3516C131.839 24.5794 131.534 24.8984 131.297 25.3086C131.069 25.7188 130.896 26.2018 130.777 26.7578C130.668 27.3047 130.613 27.9062 130.613 28.5625V29.1094C130.613 29.7018 130.695 30.2487 130.859 30.75C131.033 31.2513 131.274 31.6842 131.584 32.0488C131.903 32.4134 132.286 32.696 132.732 32.8965C133.188 33.097 133.703 33.1973 134.277 33.1973C134.988 33.1973 135.649 33.0605 136.26 32.7871C136.88 32.5046 137.413 32.0807 137.859 31.5156L139.773 33.5938C139.464 34.0404 139.04 34.4688 138.502 34.8789C137.973 35.2891 137.335 35.6263 136.588 35.8906C135.84 36.1458 134.988 36.2734 134.031 36.2734ZM146.5 15V36H142.549V15H146.5ZM153.91 15V36H149.959V15H153.91ZM157.355 34.0996C157.355 33.5163 157.556 33.0286 157.957 32.6367C158.367 32.2448 158.91 32.0488 159.584 32.0488C160.258 32.0488 160.796 32.2448 161.197 32.6367C161.607 33.0286 161.812 33.5163 161.812 34.0996C161.812 34.6829 161.607 35.1706 161.197 35.5625C160.796 35.9544 160.258 36.1504 159.584 36.1504C158.91 36.1504 158.367 35.9544 157.957 35.5625C157.556 35.1706 157.355 34.6829 157.355 34.0996ZM173.27 32.6641V26.0742C173.27 25.6003 173.192 25.1947 173.037 24.8574C172.882 24.5111 172.641 24.2422 172.312 24.0508C171.993 23.8594 171.579 23.7637 171.068 23.7637C170.631 23.7637 170.253 23.8411 169.934 23.9961C169.615 24.1419 169.368 24.3561 169.195 24.6387C169.022 24.9121 168.936 25.2357 168.936 25.6094H164.998C164.998 24.9805 165.144 24.3835 165.436 23.8184C165.727 23.2533 166.151 22.7565 166.707 22.3281C167.263 21.8906 167.924 21.5488 168.689 21.3027C169.464 21.0566 170.33 20.9336 171.287 20.9336C172.436 20.9336 173.456 21.125 174.35 21.5078C175.243 21.8906 175.945 22.4648 176.455 23.2305C176.975 23.9961 177.234 24.9531 177.234 26.1016V32.4316C177.234 33.2428 177.285 33.9082 177.385 34.4277C177.485 34.9382 177.631 35.3848 177.822 35.7676V36H173.844C173.652 35.599 173.507 35.0977 173.406 34.4961C173.315 33.8854 173.27 33.2747 173.27 32.6641ZM173.789 26.9902L173.816 29.2188H171.615C171.096 29.2188 170.645 29.278 170.262 29.3965C169.879 29.515 169.564 29.6836 169.318 29.9023C169.072 30.112 168.89 30.3581 168.771 30.6406C168.662 30.9232 168.607 31.2331 168.607 31.5703C168.607 31.9076 168.685 32.2129 168.84 32.4863C168.995 32.7507 169.218 32.9603 169.51 33.1152C169.801 33.2611 170.143 33.334 170.535 33.334C171.128 33.334 171.643 33.2155 172.08 32.9785C172.518 32.7415 172.855 32.4499 173.092 32.1035C173.338 31.7572 173.465 31.429 173.475 31.1191L174.514 32.7871C174.368 33.1608 174.167 33.5482 173.912 33.9492C173.666 34.3503 173.352 34.7285 172.969 35.084C172.586 35.4303 172.126 35.7174 171.588 35.9453C171.05 36.1641 170.412 36.2734 169.674 36.2734C168.735 36.2734 167.883 36.0866 167.117 35.7129C166.361 35.3301 165.759 34.806 165.312 34.1406C164.875 33.4661 164.656 32.7005 164.656 31.8438C164.656 31.069 164.802 30.3809 165.094 29.7793C165.385 29.1777 165.814 28.6719 166.379 28.2617C166.953 27.8424 167.669 27.528 168.525 27.3184C169.382 27.0996 170.376 26.9902 171.506 26.9902H173.789ZM184.426 21.207V36H180.475V21.207H184.426ZM180.229 17.3516C180.229 16.7773 180.429 16.3034 180.83 15.9297C181.231 15.556 181.769 15.3691 182.443 15.3691C183.109 15.3691 183.642 15.556 184.043 15.9297C184.453 16.3034 184.658 16.7773 184.658 17.3516C184.658 17.9258 184.453 18.3997 184.043 18.7734C183.642 19.1471 183.109 19.334 182.443 19.334C181.769 19.334 181.231 19.1471 180.83 18.7734C180.429 18.3997 180.229 17.9258 180.229 17.3516Z" fill="#94FCEC"/>
</svg>
