<svg width="105" height="80" viewBox="0 0 105 80" fill="none" xmlns="http://www.w3.org/2000/svg">
<path fill-rule="evenodd" clip-rule="evenodd" d="M0.578125 1.64062C0.578125 1.08834 1.02584 0.640625 1.57812 0.640625H102.703C103.255 0.640625 103.703 1.08834 103.703 1.64062V70.527C103.703 71.2936 102.828 71.7498 102.154 71.3835C52.2845 44.2521 51.6226 101.637 1.0334 67.365C0.760135 67.1799 0.578125 66.8577 0.578125 66.5276V1.64062Z" fill="#3B82F6" stroke="#DBEAFE" stroke-linecap="round" stroke-linejoin="round"/>
<path d="M43.9808 17.3636H46.0717V25.5455C46.0679 26.2955 45.9089 26.9413 45.5945 27.483C45.2801 28.0208 44.8407 28.4356 44.2763 28.7273C43.7157 29.0152 43.0623 29.1591 42.3161 29.1591C41.6342 29.1591 41.0206 29.0379 40.4751 28.7955C39.9335 28.5492 39.5036 28.1856 39.1854 27.7045C38.8672 27.2235 38.7081 26.625 38.7081 25.9091H40.8047C40.8085 26.2235 40.8767 26.4943 41.0092 26.7216C41.1456 26.9489 41.3331 27.1231 41.5717 27.2443C41.8104 27.3655 42.085 27.4261 42.3956 27.4261C42.7327 27.4261 43.0187 27.3561 43.2536 27.2159C43.4884 27.072 43.6664 26.8598 43.7876 26.5795C43.9126 26.2992 43.977 25.9545 43.9808 25.5455V17.3636ZM48.2678 29V20.2727H50.3246V29H48.2678ZM49.3018 19.0341C48.9761 19.0341 48.6958 18.9261 48.4609 18.7102C48.2261 18.4905 48.1087 18.2273 48.1087 17.9205C48.1087 17.6098 48.2261 17.3466 48.4609 17.1307C48.6958 16.911 48.9761 16.8011 49.3018 16.8011C49.6314 16.8011 49.9117 16.911 50.1428 17.1307C50.3776 17.3466 50.495 17.6098 50.495 17.9205C50.495 18.2273 50.3776 18.4905 50.1428 18.7102C49.9117 18.9261 49.6314 19.0341 49.3018 19.0341ZM52.4396 29V20.2727H54.4339V21.7273H54.5249C54.6839 21.2235 54.9567 20.8352 55.343 20.5625C55.7332 20.286 56.1783 20.1477 56.6783 20.1477C56.7919 20.1477 56.9188 20.1534 57.0589 20.1648C57.2029 20.1723 57.3222 20.1856 57.4169 20.2045V22.0966C57.3298 22.0663 57.1915 22.0398 57.0021 22.017C56.8165 21.9905 56.6366 21.9773 56.4624 21.9773C56.0874 21.9773 55.7502 22.0587 55.451 22.2216C55.1555 22.3807 54.9226 22.6023 54.7521 22.8864C54.5817 23.1705 54.4964 23.4981 54.4964 23.8693V29H52.4396ZM61.1385 29.1761C60.5855 29.1761 60.0874 29.0777 59.6442 28.8807C59.2048 28.6799 58.8563 28.3845 58.5987 27.9943C58.3449 27.6042 58.218 27.1231 58.218 26.5511C58.218 26.0587 58.3089 25.6515 58.4908 25.3295C58.6726 25.0076 58.9207 24.75 59.2351 24.5568C59.5495 24.3636 59.9036 24.2178 60.2976 24.1193C60.6953 24.017 61.1063 23.9432 61.5305 23.8977C62.0419 23.8447 62.4567 23.7973 62.7749 23.7557C63.093 23.7102 63.3241 23.642 63.468 23.5511C63.6158 23.4564 63.6896 23.3106 63.6896 23.1136V23.0795C63.6896 22.6515 63.5627 22.3201 63.3089 22.0852C63.0552 21.8504 62.6896 21.733 62.2124 21.733C61.7086 21.733 61.3089 21.8428 61.0135 22.0625C60.7218 22.2822 60.5249 22.5417 60.4226 22.8409L58.5021 22.5682C58.6536 22.0379 58.9036 21.5947 59.2521 21.2386C59.6006 20.8788 60.0268 20.6098 60.5305 20.4318C61.0343 20.25 61.5911 20.1591 62.201 20.1591C62.6214 20.1591 63.04 20.2083 63.4567 20.3068C63.8733 20.4053 64.254 20.5682 64.5987 20.7955C64.9434 21.0189 65.2199 21.3239 65.4283 21.7102C65.6404 22.0966 65.7464 22.5795 65.7464 23.1591V29H63.7692V27.8011H63.701C63.576 28.0436 63.3999 28.2708 63.1726 28.483C62.9491 28.6913 62.6669 28.8598 62.326 28.9886C61.9889 29.1136 61.593 29.1761 61.1385 29.1761ZM61.6726 27.6648C62.0855 27.6648 62.4434 27.5833 62.7464 27.4205C63.0495 27.2538 63.2824 27.0341 63.4453 26.7614C63.612 26.4886 63.6953 26.1913 63.6953 25.8693V24.8409C63.6309 24.8939 63.5211 24.9432 63.3658 24.9886C63.2143 25.0341 63.0438 25.0739 62.8544 25.108C62.665 25.142 62.4775 25.1723 62.2919 25.1989C62.1063 25.2254 61.9453 25.2481 61.8089 25.267C61.5021 25.3087 61.2275 25.3769 60.9851 25.4716C60.7427 25.5663 60.5514 25.6989 60.4112 25.8693C60.2711 26.036 60.201 26.2519 60.201 26.517C60.201 26.8958 60.3393 27.1818 60.6158 27.375C60.8923 27.5682 61.2446 27.6648 61.6726 27.6648ZM24.6676 38.1307V36.3636H33.9517V38.1307H30.3551V48H28.2642V38.1307H24.6676ZM35.6506 48V39.2727H37.7074V48H35.6506ZM36.6847 38.0341C36.3589 38.0341 36.0786 37.9261 35.8438 37.7102C35.6089 37.4905 35.4915 37.2273 35.4915 36.9205C35.4915 36.6098 35.6089 36.3466 35.8438 36.1307C36.0786 35.911 36.3589 35.8011 36.6847 35.8011C37.0142 35.8011 37.2945 35.911 37.5256 36.1307C37.7604 36.3466 37.8778 36.6098 37.8778 36.9205C37.8778 37.2273 37.7604 37.4905 37.5256 37.7102C37.2945 37.9261 37.0142 38.0341 36.6847 38.0341ZM43.6293 48.1705C42.758 48.1705 42.0099 47.9792 41.3849 47.5966C40.7637 47.214 40.2846 46.6856 39.9474 46.0114C39.6141 45.3333 39.4474 44.553 39.4474 43.6705C39.4474 42.7841 39.6179 42.0019 39.9588 41.3239C40.2997 40.642 40.7808 40.1117 41.402 39.733C42.027 39.3504 42.7656 39.1591 43.6179 39.1591C44.3262 39.1591 44.9531 39.2898 45.4986 39.5511C46.0478 39.8087 46.4853 40.1742 46.8111 40.6477C47.1368 41.1174 47.3224 41.6667 47.3679 42.2955H45.402C45.3224 41.875 45.133 41.5246 44.8338 41.2443C44.5384 40.9602 44.1425 40.8182 43.6463 40.8182C43.2259 40.8182 42.8565 40.9318 42.5384 41.1591C42.2202 41.3826 41.9721 41.7045 41.794 42.125C41.6198 42.5455 41.5327 43.0492 41.5327 43.6364C41.5327 44.2311 41.6198 44.7424 41.794 45.1705C41.9683 45.5947 42.2126 45.9223 42.527 46.1534C42.8452 46.3807 43.2183 46.4943 43.6463 46.4943C43.9493 46.4943 44.2202 46.4375 44.4588 46.3239C44.7012 46.2064 44.9039 46.0379 45.0668 45.8182C45.2296 45.5985 45.3414 45.3314 45.402 45.017H47.3679C47.3187 45.6345 47.1368 46.1818 46.8224 46.6591C46.508 47.1326 46.08 47.5038 45.5384 47.7727C44.9967 48.0379 44.3603 48.1705 43.6293 48.1705ZM50.9318 45.2614L50.9261 42.7784H51.2557L54.392 39.2727H56.7955L52.9375 43.5682H52.5114L50.9318 45.2614ZM49.0568 48V36.3636H51.1136V48H49.0568ZM54.5341 48L51.6932 44.0284L53.0795 42.5795L56.9943 48H54.5341ZM61.6705 48.1705C60.7955 48.1705 60.0398 47.9886 59.4034 47.625C58.7708 47.2576 58.2841 46.7386 57.9432 46.0682C57.6023 45.3939 57.4318 44.6004 57.4318 43.6875C57.4318 42.7898 57.6023 42.0019 57.9432 41.3239C58.2879 40.642 58.7689 40.1117 59.3864 39.733C60.0038 39.3504 60.7292 39.1591 61.5625 39.1591C62.1004 39.1591 62.608 39.2462 63.0852 39.4205C63.5663 39.5909 63.9905 39.8561 64.358 40.2159C64.7292 40.5758 65.0208 41.0341 65.233 41.5909C65.4451 42.1439 65.5511 42.803 65.5511 43.5682V44.1989H58.3977V42.8125H63.5795C63.5758 42.4186 63.4905 42.0682 63.3239 41.7614C63.1572 41.4508 62.9242 41.2064 62.625 41.0284C62.3295 40.8504 61.9848 40.7614 61.5909 40.7614C61.1705 40.7614 60.8011 40.8636 60.483 41.0682C60.1648 41.2689 59.9167 41.5341 59.7386 41.8636C59.5644 42.1894 59.4754 42.5473 59.4716 42.9375V44.1477C59.4716 44.6553 59.5644 45.0909 59.75 45.4545C59.9356 45.8144 60.1951 46.0909 60.5284 46.2841C60.8617 46.4735 61.2519 46.5682 61.6989 46.5682C61.9981 46.5682 62.2689 46.5265 62.5114 46.4432C62.7538 46.3561 62.964 46.2292 63.142 46.0625C63.3201 45.8958 63.4545 45.6894 63.5455 45.4432L65.4659 45.6591C65.3447 46.1667 65.1136 46.6098 64.7727 46.9886C64.4356 47.3636 64.0038 47.6553 63.4773 47.8636C62.9508 48.0682 62.3485 48.1705 61.6705 48.1705ZM71.6491 39.2727V40.8636H66.6321V39.2727H71.6491ZM67.8707 37.1818H69.9276V45.375C69.9276 45.6515 69.9692 45.8636 70.0526 46.0114C70.1397 46.1553 70.2533 46.2538 70.3935 46.3068C70.5336 46.3598 70.6889 46.3864 70.8594 46.3864C70.9882 46.3864 71.1056 46.3769 71.2116 46.358C71.3215 46.339 71.4048 46.322 71.4616 46.3068L71.8082 47.9148C71.6984 47.9527 71.5412 47.9943 71.3366 48.0398C71.1359 48.0852 70.8897 48.1117 70.598 48.1193C70.0829 48.1345 69.6188 48.0568 69.206 47.8864C68.7931 47.7121 68.4654 47.4432 68.223 47.0795C67.9844 46.7159 67.867 46.2614 67.8707 45.7159V37.1818ZM80.142 41.5795L78.267 41.7841C78.214 41.5947 78.1212 41.4167 77.9886 41.25C77.8598 41.0833 77.6856 40.9489 77.4659 40.8466C77.2462 40.7443 76.9773 40.6932 76.6591 40.6932C76.2311 40.6932 75.8712 40.786 75.5795 40.9716C75.2917 41.1572 75.1496 41.3977 75.1534 41.6932C75.1496 41.947 75.2424 42.1534 75.4318 42.3125C75.625 42.4716 75.9432 42.6023 76.3864 42.7045L77.875 43.0227C78.7008 43.2008 79.3144 43.483 79.7159 43.8693C80.1212 44.2557 80.3258 44.7614 80.3295 45.3864C80.3258 45.9356 80.1648 46.4205 79.8466 46.8409C79.5322 47.2576 79.0947 47.5833 78.5341 47.8182C77.9735 48.053 77.3295 48.1705 76.6023 48.1705C75.5341 48.1705 74.6742 47.947 74.0227 47.5C73.3712 47.0492 72.983 46.4223 72.858 45.6193L74.8636 45.4261C74.9545 45.8201 75.1477 46.1174 75.4432 46.3182C75.7386 46.5189 76.1231 46.6193 76.5966 46.6193C77.0852 46.6193 77.4773 46.5189 77.7727 46.3182C78.072 46.1174 78.2216 45.8693 78.2216 45.5739C78.2216 45.3239 78.125 45.1174 77.9318 44.9545C77.7424 44.7917 77.447 44.6667 77.0455 44.5795L75.5568 44.267C74.7197 44.0928 74.1004 43.7992 73.6989 43.3864C73.2973 42.9697 73.0985 42.4432 73.1023 41.8068C73.0985 41.2689 73.2443 40.803 73.5398 40.4091C73.839 40.0114 74.2538 39.7045 74.7841 39.4886C75.3182 39.2689 75.9337 39.1591 76.6307 39.1591C77.6534 39.1591 78.4583 39.3769 79.0455 39.8125C79.6364 40.2481 80.0019 40.8371 80.142 41.5795Z" fill="#DBEAFE"/>
</svg>
