<svg width="164" height="78" viewBox="0 0 164 78" fill="none" xmlns="http://www.w3.org/2000/svg">
<path fill-rule="evenodd" clip-rule="evenodd" d="M1 77L22.6 1H163L141.4 77H1Z" fill="#BBF7D0" stroke="#71717A" stroke-linecap="round" stroke-linejoin="round"/>
<path d="M55.5546 23.3636V35H53.4467V23.3636H55.5546ZM59.8032 29.8864V35H57.7464V26.2727H59.7123V27.7557H59.8146C60.0153 27.267 60.3354 26.8788 60.7748 26.5909C61.218 26.303 61.7653 26.1591 62.4168 26.1591C63.0191 26.1591 63.5437 26.2879 63.9907 26.5455C64.4415 26.803 64.7899 27.1761 65.0361 27.6648C65.2861 28.1534 65.4093 28.7462 65.4055 29.4432V35H63.3486V29.7614C63.3486 29.178 63.1971 28.7216 62.8941 28.392C62.5949 28.0625 62.1801 27.8977 61.6498 27.8977C61.2899 27.8977 60.9699 27.9773 60.6896 28.1364C60.413 28.2917 60.1952 28.517 60.0361 28.8125C59.8808 29.108 59.8032 29.4659 59.8032 29.8864ZM81.5163 27.2898H79.3913C79.3307 26.9413 79.2189 26.6326 79.056 26.3636C78.8932 26.0909 78.6905 25.8598 78.4481 25.6705C78.2057 25.4811 77.9291 25.339 77.6185 25.2443C77.3117 25.1458 76.9803 25.0966 76.6242 25.0966C75.9916 25.0966 75.431 25.2557 74.9424 25.5739C74.4538 25.8883 74.0712 26.3504 73.7947 26.9602C73.5182 27.5663 73.3799 28.3068 73.3799 29.1818C73.3799 30.072 73.5182 30.822 73.7947 31.4318C74.075 32.0379 74.4575 32.4962 74.9424 32.8068C75.431 33.1136 75.9897 33.267 76.6185 33.267C76.967 33.267 77.2928 33.2216 77.5958 33.1307C77.9026 33.036 78.1772 32.8977 78.4197 32.7159C78.6659 32.5341 78.8723 32.3106 79.039 32.0455C79.2094 31.7803 79.3269 31.4773 79.3913 31.1364L81.5163 31.1477C81.4367 31.7008 81.2644 32.2197 80.9992 32.7045C80.7379 33.1894 80.395 33.6174 79.9708 33.9886C79.5466 34.3561 79.0504 34.6439 78.4822 34.8523C77.914 35.0568 77.2833 35.1591 76.5901 35.1591C75.5674 35.1591 74.6545 34.9223 73.8515 34.4489C73.0485 33.9754 72.4159 33.2917 71.9538 32.3977C71.4916 31.5038 71.2606 30.4318 71.2606 29.1818C71.2606 27.928 71.4935 26.8561 71.9594 25.9659C72.4254 25.072 73.0598 24.3883 73.8629 23.9148C74.6659 23.4413 75.575 23.2045 76.5901 23.2045C77.2379 23.2045 77.8401 23.2955 78.3969 23.4773C78.9538 23.6591 79.45 23.9261 79.8856 24.2784C80.3212 24.6269 80.6791 25.0549 80.9594 25.5625C81.2435 26.0663 81.4291 26.642 81.5163 27.2898ZM87.1626 35.1705C86.3103 35.1705 85.5717 34.983 84.9467 34.608C84.3217 34.233 83.8368 33.7083 83.4921 33.0341C83.1512 32.3598 82.9808 31.572 82.9808 30.6705C82.9808 29.7689 83.1512 28.9792 83.4921 28.3011C83.8368 27.6231 84.3217 27.0966 84.9467 26.7216C85.5717 26.3466 86.3103 26.1591 87.1626 26.1591C88.0148 26.1591 88.7535 26.3466 89.3785 26.7216C90.0035 27.0966 90.4864 27.6231 90.8273 28.3011C91.172 28.9792 91.3444 29.7689 91.3444 30.6705C91.3444 31.572 91.172 32.3598 90.8273 33.0341C90.4864 33.7083 90.0035 34.233 89.3785 34.608C88.7535 34.983 88.0148 35.1705 87.1626 35.1705ZM87.1739 33.5227C87.6361 33.5227 88.0224 33.3958 88.333 33.142C88.6436 32.8845 88.8747 32.5398 89.0262 32.108C89.1815 31.6761 89.2592 31.1951 89.2592 30.6648C89.2592 30.1307 89.1815 29.6477 89.0262 29.2159C88.8747 28.7803 88.6436 28.4337 88.333 28.1761C88.0224 27.9186 87.6361 27.7898 87.1739 27.7898C86.7005 27.7898 86.3065 27.9186 85.9921 28.1761C85.6815 28.4337 85.4486 28.7803 85.2933 29.2159C85.1417 29.6477 85.066 30.1307 85.066 30.6648C85.066 31.1951 85.1417 31.6761 85.2933 32.108C85.4486 32.5398 85.6815 32.8845 85.9921 33.142C86.3065 33.3958 86.7005 33.5227 87.1739 33.5227ZM96.3288 35.1534C95.6432 35.1534 95.0295 34.9773 94.4879 34.625C93.9462 34.2727 93.5182 33.7614 93.2038 33.0909C92.8894 32.4205 92.7322 31.6061 92.7322 30.6477C92.7322 29.678 92.8913 28.8598 93.2094 28.1932C93.5314 27.5227 93.9651 27.017 94.5106 26.6761C95.056 26.3314 95.664 26.1591 96.3344 26.1591C96.8458 26.1591 97.2663 26.2462 97.5958 26.4205C97.9254 26.5909 98.1867 26.7973 98.3799 27.0398C98.5731 27.2784 98.7227 27.5038 98.8288 27.7159H98.914V23.3636H100.976V35H98.9538V33.625H98.8288C98.7227 33.8371 98.5693 34.0625 98.3685 34.3011C98.1678 34.536 97.9026 34.7367 97.5731 34.9034C97.2435 35.0701 96.8288 35.1534 96.3288 35.1534ZM96.9026 33.4659C97.3382 33.4659 97.7094 33.3485 98.0163 33.1136C98.3231 32.875 98.556 32.5436 98.7151 32.1193C98.8742 31.6951 98.9538 31.2008 98.9538 30.6364C98.9538 30.072 98.8742 29.5814 98.7151 29.1648C98.5598 28.7481 98.3288 28.4242 98.0219 28.1932C97.7189 27.9621 97.3458 27.8466 96.9026 27.8466C96.4443 27.8466 96.0617 27.9659 95.7549 28.2045C95.4481 28.4432 95.217 28.7727 95.0617 29.1932C94.9064 29.6136 94.8288 30.0947 94.8288 30.6364C94.8288 31.1818 94.9064 31.6686 95.0617 32.0966C95.2208 32.5208 95.4538 32.8561 95.7606 33.1023C96.0712 33.3447 96.4519 33.4659 96.9026 33.4659ZM107.032 35.1705C106.157 35.1705 105.401 34.9886 104.765 34.625C104.132 34.2576 103.646 33.7386 103.305 33.0682C102.964 32.3939 102.793 31.6004 102.793 30.6875C102.793 29.7898 102.964 29.0019 103.305 28.3239C103.649 27.642 104.13 27.1117 104.748 26.733C105.365 26.3504 106.091 26.1591 106.924 26.1591C107.462 26.1591 107.969 26.2462 108.447 26.4205C108.928 26.5909 109.352 26.8561 109.719 27.2159C110.091 27.5758 110.382 28.0341 110.594 28.5909C110.807 29.1439 110.913 29.803 110.913 30.5682V31.1989H103.759V29.8125H108.941C108.937 29.4186 108.852 29.0682 108.685 28.7614C108.519 28.4508 108.286 28.2064 107.986 28.0284C107.691 27.8504 107.346 27.7614 106.952 27.7614C106.532 27.7614 106.163 27.8636 105.844 28.0682C105.526 28.2689 105.278 28.5341 105.1 28.8636C104.926 29.1894 104.837 29.5473 104.833 29.9375V31.1477C104.833 31.6553 104.926 32.0909 105.111 32.4545C105.297 32.8144 105.557 33.0909 105.89 33.2841C106.223 33.4735 106.613 33.5682 107.06 33.5682C107.36 33.5682 107.63 33.5265 107.873 33.4432C108.115 33.3561 108.325 33.2292 108.503 33.0625C108.682 32.8958 108.816 32.6894 108.907 32.4432L110.827 32.6591C110.706 33.1667 110.475 33.6098 110.134 33.9886C109.797 34.3636 109.365 34.6553 108.839 34.8636C108.312 35.0682 107.71 35.1705 107.032 35.1705ZM27.593 54H23.6498V42.3636H27.6725C28.8278 42.3636 29.8202 42.5966 30.6498 43.0625C31.4831 43.5246 32.1233 44.1894 32.5702 45.0568C33.0172 45.9242 33.2407 46.9621 33.2407 48.1705C33.2407 49.3826 33.0153 50.4242 32.5646 51.2955C32.1176 52.1667 31.4718 52.8352 30.6271 53.3011C29.7861 53.767 28.7748 54 27.593 54ZM25.7577 52.1761H27.4907C28.3013 52.1761 28.9774 52.0284 29.5191 51.733C30.0608 51.4337 30.468 50.9886 30.7407 50.3977C31.0134 49.803 31.1498 49.0606 31.1498 48.1705C31.1498 47.2803 31.0134 46.5417 30.7407 45.9545C30.468 45.3636 30.0646 44.9223 29.5305 44.6307C29.0002 44.3352 28.3411 44.1875 27.5532 44.1875H25.7577V52.1761ZM38.9594 54.1705C38.1072 54.1705 37.3685 53.983 36.7435 53.608C36.1185 53.233 35.6337 52.7083 35.289 52.0341C34.9481 51.3598 34.7776 50.572 34.7776 49.6705C34.7776 48.7689 34.9481 47.9792 35.289 47.3011C35.6337 46.6231 36.1185 46.0966 36.7435 45.7216C37.3685 45.3466 38.1072 45.1591 38.9594 45.1591C39.8117 45.1591 40.5504 45.3466 41.1754 45.7216C41.8004 46.0966 42.2833 46.6231 42.6242 47.3011C42.9689 47.9792 43.1413 48.7689 43.1413 49.6705C43.1413 50.572 42.9689 51.3598 42.6242 52.0341C42.2833 52.7083 41.8004 53.233 41.1754 53.608C40.5504 53.983 39.8117 54.1705 38.9594 54.1705ZM38.9708 52.5227C39.4329 52.5227 39.8193 52.3958 40.1299 52.142C40.4405 51.8845 40.6716 51.5398 40.8231 51.108C40.9784 50.6761 41.056 50.1951 41.056 49.6648C41.056 49.1307 40.9784 48.6477 40.8231 48.2159C40.6716 47.7803 40.4405 47.4337 40.1299 47.1761C39.8193 46.9186 39.4329 46.7898 38.9708 46.7898C38.4973 46.7898 38.1034 46.9186 37.789 47.1761C37.4784 47.4337 37.2454 47.7803 37.0901 48.2159C36.9386 48.6477 36.8629 49.1307 36.8629 49.6648C36.8629 50.1951 36.9386 50.6761 37.0901 51.108C37.2454 51.5398 37.4784 51.8845 37.789 52.142C38.1034 52.3958 38.4973 52.5227 38.9708 52.5227ZM48.6938 54.1705C47.8226 54.1705 47.0745 53.9792 46.4495 53.5966C45.8283 53.214 45.3491 52.6856 45.012 52.0114C44.6787 51.3333 44.512 50.553 44.512 49.6705C44.512 48.7841 44.6825 48.0019 45.0234 47.3239C45.3643 46.642 45.8453 46.1117 46.4665 45.733C47.0915 45.3504 47.8302 45.1591 48.6825 45.1591C49.3908 45.1591 50.0177 45.2898 50.5631 45.5511C51.1124 45.8087 51.5499 46.1742 51.8756 46.6477C52.2014 47.1174 52.387 47.6667 52.4325 48.2955H50.4665C50.387 47.875 50.1976 47.5246 49.8984 47.2443C49.6029 46.9602 49.2071 46.8182 48.7109 46.8182C48.2904 46.8182 47.9211 46.9318 47.6029 47.1591C47.2847 47.3826 47.0366 47.7045 46.8586 48.125C46.6843 48.5455 46.5972 49.0492 46.5972 49.6364C46.5972 50.2311 46.6843 50.7424 46.8586 51.1705C47.0328 51.5947 47.2772 51.9223 47.5915 52.1534C47.9097 52.3807 48.2828 52.4943 48.7109 52.4943C49.0139 52.4943 49.2847 52.4375 49.5234 52.3239C49.7658 52.2064 49.9684 52.0379 50.1313 51.8182C50.2942 51.5985 50.4059 51.3314 50.4665 51.017H52.4325C52.3832 51.6345 52.2014 52.1818 51.887 52.6591C51.5726 53.1326 51.1446 53.5038 50.6029 53.7727C50.0612 54.0379 49.4249 54.1705 48.6938 54.1705ZM59.6839 50.3295V45.2727H61.7407V54H59.7464V52.4489H59.6555C59.4585 52.9375 59.1346 53.3371 58.6839 53.6477C58.2369 53.9583 57.6858 54.1136 57.0305 54.1136C56.4585 54.1136 55.9528 53.9867 55.5134 53.733C55.0778 53.4754 54.7369 53.1023 54.4907 52.6136C54.2445 52.1212 54.1214 51.5265 54.1214 50.8295V45.2727H56.1782V50.5114C56.1782 51.0644 56.3297 51.5038 56.6327 51.8295C56.9358 52.1553 57.3335 52.3182 57.8259 52.3182C58.129 52.3182 58.4225 52.2443 58.7066 52.0966C58.9907 51.9489 59.2236 51.7292 59.4055 51.4375C59.5911 51.142 59.6839 50.7727 59.6839 50.3295ZM63.8557 54V45.2727H65.8217V46.7557H65.9239C66.1057 46.2557 66.4069 45.8655 66.8273 45.5852C67.2478 45.3011 67.7497 45.1591 68.333 45.1591C68.9239 45.1591 69.422 45.303 69.8273 45.5909C70.2364 45.875 70.5243 46.2633 70.691 46.7557H70.7819C70.9751 46.2708 71.3008 45.8845 71.7592 45.5966C72.2213 45.3049 72.7686 45.1591 73.4012 45.1591C74.2042 45.1591 74.8595 45.4129 75.3671 45.9205C75.8747 46.428 76.1285 47.1686 76.1285 48.142V54H74.066V48.4602C74.066 47.9186 73.922 47.5227 73.6342 47.2727C73.3463 47.0189 72.994 46.892 72.5773 46.892C72.0811 46.892 71.6929 47.0473 71.4126 47.358C71.1361 47.6648 70.9978 48.0644 70.9978 48.5568V54H68.9807V48.375C68.9807 47.9242 68.8444 47.5644 68.5717 47.2955C68.3027 47.0265 67.9504 46.892 67.5148 46.892C67.2194 46.892 66.9504 46.9678 66.708 47.1193C66.4656 47.267 66.2724 47.4773 66.1285 47.75C65.9845 48.0189 65.9126 48.3333 65.9126 48.6932V54H63.8557ZM82.0788 54.1705C81.2038 54.1705 80.4481 53.9886 79.8117 53.625C79.1791 53.2576 78.6924 52.7386 78.3515 52.0682C78.0106 51.3939 77.8401 50.6004 77.8401 49.6875C77.8401 48.7898 78.0106 48.0019 78.3515 47.3239C78.6962 46.642 79.1772 46.1117 79.7947 45.733C80.4121 45.3504 81.1375 45.1591 81.9708 45.1591C82.5087 45.1591 83.0163 45.2462 83.4935 45.4205C83.9746 45.5909 84.3988 45.8561 84.7663 46.2159C85.1375 46.5758 85.4291 47.0341 85.6413 47.5909C85.8534 48.1439 85.9594 48.803 85.9594 49.5682V50.1989H78.806V48.8125H83.9879C83.9841 48.4186 83.8988 48.0682 83.7322 47.7614C83.5655 47.4508 83.3325 47.2064 83.0333 47.0284C82.7379 46.8504 82.3932 46.7614 81.9992 46.7614C81.5788 46.7614 81.2094 46.8636 80.8913 47.0682C80.5731 47.2689 80.325 47.5341 80.1469 47.8636C79.9727 48.1894 79.8837 48.5473 79.8799 48.9375V50.1477C79.8799 50.6553 79.9727 51.0909 80.1583 51.4545C80.3439 51.8144 80.6034 52.0909 80.9367 52.2841C81.27 52.4735 81.6602 52.5682 82.1072 52.5682C82.4064 52.5682 82.6772 52.5265 82.9197 52.4432C83.1621 52.3561 83.3723 52.2292 83.5504 52.0625C83.7284 51.8958 83.8629 51.6894 83.9538 51.4432L85.8742 51.6591C85.753 52.1667 85.5219 52.6098 85.181 52.9886C84.8439 53.3636 84.4121 53.6553 83.8856 53.8636C83.3591 54.0682 82.7568 54.1705 82.0788 54.1705ZM89.7563 48.8864V54H87.6995V45.2727H89.6654V46.7557H89.7677C89.9684 46.267 90.2885 45.8788 90.7279 45.5909C91.1711 45.303 91.7184 45.1591 92.37 45.1591C92.9722 45.1591 93.4969 45.2879 93.9438 45.5455C94.3946 45.803 94.7431 46.1761 94.9893 46.6648C95.2393 47.1534 95.3624 47.7462 95.3586 48.4432V54H93.3018V48.7614C93.3018 48.178 93.1503 47.7216 92.8472 47.392C92.548 47.0625 92.1332 46.8977 91.6029 46.8977C91.2431 46.8977 90.923 46.9773 90.6427 47.1364C90.3662 47.2917 90.1484 47.517 89.9893 47.8125C89.834 48.108 89.7563 48.4659 89.7563 48.8864ZM101.807 45.2727V46.8636H96.7904V45.2727H101.807ZM98.029 43.1818H100.086V51.375C100.086 51.6515 100.128 51.8636 100.211 52.0114C100.298 52.1553 100.412 52.2538 100.552 52.3068C100.692 52.3598 100.847 52.3864 101.018 52.3864C101.146 52.3864 101.264 52.3769 101.37 52.358C101.48 52.339 101.563 52.322 101.62 52.3068L101.967 53.9148C101.857 53.9527 101.7 53.9943 101.495 54.0398C101.294 54.0852 101.048 54.1117 100.756 54.1193C100.241 54.1345 99.7772 54.0568 99.3643 53.8864C98.9514 53.7121 98.6237 53.4432 98.3813 53.0795C98.1427 52.7159 98.0253 52.2614 98.029 51.7159V43.1818ZM106.039 54.1761C105.486 54.1761 104.988 54.0777 104.545 53.8807C104.105 53.6799 103.757 53.3845 103.499 52.9943C103.245 52.6042 103.119 52.1231 103.119 51.5511C103.119 51.0587 103.209 50.6515 103.391 50.3295C103.573 50.0076 103.821 49.75 104.136 49.5568C104.45 49.3636 104.804 49.2178 105.198 49.1193C105.596 49.017 106.007 48.9432 106.431 48.8977C106.942 48.8447 107.357 48.7973 107.675 48.7557C107.994 48.7102 108.225 48.642 108.369 48.5511C108.516 48.4564 108.59 48.3106 108.59 48.1136V48.0795C108.59 47.6515 108.463 47.3201 108.209 47.0852C107.956 46.8504 107.59 46.733 107.113 46.733C106.609 46.733 106.209 46.8428 105.914 47.0625C105.622 47.2822 105.425 47.5417 105.323 47.8409L103.403 47.5682C103.554 47.0379 103.804 46.5947 104.153 46.2386C104.501 45.8788 104.927 45.6098 105.431 45.4318C105.935 45.25 106.492 45.1591 107.101 45.1591C107.522 45.1591 107.941 45.2083 108.357 45.3068C108.774 45.4053 109.155 45.5682 109.499 45.7955C109.844 46.0189 110.12 46.3239 110.329 46.7102C110.541 47.0966 110.647 47.5795 110.647 48.1591V54H108.67V52.8011H108.601C108.476 53.0436 108.3 53.2708 108.073 53.483C107.85 53.6913 107.567 53.8598 107.226 53.9886C106.889 54.1136 106.494 54.1761 106.039 54.1761ZM106.573 52.6648C106.986 52.6648 107.344 52.5833 107.647 52.4205C107.95 52.2538 108.183 52.0341 108.346 51.7614C108.512 51.4886 108.596 51.1913 108.596 50.8693V49.8409C108.531 49.8939 108.422 49.9432 108.266 49.9886C108.115 50.0341 107.944 50.0739 107.755 50.108C107.566 50.142 107.378 50.1723 107.192 50.1989C107.007 50.2254 106.846 50.2481 106.709 50.267C106.403 50.3087 106.128 50.3769 105.886 50.4716C105.643 50.5663 105.452 50.6989 105.312 50.8693C105.172 51.036 105.101 51.2519 105.101 51.517C105.101 51.8958 105.24 52.1818 105.516 52.375C105.793 52.5682 106.145 52.6648 106.573 52.6648ZM117.073 45.2727V46.8636H112.056V45.2727H117.073ZM113.295 43.1818H115.351V51.375C115.351 51.6515 115.393 51.8636 115.476 52.0114C115.564 52.1553 115.677 52.2538 115.817 52.3068C115.958 52.3598 116.113 52.3864 116.283 52.3864C116.412 52.3864 116.53 52.3769 116.636 52.358C116.745 52.339 116.829 52.322 116.886 52.3068L117.232 53.9148C117.122 53.9527 116.965 53.9943 116.761 54.0398C116.56 54.0852 116.314 54.1117 116.022 54.1193C115.507 54.1345 115.043 54.0568 114.63 53.8864C114.217 53.7121 113.889 53.4432 113.647 53.0795C113.408 52.7159 113.291 52.2614 113.295 51.7159V43.1818ZM118.793 54V45.2727H120.85V54H118.793ZM119.827 44.0341C119.502 44.0341 119.221 43.9261 118.986 43.7102C118.752 43.4905 118.634 43.2273 118.634 42.9205C118.634 42.6098 118.752 42.3466 118.986 42.1307C119.221 41.911 119.502 41.8011 119.827 41.8011C120.157 41.8011 120.437 41.911 120.668 42.1307C120.903 42.3466 121.021 42.6098 121.021 42.9205C121.021 43.2273 120.903 43.4905 120.668 43.7102C120.437 43.9261 120.157 44.0341 119.827 44.0341ZM126.772 54.1705C125.92 54.1705 125.181 53.983 124.556 53.608C123.931 53.233 123.446 52.7083 123.101 52.0341C122.761 51.3598 122.59 50.572 122.59 49.6705C122.59 48.7689 122.761 47.9792 123.101 47.3011C123.446 46.6231 123.931 46.0966 124.556 45.7216C125.181 45.3466 125.92 45.1591 126.772 45.1591C127.624 45.1591 128.363 45.3466 128.988 45.7216C129.613 46.0966 130.096 46.6231 130.437 47.3011C130.781 47.9792 130.954 48.7689 130.954 49.6705C130.954 50.572 130.781 51.3598 130.437 52.0341C130.096 52.7083 129.613 53.233 128.988 53.608C128.363 53.983 127.624 54.1705 126.772 54.1705ZM126.783 52.5227C127.245 52.5227 127.632 52.3958 127.942 52.142C128.253 51.8845 128.484 51.5398 128.636 51.108C128.791 50.6761 128.869 50.1951 128.869 49.6648C128.869 49.1307 128.791 48.6477 128.636 48.2159C128.484 47.7803 128.253 47.4337 127.942 47.1761C127.632 46.9186 127.245 46.7898 126.783 46.7898C126.31 46.7898 125.916 46.9186 125.601 47.1761C125.291 47.4337 125.058 47.7803 124.903 48.2159C124.751 48.6477 124.675 49.1307 124.675 49.6648C124.675 50.1951 124.751 50.6761 124.903 51.108C125.058 51.5398 125.291 51.8845 125.601 52.142C125.916 52.3958 126.31 52.5227 126.783 52.5227ZM134.756 48.8864V54H132.7V45.2727H134.665V46.7557H134.768C134.968 46.267 135.289 45.8788 135.728 45.5909C136.171 45.303 136.718 45.1591 137.37 45.1591C137.972 45.1591 138.497 45.2879 138.944 45.5455C139.395 45.803 139.743 46.1761 139.989 46.6648C140.239 47.1534 140.362 47.7462 140.359 48.4432V54H138.302V48.7614C138.302 48.178 138.15 47.7216 137.847 47.392C137.548 47.0625 137.133 46.8977 136.603 46.8977C136.243 46.8977 135.923 46.9773 135.643 47.1364C135.366 47.2917 135.148 47.517 134.989 47.8125C134.834 48.108 134.756 48.4659 134.756 48.8864Z" fill="#052E16"/>
</svg>
