<svg width="164" height="78" viewBox="0 0 164 78" fill="none" xmlns="http://www.w3.org/2000/svg">
<path fill-rule="evenodd" clip-rule="evenodd" d="M1 77L22.6 1H163L141.4 77H1Z" fill="#BBF7D0" stroke="#71717A" stroke-linecap="round" stroke-linejoin="round"/>
<path d="M36.2066 35H33.9566L38.0532 23.3636H40.6555L44.7577 35H42.5077L39.3998 25.75H39.3089L36.2066 35ZM36.2805 30.4375H42.4168V32.1307H36.2805V30.4375ZM46.1995 35V26.2727H48.1938V27.7273H48.2847C48.4438 27.2235 48.7165 26.8352 49.1029 26.5625C49.4931 26.286 49.9381 26.1477 50.4381 26.1477C50.5518 26.1477 50.6787 26.1534 50.8188 26.1648C50.9628 26.1723 51.0821 26.1856 51.1768 26.2045V28.0966C51.0897 28.0663 50.9514 28.0398 50.762 28.017C50.5764 27.9905 50.3965 27.9773 50.2222 27.9773C49.8472 27.9773 49.5101 28.0587 49.2109 28.2216C48.9154 28.3807 48.6825 28.6023 48.512 28.8864C48.3415 29.1705 48.2563 29.4981 48.2563 29.8693V35H46.1995ZM55.9907 35.1705C55.1195 35.1705 54.3714 34.9792 53.7464 34.5966C53.1252 34.214 52.646 33.6856 52.3089 33.0114C51.9755 32.3333 51.8089 31.553 51.8089 30.6705C51.8089 29.7841 51.9793 29.0019 52.3202 28.3239C52.6611 27.642 53.1422 27.1117 53.7634 26.733C54.3884 26.3504 55.1271 26.1591 55.9793 26.1591C56.6877 26.1591 57.3146 26.2898 57.86 26.5511C58.4093 26.8087 58.8468 27.1742 59.1725 27.6477C59.4983 28.1174 59.6839 28.6667 59.7293 29.2955H57.7634C57.6839 28.875 57.4945 28.5246 57.1952 28.2443C56.8998 27.9602 56.504 27.8182 56.0077 27.8182C55.5873 27.8182 55.218 27.9318 54.8998 28.1591C54.5816 28.3826 54.3335 28.7045 54.1555 29.125C53.9812 29.5455 53.8941 30.0492 53.8941 30.6364C53.8941 31.2311 53.9812 31.7424 54.1555 32.1705C54.3297 32.5947 54.574 32.9223 54.8884 33.1534C55.2066 33.3807 55.5797 33.4943 56.0077 33.4943C56.3108 33.4943 56.5816 33.4375 56.8202 33.3239C57.0627 33.2064 57.2653 33.0379 57.4282 32.8182C57.5911 32.5985 57.7028 32.3314 57.7634 32.017H59.7293C59.6801 32.6345 59.4983 33.1818 59.1839 33.6591C58.8695 34.1326 58.4415 34.5038 57.8998 34.7727C57.3581 35.0379 56.7218 35.1705 55.9907 35.1705ZM63.4751 29.8864V35H61.4182V23.3636H63.4296V27.7557H63.5319C63.7364 27.2633 64.0527 26.875 64.4807 26.5909C64.9126 26.303 65.4618 26.1591 66.1285 26.1591C66.7345 26.1591 67.2629 26.286 67.7137 26.5398C68.1645 26.7936 68.5129 27.1648 68.7592 27.6534C69.0092 28.142 69.1342 28.7386 69.1342 29.4432V35H67.0773V29.7614C67.0773 29.1742 66.9258 28.7178 66.6228 28.392C66.3236 28.0625 65.9031 27.8977 65.3614 27.8977C64.9978 27.8977 64.672 27.9773 64.3842 28.1364C64.1001 28.2917 63.8766 28.517 63.7137 28.8125C63.5546 29.108 63.4751 29.4659 63.4751 29.8864ZM71.2307 35V26.2727H73.2876V35H71.2307ZM72.2648 25.0341C71.9391 25.0341 71.6588 24.9261 71.4239 24.7102C71.1891 24.4905 71.0717 24.2273 71.0717 23.9205C71.0717 23.6098 71.1891 23.3466 71.4239 23.1307C71.6588 22.911 71.9391 22.8011 72.2648 22.8011C72.5944 22.8011 72.8747 22.911 73.1057 23.1307C73.3406 23.3466 73.458 23.6098 73.458 23.9205C73.458 24.2273 73.3406 24.4905 73.1057 24.7102C72.8747 24.9261 72.5944 25.0341 72.2648 25.0341ZM79.7606 26.2727V27.8636H74.7435V26.2727H79.7606ZM75.9822 24.1818H78.039V32.375C78.039 32.6515 78.0807 32.8636 78.164 33.0114C78.2511 33.1553 78.3647 33.2538 78.5049 33.3068C78.645 33.3598 78.8004 33.3864 78.9708 33.3864C79.0996 33.3864 79.217 33.3769 79.3231 33.358C79.4329 33.339 79.5163 33.322 79.5731 33.3068L79.9197 34.9148C79.8098 34.9527 79.6526 34.9943 79.4481 35.0398C79.2473 35.0852 79.0011 35.1117 78.7094 35.1193C78.1943 35.1345 77.7303 35.0568 77.3174 34.8864C76.9045 34.7121 76.5769 34.4432 76.3344 34.0795C76.0958 33.7159 75.9784 33.2614 75.9822 32.7159V24.1818ZM85.2506 35.1705C84.3756 35.1705 83.62 34.9886 82.9836 34.625C82.351 34.2576 81.8643 33.7386 81.5234 33.0682C81.1825 32.3939 81.012 31.6004 81.012 30.6875C81.012 29.7898 81.1825 29.0019 81.5234 28.3239C81.8681 27.642 82.3491 27.1117 82.9665 26.733C83.584 26.3504 84.3093 26.1591 85.1427 26.1591C85.6806 26.1591 86.1881 26.2462 86.6654 26.4205C87.1465 26.5909 87.5707 26.8561 87.9381 27.2159C88.3093 27.5758 88.601 28.0341 88.8131 28.5909C89.0253 29.1439 89.1313 29.803 89.1313 30.5682V31.1989H81.9779V29.8125H87.1597C87.1559 29.4186 87.0707 29.0682 86.904 28.7614C86.7374 28.4508 86.5044 28.2064 86.2052 28.0284C85.9097 27.8504 85.565 27.7614 85.1711 27.7614C84.7506 27.7614 84.3813 27.8636 84.0631 28.0682C83.745 28.2689 83.4968 28.5341 83.3188 28.8636C83.1446 29.1894 83.0556 29.5473 83.0518 29.9375V31.1477C83.0518 31.6553 83.1446 32.0909 83.3302 32.4545C83.5158 32.8144 83.7753 33.0909 84.1086 33.2841C84.4419 33.4735 84.8321 33.5682 85.279 33.5682C85.5783 33.5682 85.8491 33.5265 86.0915 33.4432C86.334 33.3561 86.5442 33.2292 86.7222 33.0625C86.9003 32.8958 87.0347 32.6894 87.1256 32.4432L89.0461 32.6591C88.9249 33.1667 88.6938 33.6098 88.3529 33.9886C88.0158 34.3636 87.584 34.6553 87.0575 34.8636C86.5309 35.0682 85.9287 35.1705 85.2506 35.1705ZM94.6782 35.1705C93.807 35.1705 93.0589 34.9792 92.4339 34.5966C91.8127 34.214 91.3335 33.6856 90.9964 33.0114C90.663 32.3333 90.4964 31.553 90.4964 30.6705C90.4964 29.7841 90.6668 29.0019 91.0077 28.3239C91.3487 27.642 91.8297 27.1117 92.4509 26.733C93.0759 26.3504 93.8146 26.1591 94.6668 26.1591C95.3752 26.1591 96.0021 26.2898 96.5475 26.5511C97.0968 26.8087 97.5343 27.1742 97.86 27.6477C98.1858 28.1174 98.3714 28.6667 98.4168 29.2955H96.4509C96.3714 28.875 96.182 28.5246 95.8827 28.2443C95.5873 27.9602 95.1915 27.8182 94.6952 27.8182C94.2748 27.8182 93.9055 27.9318 93.5873 28.1591C93.2691 28.3826 93.021 28.7045 92.843 29.125C92.6687 29.5455 92.5816 30.0492 92.5816 30.6364C92.5816 31.2311 92.6687 31.7424 92.843 32.1705C93.0172 32.5947 93.2615 32.9223 93.5759 33.1534C93.8941 33.3807 94.2672 33.4943 94.6952 33.4943C94.9983 33.4943 95.2691 33.4375 95.5077 33.3239C95.7502 33.2064 95.9528 33.0379 96.1157 32.8182C96.2786 32.5985 96.3903 32.3314 96.4509 32.017H98.4168C98.3676 32.6345 98.1858 33.1818 97.8714 33.6591C97.557 34.1326 97.129 34.5038 96.5873 34.7727C96.0456 35.0379 95.4093 35.1705 94.6782 35.1705ZM104.464 26.2727V27.8636H99.4467V26.2727H104.464ZM100.685 24.1818H102.742V32.375C102.742 32.6515 102.784 32.8636 102.867 33.0114C102.954 33.1553 103.068 33.2538 103.208 33.3068C103.348 33.3598 103.503 33.3864 103.674 33.3864C103.803 33.3864 103.92 33.3769 104.026 33.358C104.136 33.339 104.219 33.322 104.276 33.3068L104.623 34.9148C104.513 34.9527 104.356 34.9943 104.151 35.0398C103.95 35.0852 103.704 35.1117 103.413 35.1193C102.897 35.1345 102.433 35.0568 102.021 34.8864C101.608 34.7121 101.28 34.4432 101.038 34.0795C100.799 33.7159 100.682 33.2614 100.685 32.7159V24.1818ZM111.746 31.3295V26.2727H113.803V35H111.809V33.4489H111.718C111.521 33.9375 111.197 34.3371 110.746 34.6477C110.299 34.9583 109.748 35.1136 109.093 35.1136C108.521 35.1136 108.015 34.9867 107.576 34.733C107.14 34.4754 106.799 34.1023 106.553 33.6136C106.307 33.1212 106.184 32.5265 106.184 31.8295V26.2727H108.241V31.5114C108.241 32.0644 108.392 32.5038 108.695 32.8295C108.998 33.1553 109.396 33.3182 109.888 33.3182C110.191 33.3182 110.485 33.2443 110.769 33.0966C111.053 32.9489 111.286 32.7292 111.468 32.4375C111.654 32.142 111.746 31.7727 111.746 31.3295ZM115.918 35V26.2727H117.913V27.7273H118.003C118.163 27.2235 118.435 26.8352 118.822 26.5625C119.212 26.286 119.657 26.1477 120.157 26.1477C120.271 26.1477 120.397 26.1534 120.538 26.1648C120.682 26.1723 120.801 26.1856 120.896 26.2045V28.0966C120.808 28.0663 120.67 28.0398 120.481 28.017C120.295 27.9905 120.115 27.9773 119.941 27.9773C119.566 27.9773 119.229 28.0587 118.93 28.2216C118.634 28.3807 118.401 28.6023 118.231 28.8864C118.06 29.1705 117.975 29.4981 117.975 29.8693V35H115.918ZM125.766 35.1705C124.891 35.1705 124.136 34.9886 123.499 34.625C122.867 34.2576 122.38 33.7386 122.039 33.0682C121.698 32.3939 121.528 31.6004 121.528 30.6875C121.528 29.7898 121.698 29.0019 122.039 28.3239C122.384 27.642 122.865 27.1117 123.482 26.733C124.1 26.3504 124.825 26.1591 125.658 26.1591C126.196 26.1591 126.704 26.2462 127.181 26.4205C127.662 26.5909 128.086 26.8561 128.454 27.2159C128.825 27.5758 129.117 28.0341 129.329 28.5909C129.541 29.1439 129.647 29.803 129.647 30.5682V31.1989H122.494V29.8125H127.675C127.672 29.4186 127.586 29.0682 127.42 28.7614C127.253 28.4508 127.02 28.2064 126.721 28.0284C126.425 27.8504 126.081 27.7614 125.687 27.7614C125.266 27.7614 124.897 27.8636 124.579 28.0682C124.261 28.2689 124.012 28.5341 123.834 28.8636C123.66 29.1894 123.571 29.5473 123.567 29.9375V31.1477C123.567 31.6553 123.66 32.0909 123.846 32.4545C124.031 32.8144 124.291 33.0909 124.624 33.2841C124.958 33.4735 125.348 33.5682 125.795 33.5682C126.094 33.5682 126.365 33.5265 126.607 33.4432C126.85 33.3561 127.06 33.2292 127.238 33.0625C127.416 32.8958 127.55 32.6894 127.641 32.4432L129.562 32.6591C129.441 33.1667 129.209 33.6098 128.869 33.9886C128.531 34.3636 128.1 34.6553 127.573 34.8636C127.047 35.0682 126.444 35.1705 125.766 35.1705ZM27.593 54H23.6498V42.3636H27.6725C28.8278 42.3636 29.8202 42.5966 30.6498 43.0625C31.4831 43.5246 32.1233 44.1894 32.5702 45.0568C33.0172 45.9242 33.2407 46.9621 33.2407 48.1705C33.2407 49.3826 33.0153 50.4242 32.5646 51.2955C32.1176 52.1667 31.4718 52.8352 30.6271 53.3011C29.7861 53.767 28.7748 54 27.593 54ZM25.7577 52.1761H27.4907C28.3013 52.1761 28.9774 52.0284 29.5191 51.733C30.0608 51.4337 30.468 50.9886 30.7407 50.3977C31.0134 49.803 31.1498 49.0606 31.1498 48.1705C31.1498 47.2803 31.0134 46.5417 30.7407 45.9545C30.468 45.3636 30.0646 44.9223 29.5305 44.6307C29.0002 44.3352 28.3411 44.1875 27.5532 44.1875H25.7577V52.1761ZM38.9594 54.1705C38.1072 54.1705 37.3685 53.983 36.7435 53.608C36.1185 53.233 35.6337 52.7083 35.289 52.0341C34.9481 51.3598 34.7776 50.572 34.7776 49.6705C34.7776 48.7689 34.9481 47.9792 35.289 47.3011C35.6337 46.6231 36.1185 46.0966 36.7435 45.7216C37.3685 45.3466 38.1072 45.1591 38.9594 45.1591C39.8117 45.1591 40.5504 45.3466 41.1754 45.7216C41.8004 46.0966 42.2833 46.6231 42.6242 47.3011C42.9689 47.9792 43.1413 48.7689 43.1413 49.6705C43.1413 50.572 42.9689 51.3598 42.6242 52.0341C42.2833 52.7083 41.8004 53.233 41.1754 53.608C40.5504 53.983 39.8117 54.1705 38.9594 54.1705ZM38.9708 52.5227C39.4329 52.5227 39.8193 52.3958 40.1299 52.142C40.4405 51.8845 40.6716 51.5398 40.8231 51.108C40.9784 50.6761 41.056 50.1951 41.056 49.6648C41.056 49.1307 40.9784 48.6477 40.8231 48.2159C40.6716 47.7803 40.4405 47.4337 40.1299 47.1761C39.8193 46.9186 39.4329 46.7898 38.9708 46.7898C38.4973 46.7898 38.1034 46.9186 37.789 47.1761C37.4784 47.4337 37.2454 47.7803 37.0901 48.2159C36.9386 48.6477 36.8629 49.1307 36.8629 49.6648C36.8629 50.1951 36.9386 50.6761 37.0901 51.108C37.2454 51.5398 37.4784 51.8845 37.789 52.142C38.1034 52.3958 38.4973 52.5227 38.9708 52.5227ZM48.6938 54.1705C47.8226 54.1705 47.0745 53.9792 46.4495 53.5966C45.8283 53.214 45.3491 52.6856 45.012 52.0114C44.6787 51.3333 44.512 50.553 44.512 49.6705C44.512 48.7841 44.6825 48.0019 45.0234 47.3239C45.3643 46.642 45.8453 46.1117 46.4665 45.733C47.0915 45.3504 47.8302 45.1591 48.6825 45.1591C49.3908 45.1591 50.0177 45.2898 50.5631 45.5511C51.1124 45.8087 51.5499 46.1742 51.8756 46.6477C52.2014 47.1174 52.387 47.6667 52.4325 48.2955H50.4665C50.387 47.875 50.1976 47.5246 49.8984 47.2443C49.6029 46.9602 49.2071 46.8182 48.7109 46.8182C48.2904 46.8182 47.9211 46.9318 47.6029 47.1591C47.2847 47.3826 47.0366 47.7045 46.8586 48.125C46.6843 48.5455 46.5972 49.0492 46.5972 49.6364C46.5972 50.2311 46.6843 50.7424 46.8586 51.1705C47.0328 51.5947 47.2772 51.9223 47.5915 52.1534C47.9097 52.3807 48.2828 52.4943 48.7109 52.4943C49.0139 52.4943 49.2847 52.4375 49.5234 52.3239C49.7658 52.2064 49.9684 52.0379 50.1313 51.8182C50.2942 51.5985 50.4059 51.3314 50.4665 51.017H52.4325C52.3832 51.6345 52.2014 52.1818 51.887 52.6591C51.5726 53.1326 51.1446 53.5038 50.6029 53.7727C50.0612 54.0379 49.4249 54.1705 48.6938 54.1705ZM59.6839 50.3295V45.2727H61.7407V54H59.7464V52.4489H59.6555C59.4585 52.9375 59.1346 53.3371 58.6839 53.6477C58.2369 53.9583 57.6858 54.1136 57.0305 54.1136C56.4585 54.1136 55.9528 53.9867 55.5134 53.733C55.0778 53.4754 54.7369 53.1023 54.4907 52.6136C54.2445 52.1212 54.1214 51.5265 54.1214 50.8295V45.2727H56.1782V50.5114C56.1782 51.0644 56.3297 51.5038 56.6327 51.8295C56.9358 52.1553 57.3335 52.3182 57.8259 52.3182C58.129 52.3182 58.4225 52.2443 58.7066 52.0966C58.9907 51.9489 59.2236 51.7292 59.4055 51.4375C59.5911 51.142 59.6839 50.7727 59.6839 50.3295ZM63.8557 54V45.2727H65.8217V46.7557H65.9239C66.1057 46.2557 66.4069 45.8655 66.8273 45.5852C67.2478 45.3011 67.7497 45.1591 68.333 45.1591C68.9239 45.1591 69.422 45.303 69.8273 45.5909C70.2364 45.875 70.5243 46.2633 70.691 46.7557H70.7819C70.9751 46.2708 71.3008 45.8845 71.7592 45.5966C72.2213 45.3049 72.7686 45.1591 73.4012 45.1591C74.2042 45.1591 74.8595 45.4129 75.3671 45.9205C75.8747 46.428 76.1285 47.1686 76.1285 48.142V54H74.066V48.4602C74.066 47.9186 73.922 47.5227 73.6342 47.2727C73.3463 47.0189 72.994 46.892 72.5773 46.892C72.0811 46.892 71.6929 47.0473 71.4126 47.358C71.1361 47.6648 70.9978 48.0644 70.9978 48.5568V54H68.9807V48.375C68.9807 47.9242 68.8444 47.5644 68.5717 47.2955C68.3027 47.0265 67.9504 46.892 67.5148 46.892C67.2194 46.892 66.9504 46.9678 66.708 47.1193C66.4656 47.267 66.2724 47.4773 66.1285 47.75C65.9845 48.0189 65.9126 48.3333 65.9126 48.6932V54H63.8557ZM82.0788 54.1705C81.2038 54.1705 80.4481 53.9886 79.8117 53.625C79.1791 53.2576 78.6924 52.7386 78.3515 52.0682C78.0106 51.3939 77.8401 50.6004 77.8401 49.6875C77.8401 48.7898 78.0106 48.0019 78.3515 47.3239C78.6962 46.642 79.1772 46.1117 79.7947 45.733C80.4121 45.3504 81.1375 45.1591 81.9708 45.1591C82.5087 45.1591 83.0163 45.2462 83.4935 45.4205C83.9746 45.5909 84.3988 45.8561 84.7663 46.2159C85.1375 46.5758 85.4291 47.0341 85.6413 47.5909C85.8534 48.1439 85.9594 48.803 85.9594 49.5682V50.1989H78.806V48.8125H83.9879C83.9841 48.4186 83.8988 48.0682 83.7322 47.7614C83.5655 47.4508 83.3325 47.2064 83.0333 47.0284C82.7379 46.8504 82.3932 46.7614 81.9992 46.7614C81.5788 46.7614 81.2094 46.8636 80.8913 47.0682C80.5731 47.2689 80.325 47.5341 80.1469 47.8636C79.9727 48.1894 79.8837 48.5473 79.8799 48.9375V50.1477C79.8799 50.6553 79.9727 51.0909 80.1583 51.4545C80.3439 51.8144 80.6034 52.0909 80.9367 52.2841C81.27 52.4735 81.6602 52.5682 82.1072 52.5682C82.4064 52.5682 82.6772 52.5265 82.9197 52.4432C83.1621 52.3561 83.3723 52.2292 83.5504 52.0625C83.7284 51.8958 83.8629 51.6894 83.9538 51.4432L85.8742 51.6591C85.753 52.1667 85.5219 52.6098 85.181 52.9886C84.8439 53.3636 84.4121 53.6553 83.8856 53.8636C83.3591 54.0682 82.7568 54.1705 82.0788 54.1705ZM89.7563 48.8864V54H87.6995V45.2727H89.6654V46.7557H89.7677C89.9684 46.267 90.2885 45.8788 90.7279 45.5909C91.1711 45.303 91.7184 45.1591 92.37 45.1591C92.9722 45.1591 93.4969 45.2879 93.9438 45.5455C94.3946 45.803 94.7431 46.1761 94.9893 46.6648C95.2393 47.1534 95.3624 47.7462 95.3586 48.4432V54H93.3018V48.7614C93.3018 48.178 93.1503 47.7216 92.8472 47.392C92.548 47.0625 92.1332 46.8977 91.6029 46.8977C91.2431 46.8977 90.923 46.9773 90.6427 47.1364C90.3662 47.2917 90.1484 47.517 89.9893 47.8125C89.834 48.108 89.7563 48.4659 89.7563 48.8864ZM101.807 45.2727V46.8636H96.7904V45.2727H101.807ZM98.029 43.1818H100.086V51.375C100.086 51.6515 100.128 51.8636 100.211 52.0114C100.298 52.1553 100.412 52.2538 100.552 52.3068C100.692 52.3598 100.847 52.3864 101.018 52.3864C101.146 52.3864 101.264 52.3769 101.37 52.358C101.48 52.339 101.563 52.322 101.62 52.3068L101.967 53.9148C101.857 53.9527 101.7 53.9943 101.495 54.0398C101.294 54.0852 101.048 54.1117 100.756 54.1193C100.241 54.1345 99.7772 54.0568 99.3643 53.8864C98.9514 53.7121 98.6237 53.4432 98.3813 53.0795C98.1427 52.7159 98.0253 52.2614 98.029 51.7159V43.1818ZM106.039 54.1761C105.486 54.1761 104.988 54.0777 104.545 53.8807C104.105 53.6799 103.757 53.3845 103.499 52.9943C103.245 52.6042 103.119 52.1231 103.119 51.5511C103.119 51.0587 103.209 50.6515 103.391 50.3295C103.573 50.0076 103.821 49.75 104.136 49.5568C104.45 49.3636 104.804 49.2178 105.198 49.1193C105.596 49.017 106.007 48.9432 106.431 48.8977C106.942 48.8447 107.357 48.7973 107.675 48.7557C107.994 48.7102 108.225 48.642 108.369 48.5511C108.516 48.4564 108.59 48.3106 108.59 48.1136V48.0795C108.59 47.6515 108.463 47.3201 108.209 47.0852C107.956 46.8504 107.59 46.733 107.113 46.733C106.609 46.733 106.209 46.8428 105.914 47.0625C105.622 47.2822 105.425 47.5417 105.323 47.8409L103.403 47.5682C103.554 47.0379 103.804 46.5947 104.153 46.2386C104.501 45.8788 104.927 45.6098 105.431 45.4318C105.935 45.25 106.492 45.1591 107.101 45.1591C107.522 45.1591 107.941 45.2083 108.357 45.3068C108.774 45.4053 109.155 45.5682 109.499 45.7955C109.844 46.0189 110.12 46.3239 110.329 46.7102C110.541 47.0966 110.647 47.5795 110.647 48.1591V54H108.67V52.8011H108.601C108.476 53.0436 108.3 53.2708 108.073 53.483C107.85 53.6913 107.567 53.8598 107.226 53.9886C106.889 54.1136 106.494 54.1761 106.039 54.1761ZM106.573 52.6648C106.986 52.6648 107.344 52.5833 107.647 52.4205C107.95 52.2538 108.183 52.0341 108.346 51.7614C108.512 51.4886 108.596 51.1913 108.596 50.8693V49.8409C108.531 49.8939 108.422 49.9432 108.266 49.9886C108.115 50.0341 107.944 50.0739 107.755 50.108C107.566 50.142 107.378 50.1723 107.192 50.1989C107.007 50.2254 106.846 50.2481 106.709 50.267C106.403 50.3087 106.128 50.3769 105.886 50.4716C105.643 50.5663 105.452 50.6989 105.312 50.8693C105.172 51.036 105.101 51.2519 105.101 51.517C105.101 51.8958 105.24 52.1818 105.516 52.375C105.793 52.5682 106.145 52.6648 106.573 52.6648ZM117.073 45.2727V46.8636H112.056V45.2727H117.073ZM113.295 43.1818H115.351V51.375C115.351 51.6515 115.393 51.8636 115.476 52.0114C115.564 52.1553 115.677 52.2538 115.817 52.3068C115.958 52.3598 116.113 52.3864 116.283 52.3864C116.412 52.3864 116.53 52.3769 116.636 52.358C116.745 52.339 116.829 52.322 116.886 52.3068L117.232 53.9148C117.122 53.9527 116.965 53.9943 116.761 54.0398C116.56 54.0852 116.314 54.1117 116.022 54.1193C115.507 54.1345 115.043 54.0568 114.63 53.8864C114.217 53.7121 113.889 53.4432 113.647 53.0795C113.408 52.7159 113.291 52.2614 113.295 51.7159V43.1818ZM118.793 54V45.2727H120.85V54H118.793ZM119.827 44.0341C119.502 44.0341 119.221 43.9261 118.986 43.7102C118.752 43.4905 118.634 43.2273 118.634 42.9205C118.634 42.6098 118.752 42.3466 118.986 42.1307C119.221 41.911 119.502 41.8011 119.827 41.8011C120.157 41.8011 120.437 41.911 120.668 42.1307C120.903 42.3466 121.021 42.6098 121.021 42.9205C121.021 43.2273 120.903 43.4905 120.668 43.7102C120.437 43.9261 120.157 44.0341 119.827 44.0341ZM126.772 54.1705C125.92 54.1705 125.181 53.983 124.556 53.608C123.931 53.233 123.446 52.7083 123.101 52.0341C122.761 51.3598 122.59 50.572 122.59 49.6705C122.59 48.7689 122.761 47.9792 123.101 47.3011C123.446 46.6231 123.931 46.0966 124.556 45.7216C125.181 45.3466 125.92 45.1591 126.772 45.1591C127.624 45.1591 128.363 45.3466 128.988 45.7216C129.613 46.0966 130.096 46.6231 130.437 47.3011C130.781 47.9792 130.954 48.7689 130.954 49.6705C130.954 50.572 130.781 51.3598 130.437 52.0341C130.096 52.7083 129.613 53.233 128.988 53.608C128.363 53.983 127.624 54.1705 126.772 54.1705ZM126.783 52.5227C127.245 52.5227 127.632 52.3958 127.942 52.142C128.253 51.8845 128.484 51.5398 128.636 51.108C128.791 50.6761 128.869 50.1951 128.869 49.6648C128.869 49.1307 128.791 48.6477 128.636 48.2159C128.484 47.7803 128.253 47.4337 127.942 47.1761C127.632 46.9186 127.245 46.7898 126.783 46.7898C126.31 46.7898 125.916 46.9186 125.601 47.1761C125.291 47.4337 125.058 47.7803 124.903 48.2159C124.751 48.6477 124.675 49.1307 124.675 49.6648C124.675 50.1951 124.751 50.6761 124.903 51.108C125.058 51.5398 125.291 51.8845 125.601 52.142C125.916 52.3958 126.31 52.5227 126.783 52.5227ZM134.756 48.8864V54H132.7V45.2727H134.665V46.7557H134.768C134.968 46.267 135.289 45.8788 135.728 45.5909C136.171 45.303 136.718 45.1591 137.37 45.1591C137.972 45.1591 138.497 45.2879 138.944 45.5455C139.395 45.803 139.743 46.1761 139.989 46.6648C140.239 47.1534 140.362 47.7462 140.359 48.4432V54H138.302V48.7614C138.302 48.178 138.15 47.7216 137.847 47.392C137.548 47.0625 137.133 46.8977 136.603 46.8977C136.243 46.8977 135.923 46.9773 135.643 47.1364C135.366 47.2917 135.148 47.517 134.989 47.8125C134.834 48.108 134.756 48.4659 134.756 48.8864Z" fill="#052E16"/>
</svg>
