<svg width="164" height="78" viewBox="0 0 164 78" fill="none" xmlns="http://www.w3.org/2000/svg">
<path fill-rule="evenodd" clip-rule="evenodd" d="M1 77L22.6 1H163L141.4 77H1Z" fill="#BBF7D0" stroke="#71717A" stroke-linecap="round" stroke-linejoin="round"/>
<path d="M62.7584 27.2898H60.6334C60.5728 26.9413 60.4611 26.6326 60.2982 26.3636C60.1353 26.0909 59.9327 25.8598 59.6903 25.6705C59.4478 25.4811 59.1713 25.339 58.8607 25.2443C58.5539 25.1458 58.2225 25.0966 57.8664 25.0966C57.2338 25.0966 56.6732 25.2557 56.1846 25.5739C55.6959 25.8883 55.3134 26.3504 55.0369 26.9602C54.7603 27.5663 54.6221 28.3068 54.6221 29.1818C54.6221 30.072 54.7603 30.822 55.0369 31.4318C55.3172 32.0379 55.6997 32.4962 56.1846 32.8068C56.6732 33.1136 57.2319 33.267 57.8607 33.267C58.2092 33.267 58.535 33.2216 58.838 33.1307C59.1448 33.036 59.4194 32.8977 59.6619 32.7159C59.9081 32.5341 60.1145 32.3106 60.2812 32.0455C60.4516 31.7803 60.5691 31.4773 60.6334 31.1364L62.7584 31.1477C62.6789 31.7008 62.5066 32.2197 62.2414 32.7045C61.98 33.1894 61.6372 33.6174 61.213 33.9886C60.7888 34.3561 60.2925 34.6439 59.7244 34.8523C59.1562 35.0568 58.5255 35.1591 57.8323 35.1591C56.8096 35.1591 55.8967 34.9223 55.0937 34.4489C54.2906 33.9754 53.6581 33.2917 53.1959 32.3977C52.7338 31.5038 52.5028 30.4318 52.5028 29.1818C52.5028 27.928 52.7357 26.8561 53.2016 25.9659C53.6675 25.072 54.302 24.3883 55.105 23.9148C55.9081 23.4413 56.8172 23.2045 57.8323 23.2045C58.48 23.2045 59.0823 23.2955 59.6391 23.4773C60.1959 23.6591 60.6922 23.9261 61.1278 24.2784C61.5634 24.6269 61.9213 25.0549 62.2016 25.5625C62.4857 26.0663 62.6713 26.642 62.7584 27.2898ZM68.4048 35.1705C67.5525 35.1705 66.8138 34.983 66.1888 34.608C65.5638 34.233 65.079 33.7083 64.7343 33.0341C64.3934 32.3598 64.2229 31.572 64.2229 30.6705C64.2229 29.7689 64.3934 28.9792 64.7343 28.3011C65.079 27.6231 65.5638 27.0966 66.1888 26.7216C66.8138 26.3466 67.5525 26.1591 68.4048 26.1591C69.257 26.1591 69.9957 26.3466 70.6207 26.7216C71.2457 27.0966 71.7286 27.6231 72.0695 28.3011C72.4142 28.9792 72.5866 29.7689 72.5866 30.6705C72.5866 31.572 72.4142 32.3598 72.0695 33.0341C71.7286 33.7083 71.2457 34.233 70.6207 34.608C69.9957 34.983 69.257 35.1705 68.4048 35.1705ZM68.4161 33.5227C68.8782 33.5227 69.2646 33.3958 69.5752 33.142C69.8858 32.8845 70.1169 32.5398 70.2684 32.108C70.4237 31.6761 70.5013 31.1951 70.5013 30.6648C70.5013 30.1307 70.4237 29.6477 70.2684 29.2159C70.1169 28.7803 69.8858 28.4337 69.5752 28.1761C69.2646 27.9186 68.8782 27.7898 68.4161 27.7898C67.9426 27.7898 67.5487 27.9186 67.2343 28.1761C66.9237 28.4337 66.6907 28.7803 66.5354 29.2159C66.3839 29.6477 66.3082 30.1307 66.3082 30.6648C66.3082 31.1951 66.3839 31.6761 66.5354 32.108C66.6907 32.5398 66.9237 32.8845 67.2343 33.142C67.5487 33.3958 67.9426 33.5227 68.4161 33.5227ZM74.3323 35V26.2727H76.2982V27.7557H76.4005C76.5823 27.2557 76.8834 26.8655 77.3039 26.5852C77.7244 26.3011 78.2263 26.1591 78.8096 26.1591C79.4005 26.1591 79.8986 26.303 80.3039 26.5909C80.713 26.875 81.0009 27.2633 81.1675 27.7557H81.2584C81.4516 27.2708 81.7774 26.8845 82.2357 26.5966C82.6978 26.3049 83.2452 26.1591 83.8778 26.1591C84.6808 26.1591 85.3361 26.4129 85.8437 26.9205C86.3513 27.428 86.605 28.1686 86.605 29.142V35H84.5425V29.4602C84.5425 28.9186 84.3986 28.5227 84.1107 28.2727C83.8228 28.0189 83.4706 27.892 83.0539 27.892C82.5577 27.892 82.1694 28.0473 81.8891 28.358C81.6126 28.6648 81.4744 29.0644 81.4744 29.5568V35H79.4573V29.375C79.4573 28.9242 79.3209 28.5644 79.0482 28.2955C78.7793 28.0265 78.427 27.892 77.9914 27.892C77.6959 27.892 77.427 27.9678 77.1846 28.1193C76.9422 28.267 76.749 28.4773 76.605 28.75C76.4611 29.0189 76.3891 29.3333 76.3891 29.6932V35H74.3323ZM88.6917 35V26.2727H90.6576V27.7557H90.7599C90.9417 27.2557 91.2428 26.8655 91.6633 26.5852C92.0837 26.3011 92.5856 26.1591 93.169 26.1591C93.7599 26.1591 94.258 26.303 94.6633 26.5909C95.0724 26.875 95.3603 27.2633 95.5269 27.7557H95.6178C95.811 27.2708 96.1368 26.8845 96.5951 26.5966C97.0572 26.3049 97.6046 26.1591 98.2371 26.1591C99.0402 26.1591 99.6955 26.4129 100.203 26.9205C100.711 27.428 100.964 28.1686 100.964 29.142V35H98.9019V29.4602C98.9019 28.9186 98.758 28.5227 98.4701 28.2727C98.1822 28.0189 97.8299 27.892 97.4133 27.892C96.9171 27.892 96.5288 28.0473 96.2485 28.358C95.972 28.6648 95.8337 29.0644 95.8337 29.5568V35H93.8167V29.375C93.8167 28.9242 93.6803 28.5644 93.4076 28.2955C93.1387 28.0265 92.7864 27.892 92.3508 27.892C92.0553 27.892 91.7864 27.9678 91.544 28.1193C91.3015 28.267 91.1084 28.4773 90.9644 28.75C90.8205 29.0189 90.7485 29.3333 90.7485 29.6932V35H88.6917ZM103.051 35V26.2727H105.108V35H103.051ZM104.085 25.0341C103.759 25.0341 103.479 24.9261 103.244 24.7102C103.009 24.4905 102.892 24.2273 102.892 23.9205C102.892 23.6098 103.009 23.3466 103.244 23.1307C103.479 22.911 103.759 22.8011 104.085 22.8011C104.415 22.8011 104.695 22.911 104.926 23.1307C105.161 23.3466 105.278 23.6098 105.278 23.9205C105.278 24.2273 105.161 24.4905 104.926 24.7102C104.695 24.9261 104.415 25.0341 104.085 25.0341ZM111.581 26.2727V27.8636H106.564V26.2727H111.581ZM107.802 24.1818H109.859V32.375C109.859 32.6515 109.901 32.8636 109.984 33.0114C110.071 33.1553 110.185 33.2538 110.325 33.3068C110.465 33.3598 110.621 33.3864 110.791 33.3864C110.92 33.3864 111.037 33.3769 111.143 33.358C111.253 33.339 111.337 33.322 111.393 33.3068L111.74 34.9148C111.63 34.9527 111.473 34.9943 111.268 35.0398C111.068 35.0852 110.821 35.1117 110.53 35.1193C110.015 35.1345 109.551 35.0568 109.138 34.8864C108.725 34.7121 108.397 34.4432 108.155 34.0795C107.916 33.7159 107.799 33.2614 107.802 32.7159V24.1818ZM52.4893 45.5625C52.4362 45.0663 52.2128 44.6799 51.8188 44.4034C51.4287 44.1269 50.9211 43.9886 50.2961 43.9886C49.8567 43.9886 49.4798 44.0549 49.1654 44.1875C48.851 44.3201 48.6105 44.5 48.4438 44.7273C48.2772 44.9545 48.1919 45.214 48.1881 45.5057C48.1881 45.7481 48.2431 45.9583 48.3529 46.1364C48.4665 46.3144 48.62 46.4659 48.8131 46.5909C49.0063 46.7121 49.2203 46.8144 49.4552 46.8977C49.69 46.9811 49.9268 47.0511 50.1654 47.108L51.2563 47.3807C51.6957 47.483 52.1181 47.6212 52.5234 47.7955C52.9325 47.9697 53.298 48.1894 53.62 48.4545C53.9457 48.7197 54.2033 49.0398 54.3927 49.4148C54.5821 49.7898 54.6768 50.2292 54.6768 50.733C54.6768 51.4148 54.5025 52.0152 54.154 52.5341C53.8056 53.0492 53.3018 53.4527 52.6427 53.7443C51.9874 54.0322 51.1938 54.1761 50.262 54.1761C49.3567 54.1761 48.5707 54.036 47.904 53.7557C47.2412 53.4754 46.7222 53.0663 46.3472 52.5284C45.976 51.9905 45.7753 51.3352 45.745 50.5625H47.8188C47.8491 50.9678 47.9741 51.3049 48.1938 51.5739C48.4135 51.8428 48.6995 52.0436 49.0518 52.1761C49.4078 52.3087 49.8056 52.375 50.245 52.375C50.7033 52.375 51.1048 52.3068 51.4495 52.1705C51.798 52.0303 52.0707 51.8371 52.2677 51.5909C52.4647 51.3409 52.565 51.0492 52.5688 50.7159C52.565 50.4129 52.476 50.1629 52.3018 49.9659C52.1275 49.7652 51.8832 49.5985 51.5688 49.4659C51.2582 49.3295 50.8946 49.2083 50.4779 49.1023L49.154 48.7614C48.1957 48.5152 47.4381 48.142 46.8813 47.642C46.3283 47.1383 46.0518 46.4697 46.0518 45.6364C46.0518 44.9508 46.2374 44.3504 46.6086 43.8352C46.9836 43.3201 47.4931 42.9205 48.137 42.6364C48.7809 42.3485 49.5101 42.2045 50.3245 42.2045C51.1503 42.2045 51.8737 42.3485 52.495 42.6364C53.12 42.9205 53.6105 43.3163 53.9665 43.8239C54.3226 44.3277 54.5063 44.9072 54.5177 45.5625H52.4893ZM62.0276 50.3295V45.2727H64.0844V54H62.0901V52.4489H61.9992C61.8022 52.9375 61.4784 53.3371 61.0276 53.6477C60.5807 53.9583 60.0295 54.1136 59.3742 54.1136C58.8022 54.1136 58.2966 53.9867 57.8572 53.733C57.4216 53.4754 57.0807 53.1023 56.8344 52.6136C56.5882 52.1212 56.4651 51.5265 56.4651 50.8295V45.2727H58.5219V50.5114C58.5219 51.0644 58.6735 51.5038 58.9765 51.8295C59.2795 52.1553 59.6772 52.3182 60.1697 52.3182C60.4727 52.3182 60.7663 52.2443 61.0504 52.0966C61.3344 51.9489 61.5674 51.7292 61.7492 51.4375C61.9348 51.142 62.0276 50.7727 62.0276 50.3295ZM66.1995 54V45.2727H68.1654V46.7557H68.2677C68.4495 46.2557 68.7506 45.8655 69.1711 45.5852C69.5915 45.3011 70.0934 45.1591 70.6768 45.1591C71.2677 45.1591 71.7658 45.303 72.1711 45.5909C72.5802 45.875 72.8681 46.2633 73.0347 46.7557H73.1256C73.3188 46.2708 73.6446 45.8845 74.1029 45.5966C74.565 45.3049 75.1124 45.1591 75.745 45.1591C76.548 45.1591 77.2033 45.4129 77.7109 45.9205C78.2184 46.428 78.4722 47.1686 78.4722 48.142V54H76.4097V48.4602C76.4097 47.9186 76.2658 47.5227 75.9779 47.2727C75.69 47.0189 75.3378 46.892 74.9211 46.892C74.4249 46.892 74.0366 47.0473 73.7563 47.358C73.4798 47.6648 73.3415 48.0644 73.3415 48.5568V54H71.3245V48.375C71.3245 47.9242 71.1881 47.5644 70.9154 47.2955C70.6465 47.0265 70.2942 46.892 69.8586 46.892C69.5631 46.892 69.2942 46.9678 69.0518 47.1193C68.8093 47.267 68.6162 47.4773 68.4722 47.75C68.3283 48.0189 68.2563 48.3333 68.2563 48.6932V54H66.1995ZM80.5589 54V45.2727H82.5248V46.7557H82.6271C82.8089 46.2557 83.11 45.8655 83.5305 45.5852C83.9509 45.3011 84.4528 45.1591 85.0361 45.1591C85.6271 45.1591 86.1252 45.303 86.5305 45.5909C86.9396 45.875 87.2274 46.2633 87.3941 46.7557H87.485C87.6782 46.2708 88.004 45.8845 88.4623 45.5966C88.9244 45.3049 89.4718 45.1591 90.1043 45.1591C90.9074 45.1591 91.5627 45.4129 92.0702 45.9205C92.5778 46.428 92.8316 47.1686 92.8316 48.142V54H90.7691V48.4602C90.7691 47.9186 90.6252 47.5227 90.3373 47.2727C90.0494 47.0189 89.6971 46.892 89.2805 46.892C88.7843 46.892 88.396 47.0473 88.1157 47.358C87.8392 47.6648 87.7009 48.0644 87.7009 48.5568V54H85.6839V48.375C85.6839 47.9242 85.5475 47.5644 85.2748 47.2955C85.0058 47.0265 84.6536 46.892 84.218 46.892C83.9225 46.892 83.6536 46.9678 83.4111 47.1193C83.1687 47.267 82.9755 47.4773 82.8316 47.75C82.6877 48.0189 82.6157 48.3333 82.6157 48.6932V54H80.5589ZM97.4296 54.1761C96.8766 54.1761 96.3785 54.0777 95.9353 53.8807C95.4959 53.6799 95.1474 53.3845 94.8898 52.9943C94.6361 52.6042 94.5092 52.1231 94.5092 51.5511C94.5092 51.0587 94.6001 50.6515 94.7819 50.3295C94.9637 50.0076 95.2118 49.75 95.5262 49.5568C95.8406 49.3636 96.1948 49.2178 96.5887 49.1193C96.9864 49.017 97.3974 48.9432 97.8217 48.8977C98.333 48.8447 98.7478 48.7973 99.066 48.7557C99.3842 48.7102 99.6152 48.642 99.7592 48.5511C99.9069 48.4564 99.9808 48.3106 99.9808 48.1136V48.0795C99.9808 47.6515 99.8539 47.3201 99.6001 47.0852C99.3463 46.8504 98.9808 46.733 98.5035 46.733C97.9997 46.733 97.6001 46.8428 97.3046 47.0625C97.013 47.2822 96.816 47.5417 96.7137 47.8409L94.7933 47.5682C94.9448 47.0379 95.1948 46.5947 95.5433 46.2386C95.8917 45.8788 96.3179 45.6098 96.8217 45.4318C97.3255 45.25 97.8823 45.1591 98.4921 45.1591C98.9126 45.1591 99.3311 45.2083 99.7478 45.3068C100.164 45.4053 100.545 45.5682 100.89 45.7955C101.235 46.0189 101.511 46.3239 101.719 46.7102C101.932 47.0966 102.038 47.5795 102.038 48.1591V54H100.06V52.8011H99.9921C99.8671 53.0436 99.691 53.2708 99.4637 53.483C99.2402 53.6913 98.958 53.8598 98.6171 53.9886C98.28 54.1136 97.8842 54.1761 97.4296 54.1761ZM97.9637 52.6648C98.3766 52.6648 98.7345 52.5833 99.0376 52.4205C99.3406 52.2538 99.5736 52.0341 99.7364 51.7614C99.9031 51.4886 99.9864 51.1913 99.9864 50.8693V49.8409C99.922 49.8939 99.8122 49.9432 99.6569 49.9886C99.5054 50.0341 99.3349 50.0739 99.1455 50.108C98.9561 50.142 98.7686 50.1723 98.583 50.1989C98.3974 50.2254 98.2364 50.2481 98.1001 50.267C97.7933 50.3087 97.5186 50.3769 97.2762 50.4716C97.0338 50.5663 96.8425 50.6989 96.7023 50.8693C96.5622 51.036 96.4921 51.2519 96.4921 51.517C96.4921 51.8958 96.6304 52.1818 96.9069 52.375C97.1834 52.5682 97.5357 52.6648 97.9637 52.6648ZM104.106 54V45.2727H106.1V46.7273H106.191C106.35 46.2235 106.623 45.8352 107.009 45.5625C107.399 45.286 107.844 45.1477 108.344 45.1477C108.458 45.1477 108.585 45.1534 108.725 45.1648C108.869 45.1723 108.988 45.1856 109.083 45.2045V47.0966C108.996 47.0663 108.858 47.0398 108.668 47.017C108.483 46.9905 108.303 46.9773 108.128 46.9773C107.753 46.9773 107.416 47.0587 107.117 47.2216C106.822 47.3807 106.589 47.6023 106.418 47.8864C106.248 48.1705 106.163 48.4981 106.163 48.8693V54H104.106ZM111.994 57.2727C111.713 57.2727 111.454 57.25 111.215 57.2045C110.98 57.1629 110.793 57.1136 110.653 57.0568L111.13 55.4545C111.429 55.5417 111.696 55.5833 111.931 55.5795C112.166 55.5758 112.372 55.5019 112.55 55.358C112.732 55.2178 112.886 54.983 113.011 54.6534L113.187 54.1818L110.022 45.2727H112.204L114.215 51.8636H114.306L116.323 45.2727H118.511L115.016 55.0568C114.853 55.5189 114.637 55.9148 114.369 56.2443C114.1 56.5777 113.77 56.8314 113.38 57.0057C112.994 57.1837 112.531 57.2727 111.994 57.2727Z" fill="#052E16"/>
</svg>
