<svg width="105" height="80" viewBox="0 0 105 80" fill="none" xmlns="http://www.w3.org/2000/svg">
<path fill-rule="evenodd" clip-rule="evenodd" d="M1 2C1 1.44771 1.44772 1 2 1H103.125C103.677 1 104.125 1.44772 104.125 2V70.8864C104.125 71.6529 103.25 72.1092 102.576 71.7429C52.7064 44.6114 52.0445 101.996 1.45528 67.7244C1.18201 67.5393 1 67.217 1 66.887V2Z" fill="#3B82F6" stroke="#DBEAFE" stroke-linecap="round" stroke-linejoin="round"/>
<path d="M51.0057 22.0795C50.911 21.7727 50.7803 21.4981 50.6136 21.2557C50.4508 21.0095 50.2538 20.7992 50.0227 20.625C49.7955 20.4508 49.5341 20.3201 49.2386 20.233C48.9432 20.142 48.6212 20.0966 48.2727 20.0966C47.6477 20.0966 47.0909 20.2538 46.6023 20.5682C46.1136 20.8826 45.7292 21.3447 45.4489 21.9545C45.1723 22.5606 45.0341 23.2992 45.0341 24.1705C45.0341 25.0492 45.1723 25.7936 45.4489 26.4034C45.7254 27.0133 46.1098 27.4773 46.6023 27.7955C47.0947 28.1098 47.6667 28.267 48.3182 28.267C48.9091 28.267 49.4205 28.1534 49.8523 27.9261C50.2879 27.6989 50.6231 27.3769 50.858 26.9602C51.0928 26.5398 51.2102 26.0473 51.2102 25.483L51.6875 25.5568H48.5284V23.9091H53.25V25.3068C53.25 26.303 53.0379 27.1648 52.6136 27.892C52.1894 28.6193 51.6061 29.1799 50.8636 29.5739C50.1212 29.964 49.2689 30.1591 48.3068 30.1591C47.2348 30.1591 46.2936 29.9186 45.483 29.4375C44.6761 28.9527 44.0455 28.2652 43.5909 27.375C43.1402 26.4811 42.9148 25.4205 42.9148 24.1932C42.9148 23.2538 43.0473 22.4148 43.3125 21.6761C43.5814 20.9375 43.9564 20.3106 44.4375 19.7955C44.9186 19.2765 45.483 18.8826 46.1307 18.6136C46.7784 18.3409 47.483 18.2045 48.2443 18.2045C48.8883 18.2045 49.4886 18.2992 50.0455 18.4886C50.6023 18.6742 51.0966 18.9394 51.5284 19.2841C51.964 19.6288 52.322 20.0379 52.6023 20.5114C52.8826 20.9848 53.0663 21.5076 53.1534 22.0795H51.0057ZM55.7443 30V21.2727H57.8011V30H55.7443ZM56.7784 20.0341C56.4527 20.0341 56.1723 19.9261 55.9375 19.7102C55.7027 19.4905 55.5852 19.2273 55.5852 18.9205C55.5852 18.6098 55.7027 18.3466 55.9375 18.1307C56.1723 17.911 56.4527 17.8011 56.7784 17.8011C57.108 17.8011 57.3883 17.911 57.6193 18.1307C57.8542 18.3466 57.9716 18.6098 57.9716 18.9205C57.9716 19.2273 57.8542 19.4905 57.6193 19.7102C57.3883 19.9261 57.108 20.0341 56.7784 20.0341ZM64.2741 21.2727V22.8636H59.2571V21.2727H64.2741ZM60.4957 19.1818H62.5526V27.375C62.5526 27.6515 62.5942 27.8636 62.6776 28.0114C62.7647 28.1553 62.8783 28.2538 63.0185 28.3068C63.1586 28.3598 63.3139 28.3864 63.4844 28.3864C63.6132 28.3864 63.7306 28.3769 63.8366 28.358C63.9465 28.339 64.0298 28.322 64.0866 28.3068L64.4332 29.9148C64.3234 29.9527 64.1662 29.9943 63.9616 30.0398C63.7609 30.0852 63.5147 30.1117 63.223 30.1193C62.7079 30.1345 62.2438 30.0568 61.831 29.8864C61.4181 29.7121 61.0904 29.4432 60.848 29.0795C60.6094 28.7159 60.492 28.2614 60.4957 27.7159V19.1818ZM12.6477 49V37.3636H17.0114C17.9053 37.3636 18.6553 37.5189 19.2614 37.8295C19.8712 38.1402 20.3314 38.5758 20.642 39.1364C20.9564 39.6932 21.1136 40.3428 21.1136 41.0852C21.1136 41.8314 20.9545 42.4792 20.6364 43.0284C20.322 43.5739 19.858 43.9962 19.2443 44.2955C18.6307 44.5909 17.8769 44.7386 16.983 44.7386H13.875V42.9886H16.6989C17.2216 42.9886 17.6496 42.9167 17.983 42.7727C18.3163 42.625 18.5625 42.411 18.7216 42.1307C18.8845 41.8466 18.9659 41.4981 18.9659 41.0852C18.9659 40.6723 18.8845 40.3201 18.7216 40.0284C18.5587 39.733 18.3106 39.5095 17.9773 39.358C17.6439 39.2027 17.214 39.125 16.6875 39.125H14.7557V49H12.6477ZM18.6591 43.7273L21.5398 49H19.1875L16.358 43.7273H18.6591ZM26.7017 49.1705C25.8267 49.1705 25.071 48.9886 24.4347 48.625C23.8021 48.2576 23.3153 47.7386 22.9744 47.0682C22.6335 46.3939 22.4631 45.6004 22.4631 44.6875C22.4631 43.7898 22.6335 43.0019 22.9744 42.3239C23.3191 41.642 23.8002 41.1117 24.4176 40.733C25.035 40.3504 25.7604 40.1591 26.5938 40.1591C27.1316 40.1591 27.6392 40.2462 28.1165 40.4205C28.5975 40.5909 29.0218 40.8561 29.3892 41.2159C29.7604 41.5758 30.0521 42.0341 30.2642 42.5909C30.4763 43.1439 30.5824 43.803 30.5824 44.5682V45.1989H23.429V43.8125H28.6108C28.607 43.4186 28.5218 43.0682 28.3551 42.7614C28.1884 42.4508 27.9555 42.2064 27.6562 42.0284C27.3608 41.8504 27.0161 41.7614 26.6222 41.7614C26.2017 41.7614 25.8324 41.8636 25.5142 42.0682C25.196 42.2689 24.9479 42.5341 24.7699 42.8636C24.5956 43.1894 24.5066 43.5473 24.5028 43.9375V45.1477C24.5028 45.6553 24.5956 46.0909 24.7812 46.4545C24.9669 46.8144 25.2263 47.0909 25.5597 47.2841C25.893 47.4735 26.2831 47.5682 26.7301 47.5682C27.0294 47.5682 27.3002 47.5265 27.5426 47.4432C27.785 47.3561 27.9953 47.2292 28.1733 47.0625C28.3513 46.8958 28.4858 46.6894 28.5767 46.4432L30.4972 46.6591C30.3759 47.1667 30.1449 47.6098 29.804 47.9886C29.4669 48.3636 29.035 48.6553 28.5085 48.8636C27.982 49.0682 27.3797 49.1705 26.7017 49.1705ZM32.3224 52.2727V40.2727H34.3452V41.7159H34.4645C34.5705 41.5038 34.7202 41.2784 34.9134 41.0398C35.1065 40.7973 35.3679 40.5909 35.6974 40.4205C36.027 40.2462 36.4474 40.1591 36.9588 40.1591C37.633 40.1591 38.241 40.3314 38.7827 40.6761C39.3281 41.017 39.7599 41.5227 40.0781 42.1932C40.4001 42.8598 40.5611 43.678 40.5611 44.6477C40.5611 45.6061 40.4039 46.4205 40.0895 47.0909C39.7751 47.7614 39.3471 48.2727 38.8054 48.625C38.2637 48.9773 37.6501 49.1534 36.9645 49.1534C36.4645 49.1534 36.0497 49.0701 35.7202 48.9034C35.3906 48.7367 35.1255 48.536 34.9247 48.3011C34.7277 48.0625 34.5743 47.8371 34.4645 47.625H34.3793V52.2727H32.3224ZM34.3395 44.6364C34.3395 45.2008 34.419 45.6951 34.5781 46.1193C34.741 46.5436 34.974 46.875 35.277 47.1136C35.5838 47.3485 35.955 47.4659 36.3906 47.4659C36.8452 47.4659 37.2259 47.3447 37.5327 47.1023C37.8395 46.8561 38.0705 46.5208 38.2259 46.0966C38.3849 45.6686 38.4645 45.1818 38.4645 44.6364C38.4645 44.0947 38.3868 43.6136 38.2315 43.1932C38.0762 42.7727 37.8452 42.4432 37.5384 42.2045C37.2315 41.9659 36.849 41.8466 36.3906 41.8466C35.9512 41.8466 35.5781 41.9621 35.2713 42.1932C34.9645 42.4242 34.7315 42.7481 34.5724 43.1648C34.4171 43.5814 34.3395 44.072 34.3395 44.6364ZM46.1293 49.1705C45.277 49.1705 44.5384 48.983 43.9134 48.608C43.2884 48.233 42.8035 47.7083 42.4588 47.0341C42.1179 46.3598 41.9474 45.572 41.9474 44.6705C41.9474 43.7689 42.1179 42.9792 42.4588 42.3011C42.8035 41.6231 43.2884 41.0966 43.9134 40.7216C44.5384 40.3466 45.277 40.1591 46.1293 40.1591C46.9815 40.1591 47.7202 40.3466 48.3452 40.7216C48.9702 41.0966 49.4531 41.6231 49.794 42.3011C50.1387 42.9792 50.3111 43.7689 50.3111 44.6705C50.3111 45.572 50.1387 46.3598 49.794 47.0341C49.4531 47.7083 48.9702 48.233 48.3452 48.608C47.7202 48.983 46.9815 49.1705 46.1293 49.1705ZM46.1406 47.5227C46.6027 47.5227 46.9891 47.3958 47.2997 47.142C47.6103 46.8845 47.8414 46.5398 47.9929 46.108C48.1482 45.6761 48.2259 45.1951 48.2259 44.6648C48.2259 44.1307 48.1482 43.6477 47.9929 43.2159C47.8414 42.7803 47.6103 42.4337 47.2997 42.1761C46.9891 41.9186 46.6027 41.7898 46.1406 41.7898C45.6671 41.7898 45.2732 41.9186 44.9588 42.1761C44.6482 42.4337 44.4152 42.7803 44.2599 43.2159C44.1084 43.6477 44.0327 44.1307 44.0327 44.6648C44.0327 45.1951 44.1084 45.6761 44.2599 46.108C44.4152 46.5398 44.6482 46.8845 44.9588 47.142C45.2732 47.3958 45.6671 47.5227 46.1406 47.5227ZM58.9545 42.5795L57.0795 42.7841C57.0265 42.5947 56.9337 42.4167 56.8011 42.25C56.6723 42.0833 56.4981 41.9489 56.2784 41.8466C56.0587 41.7443 55.7898 41.6932 55.4716 41.6932C55.0436 41.6932 54.6837 41.786 54.392 41.9716C54.1042 42.1572 53.9621 42.3977 53.9659 42.6932C53.9621 42.947 54.0549 43.1534 54.2443 43.3125C54.4375 43.4716 54.7557 43.6023 55.1989 43.7045L56.6875 44.0227C57.5133 44.2008 58.1269 44.483 58.5284 44.8693C58.9337 45.2557 59.1383 45.7614 59.142 46.3864C59.1383 46.9356 58.9773 47.4205 58.6591 47.8409C58.3447 48.2576 57.9072 48.5833 57.3466 48.8182C56.786 49.053 56.142 49.1705 55.4148 49.1705C54.3466 49.1705 53.4867 48.947 52.8352 48.5C52.1837 48.0492 51.7955 47.4223 51.6705 46.6193L53.6761 46.4261C53.767 46.8201 53.9602 47.1174 54.2557 47.3182C54.5511 47.5189 54.9356 47.6193 55.4091 47.6193C55.8977 47.6193 56.2898 47.5189 56.5852 47.3182C56.8845 47.1174 57.0341 46.8693 57.0341 46.5739C57.0341 46.3239 56.9375 46.1174 56.7443 45.9545C56.5549 45.7917 56.2595 45.6667 55.858 45.5795L54.3693 45.267C53.5322 45.0928 52.9129 44.7992 52.5114 44.3864C52.1098 43.9697 51.911 43.4432 51.9148 42.8068C51.911 42.2689 52.0568 41.803 52.3523 41.4091C52.6515 41.0114 53.0663 40.7045 53.5966 40.4886C54.1307 40.2689 54.7462 40.1591 55.4432 40.1591C56.4659 40.1591 57.2708 40.3769 57.858 40.8125C58.4489 41.2481 58.8144 41.8371 58.9545 42.5795ZM60.8381 49V40.2727H62.8949V49H60.8381ZM61.8722 39.0341C61.5464 39.0341 61.2661 38.9261 61.0312 38.7102C60.7964 38.4905 60.679 38.2273 60.679 37.9205C60.679 37.6098 60.7964 37.3466 61.0312 37.1307C61.2661 36.911 61.5464 36.8011 61.8722 36.8011C62.2017 36.8011 62.482 36.911 62.7131 37.1307C62.9479 37.3466 63.0653 37.6098 63.0653 37.9205C63.0653 38.2273 62.9479 38.4905 62.7131 38.7102C62.482 38.9261 62.2017 39.0341 61.8722 39.0341ZM69.3679 40.2727V41.8636H64.3509V40.2727H69.3679ZM65.5895 38.1818H67.6463V46.375C67.6463 46.6515 67.688 46.8636 67.7713 47.0114C67.8584 47.1553 67.9721 47.2538 68.1122 47.3068C68.2524 47.3598 68.4077 47.3864 68.5781 47.3864C68.7069 47.3864 68.8243 47.3769 68.9304 47.358C69.0402 47.339 69.1236 47.322 69.1804 47.3068L69.527 48.9148C69.4171 48.9527 69.2599 48.9943 69.0554 49.0398C68.8546 49.0852 68.6084 49.1117 68.3168 49.1193C67.8016 49.1345 67.3376 49.0568 66.9247 48.8864C66.5118 48.7121 66.1842 48.4432 65.9418 48.0795C65.7031 47.7159 65.5857 47.2614 65.5895 46.7159V38.1818ZM74.8011 49.1705C73.9489 49.1705 73.2102 48.983 72.5852 48.608C71.9602 48.233 71.4754 47.7083 71.1307 47.0341C70.7898 46.3598 70.6193 45.572 70.6193 44.6705C70.6193 43.7689 70.7898 42.9792 71.1307 42.3011C71.4754 41.6231 71.9602 41.0966 72.5852 40.7216C73.2102 40.3466 73.9489 40.1591 74.8011 40.1591C75.6534 40.1591 76.392 40.3466 77.017 40.7216C77.642 41.0966 78.125 41.6231 78.4659 42.3011C78.8106 42.9792 78.983 43.7689 78.983 44.6705C78.983 45.572 78.8106 46.3598 78.4659 47.0341C78.125 47.7083 77.642 48.233 77.017 48.608C76.392 48.983 75.6534 49.1705 74.8011 49.1705ZM74.8125 47.5227C75.2746 47.5227 75.661 47.3958 75.9716 47.142C76.2822 46.8845 76.5133 46.5398 76.6648 46.108C76.8201 45.6761 76.8977 45.1951 76.8977 44.6648C76.8977 44.1307 76.8201 43.6477 76.6648 43.2159C76.5133 42.7803 76.2822 42.4337 75.9716 42.1761C75.661 41.9186 75.2746 41.7898 74.8125 41.7898C74.339 41.7898 73.9451 41.9186 73.6307 42.1761C73.3201 42.4337 73.0871 42.7803 72.9318 43.2159C72.7803 43.6477 72.7045 44.1307 72.7045 44.6648C72.7045 45.1951 72.7803 45.6761 72.9318 46.108C73.0871 46.5398 73.3201 46.8845 73.6307 47.142C73.9451 47.3958 74.339 47.5227 74.8125 47.5227ZM80.7287 49V40.2727H82.723V41.7273H82.8139C82.973 41.2235 83.2457 40.8352 83.6321 40.5625C84.0223 40.286 84.4673 40.1477 84.9673 40.1477C85.081 40.1477 85.2079 40.1534 85.348 40.1648C85.492 40.1723 85.6113 40.1856 85.706 40.2045V42.0966C85.6188 42.0663 85.4806 42.0398 85.2912 42.017C85.1056 41.9905 84.9257 41.9773 84.7514 41.9773C84.3764 41.9773 84.0393 42.0587 83.7401 42.2216C83.4446 42.3807 83.2116 42.6023 83.0412 42.8864C82.8707 43.1705 82.7855 43.4981 82.7855 43.8693V49H80.7287ZM88.6165 52.2727C88.3362 52.2727 88.0767 52.25 87.8381 52.2045C87.6032 52.1629 87.4157 52.1136 87.2756 52.0568L87.7528 50.4545C88.0521 50.5417 88.3191 50.5833 88.554 50.5795C88.7888 50.5758 88.9953 50.5019 89.1733 50.358C89.3551 50.2178 89.5085 49.983 89.6335 49.6534L89.8097 49.1818L86.6449 40.2727H88.8267L90.8381 46.8636H90.929L92.946 40.2727H95.1335L91.6392 50.0568C91.4763 50.5189 91.2604 50.9148 90.9915 51.2443C90.7225 51.5777 90.393 51.8314 90.0028 52.0057C89.6165 52.1837 89.1544 52.2727 88.6165 52.2727Z" fill="#DBEAFE"/>
</svg>
