<svg width="58" height="78" viewBox="0 0 58 78" fill="none" xmlns="http://www.w3.org/2000/svg">
<path d="M31.6063 1.61075L55.3968 15.5022C56.9661 16.4186 57.9297 18.0905 57.9297 19.8973V50.3995C57.9297 52.2064 56.9661 53.8784 55.3968 54.7947L29 70.208L28.924 70.1644L28.9787 70.208L17.5927 76.9148C16.9825 77.2742 16.1942 77.0748 15.832 76.4695C15.7146 76.2733 15.6524 76.0494 15.652 75.8211L15.6247 62.398L2.60314 54.7947C1.03382 53.8784 0.0703125 52.2064 0.0703125 50.3995V19.8973C0.0703125 18.0905 1.03382 16.4186 2.60314 15.5022L26.3937 1.61075C28.0022 0.671418 29.9978 0.671418 31.6063 1.61075ZM29 16.6692C20.286 16.6692 13.2202 23.4067 13.2202 31.7157V43.4183C13.2202 46.1937 15.5696 48.4338 18.4801 48.4338H23.7401V35.0593H16.7268V32.2004C16.7268 25.7806 21.9166 20.1967 28.6318 20.0128C35.5925 19.8289 41.2733 25.1286 41.2733 31.7157V35.0593H34.2599V48.4338H41.2733V50.1058H30.7534V53.4493H41.2733C43.2018 53.4493 44.7798 51.9448 44.7798 50.1058V31.7157C44.7798 23.4067 37.7139 16.6692 29 16.6692ZM20.2334 38.4028V45.0903H18.4801C17.5158 45.0903 16.7268 44.3378 16.7268 43.4183V38.4028H20.2334ZM41.2733 38.4028V45.0903H37.7665V38.4028H41.2733Z" fill="#4285F4"/>
</svg>
