<svg width="132" height="75" viewBox="0 0 132 75" fill="none" xmlns="http://www.w3.org/2000/svg">
<path d="M21.882 41H19.9133L23.4978 30.8182H25.7748L29.3643 41H27.3955L24.6761 32.9062H24.5965L21.882 41ZM21.9467 37.0078H27.316V38.4893H21.9467V37.0078ZM36.0747 33.6172C36.0283 33.183 35.8327 32.8449 35.488 32.603C35.1467 32.361 34.7025 32.2401 34.1557 32.2401C33.7712 32.2401 33.4414 32.2981 33.1663 32.4141C32.8912 32.5301 32.6808 32.6875 32.5349 32.8864C32.3891 33.0852 32.3145 33.3123 32.3112 33.5675C32.3112 33.7796 32.3593 33.9635 32.4554 34.1193C32.5548 34.2751 32.689 34.4077 32.8581 34.517C33.0271 34.6231 33.2144 34.7126 33.4199 34.7855C33.6254 34.8584 33.8325 34.9197 34.0413 34.9695L34.9959 35.2081C35.3803 35.2976 35.7499 35.4186 36.1045 35.571C36.4625 35.7235 36.7823 35.9157 37.064 36.1477C37.3491 36.3797 37.5745 36.6598 37.7402 36.9879C37.9059 37.3161 37.9888 37.7005 37.9888 38.1413C37.9888 38.7379 37.8363 39.2633 37.5314 39.7173C37.2264 40.1681 36.7856 40.5211 36.2089 40.7763C35.6355 41.0282 34.9412 41.1541 34.1258 41.1541C33.3337 41.1541 32.6459 41.0315 32.0626 40.7862C31.4826 40.541 31.0285 40.183 30.7004 39.7124C30.3756 39.2417 30.1999 38.6683 30.1734 37.9922H31.988C32.0146 38.3468 32.1239 38.6418 32.3162 38.8771C32.5084 39.1125 32.7586 39.2881 33.0669 39.4041C33.3784 39.5201 33.7264 39.5781 34.1109 39.5781C34.512 39.5781 34.8633 39.5185 35.1649 39.3991C35.4698 39.2765 35.7084 39.1075 35.8808 38.892C36.0531 38.6733 36.141 38.4181 36.1443 38.1264C36.141 37.8613 36.0631 37.6425 35.9106 37.4702C35.7582 37.2945 35.5444 37.1487 35.2693 37.0327C34.9975 36.9134 34.6793 36.8073 34.3147 36.7145L33.1564 36.4162C32.3178 36.2008 31.6549 35.8743 31.1677 35.4368C30.6838 34.996 30.4419 34.411 30.4419 33.6818C30.4419 33.0819 30.6043 32.5566 30.9291 32.1058C31.2572 31.6551 31.703 31.3054 32.2665 31.0568C32.8299 30.8049 33.4679 30.679 34.1805 30.679C34.9031 30.679 35.5361 30.8049 36.0797 31.0568C36.6265 31.3054 37.0558 31.6518 37.3673 32.0959C37.6789 32.5367 37.8396 33.0438 37.8495 33.6172H36.0747ZM39.1857 32.3643V30.8182H47.3092V32.3643H44.1622V41H42.3327V32.3643H39.1857ZM52.7954 35.1683V36.6499H48.2116V35.1683H52.7954ZM56.6123 30.8182V41H54.7679V30.8182H56.6123ZM60.3298 36.5256V41H58.5301V33.3636H60.2503V34.6612H60.3398C60.5154 34.2337 60.7955 33.8939 61.18 33.642C61.5678 33.3902 62.0467 33.2642 62.6168 33.2642C63.1438 33.2642 63.6028 33.3769 63.9939 33.6023C64.3883 33.8277 64.6932 34.1541 64.9087 34.5817C65.1274 35.0092 65.2351 35.5279 65.2318 36.1378V41H63.4321V36.4162C63.4321 35.9058 63.2995 35.5064 63.0344 35.218C62.7725 34.9297 62.4096 34.7855 61.9456 34.7855C61.6307 34.7855 61.3507 34.8551 61.1054 34.9943C60.8635 35.1302 60.6729 35.3274 60.5337 35.5859C60.3978 35.8445 60.3298 36.1577 60.3298 36.5256ZM69.8952 41.1342C69.2953 41.1342 68.7583 40.9801 68.2844 40.6719C67.8104 40.3636 67.4359 39.9162 67.1608 39.3295C66.8857 38.7429 66.7482 38.0303 66.7482 37.1918C66.7482 36.3433 66.8874 35.6274 67.1658 35.044C67.4475 34.4574 67.827 34.0149 68.3043 33.7166C68.7815 33.415 69.3135 33.2642 69.9002 33.2642C70.3476 33.2642 70.7155 33.3404 71.0038 33.4929C71.2922 33.642 71.5209 33.8227 71.6899 34.0348C71.859 34.2436 71.9899 34.4408 72.0827 34.6264H72.1573V30.8182H73.9619V41H72.1921V39.7969H72.0827C71.9899 39.9825 71.8556 40.1797 71.68 40.3885C71.5043 40.594 71.2723 40.7696 70.984 40.9155C70.6956 41.0613 70.3327 41.1342 69.8952 41.1342ZM70.3973 39.6577C70.7785 39.6577 71.1033 39.5549 71.3717 39.3494C71.6402 39.1406 71.844 38.8506 71.9832 38.4794C72.1225 38.1082 72.1921 37.6757 72.1921 37.1818C72.1921 36.688 72.1225 36.2588 71.9832 35.8942C71.8474 35.5296 71.6452 35.2462 71.3767 35.044C71.1116 34.8419 70.7851 34.7408 70.3973 34.7408C69.9963 34.7408 69.6615 34.8452 69.393 35.054C69.1246 35.2628 68.9224 35.5511 68.7865 35.919C68.6506 36.2869 68.5827 36.7079 68.5827 37.1818C68.5827 37.6591 68.6506 38.085 68.7865 38.4595C68.9257 38.8307 69.1296 39.1241 69.398 39.3395C69.6698 39.5516 70.0029 39.6577 70.3973 39.6577ZM79.2604 41.1491C78.4948 41.1491 77.8336 40.9901 77.2768 40.6719C76.7232 40.3504 76.2973 39.8963 75.9991 39.3097C75.7008 38.7197 75.5516 38.0253 75.5516 37.2266C75.5516 36.4411 75.7008 35.7517 75.9991 35.1584C76.3007 34.5618 76.7216 34.0978 77.2618 33.7663C77.8021 33.4316 78.4368 33.2642 79.166 33.2642C79.6366 33.2642 80.0807 33.3404 80.4983 33.4929C80.9193 33.642 81.2905 33.8741 81.612 34.1889C81.9368 34.5038 82.192 34.9048 82.3776 35.392C82.5632 35.8759 82.656 36.4527 82.656 37.1222V37.674H76.3968V36.4609H80.9309C80.9276 36.1162 80.853 35.8097 80.7071 35.5412C80.5613 35.2694 80.3575 35.0556 80.0956 34.8999C79.8371 34.7441 79.5355 34.6662 79.1908 34.6662C78.8229 34.6662 78.4998 34.7557 78.2214 34.9347C77.9429 35.1103 77.7259 35.3423 77.5701 35.6307C77.4176 35.9157 77.3397 36.2289 77.3364 36.5703V37.6293C77.3364 38.0734 77.4176 38.4545 77.58 38.7727C77.7424 39.0876 77.9695 39.3295 78.2611 39.4986C78.5528 39.6643 78.8942 39.7472 79.2853 39.7472C79.5471 39.7472 79.7841 39.7107 79.9962 39.6378C80.2083 39.5616 80.3923 39.4505 80.5481 39.3047C80.7038 39.1589 80.8215 38.9782 80.901 38.7628L82.5814 38.9517C82.4754 39.3958 82.2732 39.7836 81.9749 40.1151C81.6799 40.4432 81.3021 40.6984 80.8414 40.8807C80.3807 41.0597 79.8537 41.1491 79.2604 41.1491ZM85.4861 33.3636L87.0273 36.1825L88.5933 33.3636H90.4975L88.1956 37.1818L90.5372 41H88.643L87.0273 38.2507L85.4264 41H83.5173L85.844 37.1818L83.577 33.3636H85.4861ZM91.8895 41V33.3636H93.6892V41H91.8895ZM92.7943 32.2798C92.5093 32.2798 92.264 32.1854 92.0585 31.9964C91.853 31.8042 91.7503 31.5739 91.7503 31.3054C91.7503 31.0336 91.853 30.8033 92.0585 30.6143C92.264 30.4221 92.5093 30.326 92.7943 30.326C93.0827 30.326 93.3279 30.4221 93.5301 30.6143C93.7356 30.8033 93.8384 31.0336 93.8384 31.3054C93.8384 31.5739 93.7356 31.8042 93.5301 31.9964C93.3279 32.1854 93.0827 32.2798 92.7943 32.2798ZM97.3396 36.5256V41H95.5399V33.3636H97.2601V34.6612H97.3495C97.5252 34.2337 97.8053 33.8939 98.1897 33.642C98.5775 33.3902 99.0565 33.2642 99.6265 33.2642C100.154 33.2642 100.613 33.3769 101.004 33.6023C101.398 33.8277 101.703 34.1541 101.918 34.5817C102.137 35.0092 102.245 35.5279 102.242 36.1378V41H100.442V36.4162C100.442 35.9058 100.309 35.5064 100.044 35.218C99.7823 34.9297 99.4194 34.7855 98.9554 34.7855C98.6405 34.7855 98.3604 34.8551 98.1152 34.9943C97.8732 35.1302 97.6826 35.3274 97.5434 35.5859C97.4076 35.8445 97.3396 36.1577 97.3396 36.5256ZM107.392 44.0227C106.746 44.0227 106.191 43.9349 105.727 43.7592C105.263 43.5869 104.89 43.3549 104.608 43.0632C104.326 42.7715 104.131 42.4484 104.021 42.0938L105.642 41.701C105.715 41.8501 105.821 41.9976 105.96 42.1435C106.1 42.2926 106.287 42.4152 106.522 42.5114C106.761 42.6108 107.061 42.6605 107.422 42.6605C107.932 42.6605 108.355 42.5362 108.69 42.2876C109.025 42.0424 109.192 41.638 109.192 41.0746V39.6278H109.102C109.01 39.8134 108.874 40.004 108.695 40.1996C108.519 40.3951 108.285 40.5592 107.994 40.6918C107.705 40.8243 107.342 40.8906 106.905 40.8906C106.318 40.8906 105.786 40.7531 105.309 40.478C104.835 40.1996 104.457 39.7853 104.176 39.2351C103.897 38.6816 103.758 37.9889 103.758 37.157C103.758 36.3184 103.897 35.6108 104.176 35.0341C104.457 34.4541 104.837 34.0149 105.314 33.7166C105.791 33.415 106.323 33.2642 106.91 33.2642C107.357 33.2642 107.725 33.3404 108.014 33.4929C108.305 33.642 108.537 33.8227 108.71 34.0348C108.882 34.2436 109.013 34.4408 109.102 34.6264H109.202V33.3636H110.977V41.1243C110.977 41.7772 110.821 42.3175 110.509 42.745C110.198 43.1726 109.772 43.4924 109.232 43.7045C108.691 43.9167 108.078 44.0227 107.392 44.0227ZM107.407 39.4787C107.788 39.4787 108.113 39.3859 108.382 39.2003C108.65 39.0147 108.854 38.7479 108.993 38.3999C109.132 38.0518 109.202 37.6342 109.202 37.147C109.202 36.6664 109.132 36.2455 108.993 35.8842C108.857 35.523 108.655 35.2429 108.386 35.044C108.121 34.8419 107.795 34.7408 107.407 34.7408C107.006 34.7408 106.671 34.8452 106.403 35.054C106.134 35.2628 105.932 35.5495 105.796 35.9141C105.66 36.2753 105.592 36.6863 105.592 37.147C105.592 37.6143 105.66 38.0237 105.796 38.375C105.935 38.723 106.139 38.9948 106.408 39.1903C106.68 39.3826 107.013 39.4787 107.407 39.4787Z" fill="#3B82F6"/>
<path fill-rule="evenodd" clip-rule="evenodd" d="M66.7802 1.05875C66.1685 0.712139 65.4198 0.71214 64.8082 1.05875L3.57067 35.76C2.2187 36.5261 2.2187 38.4739 3.57067 39.24L64.8082 73.9413C65.4198 74.2879 66.1685 74.2879 66.7802 73.9413L128.018 39.24C129.37 38.4739 129.37 36.5261 128.018 35.76L66.7802 1.05875Z" stroke="#3B82F6" stroke-linecap="round" stroke-linejoin="round"/>
</svg>
