<svg width="105" height="97" viewBox="0 0 105 97" fill="none" xmlns="http://www.w3.org/2000/svg">
<path fill-rule="evenodd" clip-rule="evenodd" d="M1 12.8867C1 18.8301 23.6875 24.7734 52.5625 24.7734C81.4375 24.7734 104.125 18.8301 104.125 12.8867V84.207C104.125 90.1504 81.4375 96.0938 52.5625 96.0938C23.6875 96.0938 1 90.1504 1 84.207V12.8867Z" fill="#6366F1" stroke="#312E81" stroke-linecap="round" stroke-linejoin="round"/>
<path fill-rule="evenodd" clip-rule="evenodd" d="M104.125 12.8867C104.125 18.8301 81.4375 24.7734 52.5625 24.7734C23.6875 24.7734 1 18.8301 1 12.8867C1 6.94336 23.6875 1 52.5625 1C81.4375 1 104.125 6.94336 104.125 12.8867Z" fill="#6366F1" stroke="#312E81" stroke-linecap="round" stroke-linejoin="round"/>
<path d="M1 18.8301C1 24.7734 23.6875 30.7168 52.5625 30.7168C81.4375 30.7168 104.125 24.7734 104.125 18.8301" stroke="#312E81" stroke-linecap="round" stroke-linejoin="round"/>
<path d="M10.8118 54V42.3636H12.9197V47.7102H13.0618L17.6016 42.3636H20.1754L15.6754 47.5852L20.2152 54H17.6811L14.2095 49.0114L12.9197 50.5341V54H10.8118ZM23.6058 48.8864V54H21.549V45.2727H23.5149V46.7557H23.6172C23.8179 46.267 24.138 45.8788 24.5774 45.5909C25.0206 45.303 25.5679 45.1591 26.2195 45.1591C26.8217 45.1591 27.3464 45.2879 27.7933 45.5455C28.2441 45.803 28.5926 46.1761 28.8388 46.6648C29.0888 47.1534 29.2119 47.7462 29.2081 48.4432V54H27.1513V48.7614C27.1513 48.178 26.9998 47.7216 26.6967 47.392C26.3975 47.0625 25.9827 46.8977 25.4524 46.8977C25.0926 46.8977 24.7725 46.9773 24.4922 47.1364C24.2157 47.2917 23.9979 47.517 23.8388 47.8125C23.6835 48.108 23.6058 48.4659 23.6058 48.8864ZM35.1058 54.1705C34.2536 54.1705 33.5149 53.983 32.8899 53.608C32.2649 53.233 31.7801 52.7083 31.4354 52.0341C31.0945 51.3598 30.924 50.572 30.924 49.6705C30.924 48.7689 31.0945 47.9792 31.4354 47.3011C31.7801 46.6231 32.2649 46.0966 32.8899 45.7216C33.5149 45.3466 34.2536 45.1591 35.1058 45.1591C35.9581 45.1591 36.6967 45.3466 37.3217 45.7216C37.9467 46.0966 38.4297 46.6231 38.7706 47.3011C39.1153 47.9792 39.2876 48.7689 39.2876 49.6705C39.2876 50.572 39.1153 51.3598 38.7706 52.0341C38.4297 52.7083 37.9467 53.233 37.3217 53.608C36.6967 53.983 35.9581 54.1705 35.1058 54.1705ZM35.1172 52.5227C35.5793 52.5227 35.9657 52.3958 36.2763 52.142C36.5869 51.8845 36.8179 51.5398 36.9695 51.108C37.1248 50.6761 37.2024 50.1951 37.2024 49.6648C37.2024 49.1307 37.1248 48.6477 36.9695 48.2159C36.8179 47.7803 36.5869 47.4337 36.2763 47.1761C35.9657 46.9186 35.5793 46.7898 35.1172 46.7898C34.6437 46.7898 34.2498 46.9186 33.9354 47.1761C33.6248 47.4337 33.3918 47.7803 33.2365 48.2159C33.085 48.6477 33.0092 49.1307 33.0092 49.6648C33.0092 50.1951 33.085 50.6761 33.2365 51.108C33.3918 51.5398 33.6248 51.8845 33.9354 52.142C34.2498 52.3958 34.6437 52.5227 35.1172 52.5227ZM42.5845 54L40.1186 45.2727H42.2152L43.7493 51.4091H43.8288L45.397 45.2727H47.4709L49.0391 51.375H49.1243L50.6357 45.2727H52.7379L50.2663 54H48.1243L46.4879 48.1023H46.3686L44.7322 54H42.5845ZM56.2308 42.3636V54H54.174V42.3636H56.2308ZM62.2095 54.1705C61.3345 54.1705 60.5788 53.9886 59.9425 53.625C59.3099 53.2576 58.8232 52.7386 58.4822 52.0682C58.1413 51.3939 57.9709 50.6004 57.9709 49.6875C57.9709 48.7898 58.1413 48.0019 58.4822 47.3239C58.8269 46.642 59.308 46.1117 59.9254 45.733C60.5429 45.3504 61.2682 45.1591 62.1016 45.1591C62.6394 45.1591 63.147 45.2462 63.6243 45.4205C64.1054 45.5909 64.5296 45.8561 64.897 46.2159C65.2682 46.5758 65.5599 47.0341 65.772 47.5909C65.9841 48.1439 66.0902 48.803 66.0902 49.5682V50.1989H58.9368V48.8125H64.1186C64.1148 48.4186 64.0296 48.0682 63.8629 47.7614C63.6963 47.4508 63.4633 47.2064 63.1641 47.0284C62.8686 46.8504 62.5239 46.7614 62.13 46.7614C61.7095 46.7614 61.3402 46.8636 61.022 47.0682C60.7038 47.2689 60.4557 47.5341 60.2777 47.8636C60.1035 48.1894 60.0144 48.5473 60.0107 48.9375V50.1477C60.0107 50.6553 60.1035 51.0909 60.2891 51.4545C60.4747 51.8144 60.7341 52.0909 61.0675 52.2841C61.4008 52.4735 61.791 52.5682 62.2379 52.5682C62.5372 52.5682 62.808 52.5265 63.0504 52.4432C63.2929 52.3561 63.5031 52.2292 63.6811 52.0625C63.8591 51.8958 63.9936 51.6894 64.0845 51.4432L66.005 51.6591C65.8838 52.1667 65.6527 52.6098 65.3118 52.9886C64.9747 53.3636 64.5429 53.6553 64.0163 53.8636C63.4898 54.0682 62.8875 54.1705 62.2095 54.1705ZM71.0689 54.1534C70.3833 54.1534 69.7696 53.9773 69.228 53.625C68.6863 53.2727 68.2583 52.7614 67.9439 52.0909C67.6295 51.4205 67.4723 50.6061 67.4723 49.6477C67.4723 48.678 67.6314 47.8598 67.9496 47.1932C68.2715 46.5227 68.7053 46.017 69.2507 45.6761C69.7962 45.3314 70.4041 45.1591 71.0746 45.1591C71.5859 45.1591 72.0064 45.2462 72.3359 45.4205C72.6655 45.5909 72.9268 45.7973 73.12 46.0398C73.3132 46.2784 73.4628 46.5038 73.5689 46.7159H73.6541V42.3636H75.7166V54H73.6939V52.625H73.5689C73.4628 52.8371 73.3094 53.0625 73.1087 53.3011C72.9079 53.536 72.6428 53.7367 72.3132 53.9034C71.9837 54.0701 71.5689 54.1534 71.0689 54.1534ZM71.6428 52.4659C72.0784 52.4659 72.4496 52.3485 72.7564 52.1136C73.0632 51.875 73.2962 51.5436 73.4553 51.1193C73.6143 50.6951 73.6939 50.2008 73.6939 49.6364C73.6939 49.072 73.6143 48.5814 73.4553 48.1648C73.3 47.7481 73.0689 47.4242 72.7621 47.1932C72.459 46.9621 72.0859 46.8466 71.6428 46.8466C71.1844 46.8466 70.8018 46.9659 70.495 47.2045C70.1882 47.4432 69.9571 47.7727 69.8018 48.1932C69.6465 48.6136 69.5689 49.0947 69.5689 49.6364C69.5689 50.1818 69.6465 50.6686 69.8018 51.0966C69.9609 51.5208 70.1939 51.8561 70.5007 52.1023C70.8113 52.3447 71.192 52.4659 71.6428 52.4659ZM81.7038 57.4545C80.9652 57.4545 80.3307 57.3542 79.8004 57.1534C79.2701 56.9564 78.844 56.6913 78.522 56.358C78.2 56.0246 77.9766 55.6553 77.8516 55.25L79.7038 54.8011C79.7872 54.9716 79.9084 55.1402 80.0675 55.3068C80.2266 55.4773 80.4406 55.6174 80.7095 55.7273C80.9822 55.8409 81.325 55.8977 81.7379 55.8977C82.3213 55.8977 82.8042 55.7557 83.1868 55.4716C83.5694 55.1913 83.7607 54.7292 83.7607 54.0852V52.4318H83.6584C83.5523 52.6439 83.397 52.8617 83.1925 53.0852C82.9917 53.3087 82.7247 53.4962 82.3913 53.6477C82.0618 53.7992 81.647 53.875 81.147 53.875C80.4766 53.875 79.8686 53.7178 79.3232 53.4034C78.7815 53.0852 78.3497 52.6117 78.0277 51.983C77.7095 51.3504 77.5504 50.5587 77.5504 49.608C77.5504 48.6496 77.7095 47.8409 78.0277 47.1818C78.3497 46.5189 78.7834 46.017 79.3288 45.6761C79.8743 45.3314 80.4822 45.1591 81.1527 45.1591C81.6641 45.1591 82.0845 45.2462 82.4141 45.4205C82.7474 45.5909 83.0125 45.7973 83.2095 46.0398C83.4065 46.2784 83.5561 46.5038 83.6584 46.7159H83.772V45.2727H85.8004V54.142C85.8004 54.8883 85.6224 55.5057 85.2663 55.9943C84.9103 56.483 84.4235 56.8485 83.8061 57.0909C83.1887 57.3333 82.4879 57.4545 81.7038 57.4545ZM81.7209 52.2614C82.1565 52.2614 82.5277 52.1553 82.8345 51.9432C83.1413 51.7311 83.3743 51.4261 83.5334 51.0284C83.6925 50.6307 83.772 50.1534 83.772 49.5966C83.772 49.0473 83.6925 48.5663 83.5334 48.1534C83.3781 47.7405 83.147 47.4205 82.8402 47.1932C82.5372 46.9621 82.1641 46.8466 81.7209 46.8466C81.2625 46.8466 80.88 46.9659 80.5732 47.2045C80.2663 47.4432 80.0353 47.7708 79.88 48.1875C79.7247 48.6004 79.647 49.0701 79.647 49.5966C79.647 50.1307 79.7247 50.5985 79.88 51C80.0391 51.3977 80.272 51.7083 80.5788 51.9318C80.8894 52.1515 81.2701 52.2614 81.7209 52.2614ZM91.772 54.1705C90.897 54.1705 90.1413 53.9886 89.505 53.625C88.8724 53.2576 88.3857 52.7386 88.0447 52.0682C87.7038 51.3939 87.5334 50.6004 87.5334 49.6875C87.5334 48.7898 87.7038 48.0019 88.0447 47.3239C88.3894 46.642 88.8705 46.1117 89.4879 45.733C90.1054 45.3504 90.8307 45.1591 91.6641 45.1591C92.2019 45.1591 92.7095 45.2462 93.1868 45.4205C93.6679 45.5909 94.0921 45.8561 94.4595 46.2159C94.8307 46.5758 95.1224 47.0341 95.3345 47.5909C95.5466 48.1439 95.6527 48.803 95.6527 49.5682V50.1989H88.4993V48.8125H93.6811C93.6773 48.4186 93.5921 48.0682 93.4254 47.7614C93.2588 47.4508 93.0258 47.2064 92.7266 47.0284C92.4311 46.8504 92.0864 46.7614 91.6925 46.7614C91.272 46.7614 90.9027 46.8636 90.5845 47.0682C90.2663 47.2689 90.0182 47.5341 89.8402 47.8636C89.666 48.1894 89.5769 48.5473 89.5732 48.9375V50.1477C89.5732 50.6553 89.666 51.0909 89.8516 51.4545C90.0372 51.8144 90.2966 52.0909 90.63 52.2841C90.9633 52.4735 91.3535 52.5682 91.8004 52.5682C92.0997 52.5682 92.3705 52.5265 92.6129 52.4432C92.8554 52.3561 93.0656 52.2292 93.2436 52.0625C93.4216 51.8958 93.5561 51.6894 93.647 51.4432L95.5675 51.6591C95.4463 52.1667 95.2152 52.6098 94.8743 52.9886C94.5372 53.3636 94.1054 53.6553 93.5788 53.8636C93.0523 54.0682 92.45 54.1705 91.772 54.1705ZM35.1634 73V61.3636H39.6179C40.4588 61.3636 41.1577 61.4962 41.7145 61.7614C42.2751 62.0227 42.6937 62.3807 42.9702 62.8352C43.2505 63.2898 43.3906 63.8049 43.3906 64.3807C43.3906 64.8542 43.2997 65.2595 43.1179 65.5966C42.9361 65.9299 42.6918 66.2008 42.3849 66.4091C42.0781 66.6174 41.7353 66.767 41.3565 66.858V66.9716C41.7694 66.9943 42.1652 67.1212 42.544 67.3523C42.9266 67.5795 43.2391 67.9015 43.4815 68.3182C43.724 68.7348 43.8452 69.2386 43.8452 69.8295C43.8452 70.4318 43.6993 70.9735 43.4077 71.4545C43.116 71.9318 42.6766 72.3087 42.0895 72.5852C41.5024 72.8617 40.7637 73 39.8736 73H35.1634ZM37.2713 71.2386H39.5384C40.3035 71.2386 40.8546 71.0928 41.1918 70.8011C41.5327 70.5057 41.7031 70.1269 41.7031 69.6648C41.7031 69.3201 41.6179 69.0095 41.4474 68.733C41.277 68.4527 41.0346 68.233 40.7202 68.0739C40.4058 67.911 40.0308 67.8295 39.5952 67.8295H37.2713V71.2386ZM37.2713 66.3125H39.3565C39.7202 66.3125 40.0478 66.2462 40.3395 66.1136C40.6312 65.9773 40.8603 65.786 41.027 65.5398C41.1974 65.2898 41.2827 64.9943 41.2827 64.6534C41.2827 64.2027 41.1236 63.8314 40.8054 63.5398C40.491 63.2481 40.0232 63.1023 39.402 63.1023H37.2713V66.3125ZM48.0994 73.1761C47.5464 73.1761 47.0483 73.0777 46.6051 72.8807C46.1657 72.6799 45.8172 72.3845 45.5597 71.9943C45.3059 71.6042 45.179 71.1231 45.179 70.5511C45.179 70.0587 45.2699 69.6515 45.4517 69.3295C45.6335 69.0076 45.8816 68.75 46.196 68.5568C46.5104 68.3636 46.8646 68.2178 47.2585 68.1193C47.6563 68.017 48.0672 67.9432 48.4915 67.8977C49.0028 67.8447 49.4176 67.7973 49.7358 67.7557C50.054 67.7102 50.285 67.642 50.429 67.5511C50.5767 67.4564 50.6506 67.3106 50.6506 67.1136V67.0795C50.6506 66.6515 50.5237 66.3201 50.2699 66.0852C50.0161 65.8504 49.6506 65.733 49.1733 65.733C48.6695 65.733 48.2699 65.8428 47.9744 66.0625C47.6828 66.2822 47.4858 66.5417 47.3835 66.8409L45.4631 66.5682C45.6146 66.0379 45.8646 65.5947 46.2131 65.2386C46.5616 64.8788 46.9877 64.6098 47.4915 64.4318C47.9953 64.25 48.5521 64.1591 49.1619 64.1591C49.5824 64.1591 50.0009 64.2083 50.4176 64.3068C50.8343 64.4053 51.215 64.5682 51.5597 64.7955C51.9044 65.0189 52.1809 65.3239 52.3892 65.7102C52.6013 66.0966 52.7074 66.5795 52.7074 67.1591V73H50.7301V71.8011H50.6619C50.5369 72.0436 50.3608 72.2708 50.1335 72.483C49.91 72.6913 49.6278 72.8598 49.2869 72.9886C48.9498 73.1136 48.554 73.1761 48.0994 73.1761ZM48.6335 71.6648C49.0464 71.6648 49.4044 71.5833 49.7074 71.4205C50.0104 71.2538 50.2434 71.0341 50.4062 70.7614C50.5729 70.4886 50.6562 70.1913 50.6562 69.8693V68.8409C50.5919 68.8939 50.482 68.9432 50.3267 68.9886C50.1752 69.0341 50.0047 69.0739 49.8153 69.108C49.6259 69.142 49.4384 69.1723 49.2528 69.1989C49.0672 69.2254 48.9063 69.2481 48.7699 69.267C48.4631 69.3087 48.1884 69.3769 47.946 69.4716C47.7036 69.5663 47.5123 69.6989 47.3722 69.8693C47.232 70.036 47.1619 70.2519 47.1619 70.517C47.1619 70.8958 47.3002 71.1818 47.5767 71.375C47.8532 71.5682 48.2055 71.6648 48.6335 71.6648ZM61.6733 66.5795L59.7983 66.7841C59.7453 66.5947 59.6525 66.4167 59.5199 66.25C59.3911 66.0833 59.2169 65.9489 58.9972 65.8466C58.7775 65.7443 58.5085 65.6932 58.1903 65.6932C57.7623 65.6932 57.4025 65.786 57.1108 65.9716C56.8229 66.1572 56.6809 66.3977 56.6847 66.6932C56.6809 66.947 56.7737 67.1534 56.9631 67.3125C57.1563 67.4716 57.4744 67.6023 57.9176 67.7045L59.4062 68.0227C60.232 68.2008 60.8456 68.483 61.2472 68.8693C61.6525 69.2557 61.857 69.7614 61.8608 70.3864C61.857 70.9356 61.696 71.4205 61.3778 71.8409C61.0634 72.2576 60.6259 72.5833 60.0653 72.8182C59.5047 73.053 58.8608 73.1705 58.1335 73.1705C57.0653 73.1705 56.2055 72.947 55.554 72.5C54.9025 72.0492 54.5142 71.4223 54.3892 70.6193L56.3949 70.4261C56.4858 70.8201 56.679 71.1174 56.9744 71.3182C57.2699 71.5189 57.6544 71.6193 58.1278 71.6193C58.6165 71.6193 59.0085 71.5189 59.304 71.3182C59.6032 71.1174 59.7528 70.8693 59.7528 70.5739C59.7528 70.3239 59.6563 70.1174 59.4631 69.9545C59.2737 69.7917 58.9782 69.6667 58.5767 69.5795L57.0881 69.267C56.2509 69.0928 55.6316 68.7992 55.2301 68.3864C54.8286 67.9697 54.6297 67.4432 54.6335 66.8068C54.6297 66.2689 54.7756 65.803 55.071 65.4091C55.3703 65.0114 55.785 64.7045 56.3153 64.4886C56.8494 64.2689 57.465 64.1591 58.1619 64.1591C59.1847 64.1591 59.9896 64.3769 60.5767 64.8125C61.1676 65.2481 61.5331 65.8371 61.6733 66.5795ZM67.4205 73.1705C66.5455 73.1705 65.7898 72.9886 65.1534 72.625C64.5208 72.2576 64.0341 71.7386 63.6932 71.0682C63.3523 70.3939 63.1818 69.6004 63.1818 68.6875C63.1818 67.7898 63.3523 67.0019 63.6932 66.3239C64.0379 65.642 64.5189 65.1117 65.1364 64.733C65.7538 64.3504 66.4792 64.1591 67.3125 64.1591C67.8504 64.1591 68.358 64.2462 68.8352 64.4205C69.3163 64.5909 69.7405 64.8561 70.108 65.2159C70.4792 65.5758 70.7708 66.0341 70.983 66.5909C71.1951 67.1439 71.3011 67.803 71.3011 68.5682V69.1989H64.1477V67.8125H69.3295C69.3258 67.4186 69.2405 67.0682 69.0739 66.7614C68.9072 66.4508 68.6742 66.2064 68.375 66.0284C68.0795 65.8504 67.7348 65.7614 67.3409 65.7614C66.9205 65.7614 66.5511 65.8636 66.233 66.0682C65.9148 66.2689 65.6667 66.5341 65.4886 66.8636C65.3144 67.1894 65.2254 67.5473 65.2216 67.9375V69.1477C65.2216 69.6553 65.3144 70.0909 65.5 70.4545C65.6856 70.8144 65.9451 71.0909 66.2784 71.2841C66.6117 71.4735 67.0019 71.5682 67.4489 71.5682C67.7481 71.5682 68.0189 71.5265 68.2614 71.4432C68.5038 71.3561 68.714 71.2292 68.892 71.0625C69.0701 70.8958 69.2045 70.6894 69.2955 70.4432L71.2159 70.6591C71.0947 71.1667 70.8636 71.6098 70.5227 71.9886C70.1856 72.3636 69.7538 72.6553 69.2273 72.8636C68.7008 73.0682 68.0985 73.1705 67.4205 73.1705Z" fill="#E0E7FF"/>
</svg>
