<svg width="620" height="256" viewBox="0 0 620 256" fill="none" xmlns="http://www.w3.org/2000/svg">
<path d="M243.949 167.379H188.614C188.896 173.74 190.522 178.686 193.49 182.22C196.458 185.754 201.334 187.52 208.119 187.52C211.511 187.52 215.433 187.026 219.886 186.036C224.338 185.047 229.461 183.421 235.256 181.16C239.921 185.966 242.818 192.467 243.949 200.665C232.642 208.721 218.79 212.75 202.395 212.75C193.49 212.75 186.034 211.336 180.027 208.509C174.02 205.683 169.144 201.725 165.399 196.637C161.653 191.549 159.003 185.542 157.448 178.616C155.893 171.69 155.116 164.128 155.116 155.931C155.116 148.015 156.07 140.701 157.978 133.987C159.886 127.274 162.784 121.443 166.671 116.496C170.557 111.549 175.504 107.663 181.511 104.836C187.518 102.009 194.55 100.596 202.607 100.596C209.391 100.596 215.504 101.726 220.946 103.988C226.387 106.249 231.016 109.359 234.832 113.316C238.649 117.274 241.581 122.009 243.631 127.521C245.68 133.033 246.705 139.04 246.705 145.542C246.705 154.164 245.786 161.443 243.949 167.379ZM188.402 144.482H216.387V142.15C216.387 136.92 215.221 132.609 212.889 129.217C210.557 125.825 207.059 124.129 202.395 124.129C197.872 124.129 194.515 125.719 192.324 128.899C190.133 132.079 188.826 137.274 188.402 144.482ZM358.011 139.606V183.068C358.011 192.397 359.707 199.393 363.099 204.057C357.728 208.863 351.297 211.266 343.806 211.266C336.457 211.266 331.439 209.569 328.753 206.177C326.068 202.785 324.725 197.626 324.725 190.7V145.542C324.725 140.736 324.089 137.203 322.817 134.941C321.545 132.68 319.072 131.549 315.397 131.549C313.277 131.549 310.874 132.115 308.188 133.245C305.503 134.376 302.747 136.213 299.92 138.758V209.569C297.517 209.994 294.902 210.312 292.075 210.524C289.249 210.736 286.351 210.842 283.383 210.842C280.415 210.842 277.517 210.736 274.69 210.524C271.864 210.312 269.249 209.994 266.846 209.569V103.776L268.33 102.292H280.839C289.461 102.292 295.256 106.532 298.224 115.012C308.118 106.249 317.941 101.868 327.693 101.868C337.587 101.868 345.114 105.295 350.273 112.15C355.432 119.005 358.011 128.157 358.011 139.606ZM420.978 128.157V209.569C418.576 209.994 415.961 210.312 413.134 210.524C410.307 210.736 407.41 210.842 404.442 210.842C401.473 210.842 398.541 210.736 395.643 210.524C392.746 210.312 390.095 209.994 387.693 209.569V139.394C387.693 131.196 384.371 127.097 377.728 127.097H374.548C373.7 124.411 373.276 120.666 373.276 115.86C373.276 111.196 373.7 107.239 374.548 103.988C378.223 103.705 381.615 103.458 384.724 103.246C387.834 103.034 390.661 102.928 393.205 102.928H397.869C405.078 102.928 410.731 105.189 414.83 109.712C418.929 114.235 420.978 120.383 420.978 128.157ZM383.876 61.1614C387.975 58.8999 393.276 57.7692 399.777 57.7692C406.42 57.7692 411.579 58.8999 415.254 61.1614C416.95 64.9776 417.798 69.0765 417.798 73.458C417.798 77.8396 416.95 81.9385 415.254 85.7547C411.155 87.8748 405.784 88.9349 399.141 88.9349C392.498 88.9349 387.41 87.8748 383.876 85.7547C382.18 81.9385 381.332 77.8396 381.332 73.458C381.332 69.0765 382.18 64.9776 383.876 61.1614ZM450.872 209.569V126.885L432.639 127.097C431.791 123.563 431.367 119.677 431.367 115.436C431.367 111.196 431.791 107.239 432.639 103.564L449.176 103.776C448.469 98.5461 448.116 93.8112 448.116 89.5709C448.116 78.9704 451.543 70.1719 458.398 63.1755C465.254 56.1791 474.193 52.6809 485.218 52.6809C496.243 52.6809 507.055 54.6597 517.656 58.6172C517.797 62.2921 517.161 66.285 515.748 70.5959C514.334 74.9068 512.567 78.193 510.447 80.4544C503.804 78.4757 498.363 77.4863 494.122 77.4863C484.653 77.4863 479.918 82.3625 479.918 92.1151C479.918 96.214 480.2 100.172 480.766 103.988L508.539 103.564C509.387 107.239 509.811 111.196 509.811 115.436C509.811 119.677 509.387 123.563 508.539 127.097L483.098 126.673V209.569C478.292 210.418 472.992 210.842 467.197 210.842C461.402 210.842 455.96 210.418 450.872 209.569ZM619.633 107.168L593.556 206.813C589.457 222.078 584.015 233.809 577.231 242.007C569.457 251.336 557.514 256 541.401 256C532.779 256 524.228 254.587 515.748 251.76C515.324 247.944 515.748 243.668 517.02 238.933C518.292 234.198 520.059 230.559 522.32 228.014C528.68 230.135 535.041 231.195 541.401 231.195C551.86 231.195 558.786 225.47 562.178 214.022L563.026 211.054C550.73 211.054 543.38 206.601 540.977 197.697L516.384 106.32C522.885 103.352 528.963 101.868 534.617 101.868C540.27 101.868 544.405 102.928 547.019 105.048C549.634 107.168 551.578 110.843 552.85 116.072L562.602 156.779C563.592 160.595 565.217 169.923 567.478 184.764C567.62 185.754 568.185 186.248 569.175 186.248L587.62 103.988C591.012 102.998 595.605 102.504 601.4 102.504C607.902 102.504 613.556 103.281 618.361 104.836L619.633 107.168Z" fill="#5385EA"/>
<path d="M0.0267827 210.721V207.337C0.0267827 164.981 -0.0334784 122.623 0.0267827 80.232C0.0698201 58.3323 14.6606 40.2886 36.0088 37.0337C45.3917 35.6079 55.162 36.7932 65.397 36.7932V40.3573C65.397 81.9984 65.397 123.64 65.397 165.28C65.397 191.903 46.6141 210.583 19.9375 210.678C13.5416 210.738 7.09404 210.721 0.0267827 210.721Z" fill="#5385EA"/>
<path d="M87.1964 137.844V0.00205206C99.3216 0.634896 111.403 -1.51678 123.123 2.71424C140.383 8.82214 152.119 25.6416 152.445 44.7352C152.678 60.1042 152.583 75.4731 152.523 90.8422C152.41 117.06 135.688 136.045 110.8 137.854C103.09 138.324 95.3288 137.844 87.1964 137.844Z" fill="#84E6EC"/>
<script xmlns=""/></svg>