<svg width="750" height="500" viewBox="0 0 750 500" fill="none" xmlns="http://www.w3.org/2000/svg">
<g clip-path="url(#clip0_17_3)">
<path d="M750 0H0V500H750V0Z" fill="black" fill-opacity="0.05"/>
<path d="M671.688 370.721C645.676 410.178 601.078 433.371 553.818 433.371H161.567C82.7249 433.371 38.5139 341.188 89.6449 289.281C140.777 237.374 95.6129 193.041 174.481 151.416C250.888 111.09 276.974 197.048 347.363 140.804C417.752 84.5597 520.229 89.8657 542.744 147.171C565.259 204.476 559.953 224.643 607.707 237.376C655.461 250.108 702.154 322.27 673.502 367.902C672.905 368.853 672.3 369.793 671.688 370.721Z" fill="#BDCAE0"/>
<path d="M654.251 386.716C612.928 390.221 585.073 467.678 481.773 421.121C481.773 421.121 493.116 387.307 543.928 366.231C594.74 345.155 654.251 386.716 654.251 386.716Z" fill="#CDDCF4"/>
<path d="M495.879 415.321C506.663 409.714 517.85 404.88 529.274 400.675C532.117 399.583 534.999 398.601 537.89 397.644C540.768 396.646 543.684 395.763 546.595 394.862C549.496 393.927 552.449 393.167 555.392 392.37C556.865 391.978 558.332 391.563 559.811 391.192L564.26 390.123L568.72 389.101L573.212 388.217L577.703 387.335C579.201 387.049 580.713 386.824 582.222 386.595C585.243 386.15 588.252 385.643 591.295 385.352C594.333 385.037 597.355 384.599 600.413 384.485C612.582 383.601 624.887 383.802 636.886 385.832C624.732 385.538 612.681 386.258 600.729 387.731L598.487 387.985L596.254 388.329L591.787 388.981C588.803 389.364 585.849 389.961 582.887 390.496C581.41 390.786 579.92 390.993 578.446 391.3L574.024 392.218L569.603 393.137L565.209 394.19L560.805 395.197C559.34 395.547 557.886 395.944 556.426 396.315L552.049 397.447C550.588 397.817 549.149 398.271 547.691 398.653C544.783 399.451 541.869 400.231 538.987 401.127C536.1 402.006 533.195 402.827 530.319 403.75C518.783 407.344 507.349 411.301 495.879 415.321Z" fill="#B0BDD1"/>
<path d="M659.308 254.902C608.888 290.943 632.213 411.724 463.954 430.741C463.954 430.741 452.722 378.638 501.924 312.778C551.126 246.919 659.308 254.902 659.308 254.902Z" fill="#DBE9FF"/>
<path d="M475.148 416.19C482.487 400.29 491.544 385.17 501.735 370.857C511.896 356.514 523.288 343.017 535.697 330.518C548.12 318.041 561.581 306.536 576.149 296.603C590.671 286.675 606.339 278.132 623.048 272.808C607.539 280.941 593.167 290.607 579.518 301.208C565.918 311.869 553.06 323.431 540.877 335.676C528.686 347.917 517.198 360.857 506.263 374.294C495.361 387.768 485.116 401.791 475.148 416.19Z" fill="#CDDCF4"/>
<path d="M115.408 375.951C156.382 382.357 178.713 461.583 285.035 422.416C285.035 422.416 276.101 387.887 226.9 363.285C177.698 338.684 115.408 375.951 115.408 375.951Z" fill="#CDDCF4"/>
<path d="M271.373 415.637C260.214 410.819 249.088 406.068 237.834 401.67C235.03 400.547 232.19 399.522 229.372 398.442C226.561 397.345 223.708 396.362 220.864 395.361C219.436 394.877 218.033 394.324 216.601 393.852L212.315 392.415C210.885 391.942 209.462 391.444 208.026 390.991L203.704 389.676L199.395 388.317L195.05 387.089L190.704 385.861C189.255 385.452 187.783 385.14 186.33 384.746C183.414 384.004 180.509 383.199 177.559 382.607L173.149 381.642L170.946 381.143L168.728 380.731C156.909 378.419 144.938 376.854 132.794 376.291C144.906 375.111 157.195 375.777 169.271 377.516C172.313 377.845 175.296 378.494 178.305 379.023C181.32 379.528 184.286 380.246 187.268 380.902C188.757 381.237 190.249 381.566 191.724 381.958L196.142 383.154L200.56 384.352L204.937 385.686L209.3 387.065C210.749 387.539 212.183 388.058 213.625 388.552C216.504 389.555 219.396 390.521 222.225 391.658C225.066 392.762 227.912 393.847 230.713 395.045C233.53 396.203 236.335 397.386 239.094 398.675C250.192 403.674 261.011 409.284 271.373 415.637Z" fill="#B0BDD1"/>
<path d="M142.646 249.354C188.048 286.908 157.843 399.888 316.136 429.187C316.136 429.187 330.276 380.528 288.025 314.777C245.773 249.026 142.646 249.354 142.646 249.354Z" fill="#DBE9FF"/>
<path d="M306.493 414.639C297.937 400.349 289.129 386.39 279.675 372.902C270.184 359.448 260.152 346.421 249.415 334.003C238.687 321.581 227.281 309.755 215.123 298.719C202.911 287.737 189.963 277.582 175.834 268.764C191.358 274.864 205.678 283.989 218.808 294.362C231.983 304.74 243.993 316.551 254.945 329.222C265.881 341.913 275.778 355.489 284.433 369.792C293.12 384.066 300.665 399.036 306.493 414.639Z" fill="#CDDCF4"/>
<path d="M409.65 354.533C403.966 361.282 398.815 372.472 395.618 374.249C392.421 376.025 387.03 376.643 381.936 393.039C376.842 409.436 402.561 407.191 402.561 407.191C402.561 407.191 413.558 400.875 417.999 385.616L429.011 375.847L409.65 354.533Z" fill="#F6A397"/>
<path d="M389.755 405.392C389.755 405.392 398.079 402.681 405.14 395.224C412.227 387.738 413.141 374.42 413.141 374.42L416.536 380.763L423.326 373.506L426.599 373.189L429.012 375.845L418 385.614C413.56 400.873 402.562 407.189 402.562 407.189C402.562 407.189 395.472 407.804 389.474 406.018C389.628 405.631 389.755 405.392 389.755 405.392Z" fill="#D65863"/>
<path d="M448.208 295.803C440.33 301.562 435.63 305.741 431.713 313.575C427.796 321.409 403.249 349.555 401.682 352.065C400.115 354.575 415.477 381.211 427.774 387.74C427.774 387.74 446.338 366.326 457.044 358.231C467.751 350.136 464.095 321.41 459.133 311.748C454.171 302.085 448.208 295.803 448.208 295.803Z" fill="#5470D3"/>
<path d="M447.921 347.633V331.644C447.921 331.644 450.005 330.809 451.631 336.206C452.281 338.365 452.23 340.635 451.941 342.589L463.893 333.6C464.387 343.663 462.772 353.898 457.044 358.229C446.337 366.324 427.774 387.738 427.774 387.738C424.602 386.054 421.227 383.027 417.99 379.425C425.547 371.9 439.888 357.371 447.921 347.633Z" fill="#314EC6"/>
<path d="M371.553 400.875C369.509 401.513 367.999 402.49 367.999 405.065C367.999 407.64 368.443 411.726 369.42 413.324C370.397 414.923 375.442 415.88 375.442 415.88C375.442 415.88 375.104 405.242 374.039 403.288C372.972 401.335 371.553 400.875 371.553 400.875Z" fill="#F6A397"/>
<path d="M369.419 413.325C369.144 412.876 368.916 412.218 368.724 411.464C369.819 412.54 370.186 412.548 371.526 412.69L375.356 413.884C375.415 415.081 375.44 415.881 375.44 415.881C375.44 415.881 370.396 414.923 369.419 413.325Z" fill="#D65863"/>
<path d="M376.435 396.983C373.948 397.249 371.462 399.114 371.462 401.69C371.462 404.266 370.574 411.459 371.462 412.614C372.35 413.769 376.702 417.055 378.212 417.321C379.722 417.587 382.286 417.143 381.936 416.344C381.586 415.544 376.435 396.983 376.435 396.983Z" fill="#F6A397"/>
<path d="M371.085 410.681C372.971 412.809 377.792 412.618 377.792 412.618C377.792 412.618 379.911 414.881 380.172 415.608C380.33 416.047 381.197 416.625 381.316 417.072C380.518 417.376 379.158 417.488 378.212 417.321C376.732 417.06 372.529 413.901 371.527 412.689L371.085 410.685C371.085 410.685 371.085 410.683 371.085 410.681Z" fill="#D65863"/>
<path d="M385.753 392.734C378.123 393.164 376.702 393.874 376.436 396.983C376.17 400.091 376.347 409.15 377.324 411.459C378.301 413.768 378.834 415.811 380.077 417.054C381.32 418.297 383.18 418.302 383.18 418.302C383.18 418.302 387.359 412.17 387.537 407.019C387.714 401.867 385.753 392.734 385.753 392.734Z" fill="#F6A397"/>
<path d="M381.364 413.2C381.751 411.09 382.609 408.842 382.718 401.783C382.759 399.131 385.218 412.981 384.12 416.781C383.573 417.724 383.18 418.302 383.18 418.302C383.18 418.302 381.32 418.298 380.077 417.054C378.834 415.811 378.301 413.768 377.324 411.459C377.26 411.309 377.201 411.128 377.144 410.924C377.641 412.22 379.223 413.07 381.364 413.2Z" fill="#D65863"/>
<path d="M402.457 408.351C401.977 412.595 396.418 414.124 395.796 416.255C395.174 418.386 395.618 420.34 394.553 420.873C393.487 421.406 389.047 418.919 389.224 416.077C389.224 416.077 388.069 418.475 385.494 418.919C382.918 419.363 382.297 417.482 382.741 414.648C383.185 411.814 383.096 410.304 383.007 406.93C382.918 403.555 382.119 400.447 383.629 396.717C385.139 392.987 387.181 389.701 391.267 390.323C395.352 390.945 397.839 396.096 400.059 397.872C402.279 399.648 402.99 403.644 402.457 408.351Z" fill="#F6A397"/>
<path d="M389.224 416.078C389.473 410.681 389.755 406.264 389.755 405.393C389.755 404.522 389.473 398.794 391.51 398.446C391.819 398.393 396.298 401.231 396.385 403.147C396.472 405.062 396.385 408.5 394.992 409.48C393.598 410.459 389.224 416.078 389.224 416.078Z" fill="#D65863"/>
<path d="M574.296 307.308C566.201 297.036 563.415 295.992 555.059 291.117C546.702 286.242 515.017 273.882 508.489 272.315C501.96 270.748 475.63 283.022 466.99 286.939C458.35 290.856 447.357 294.71 445.483 298.528C439.213 311.307 451.631 329.418 451.697 367.37C451.731 387.248 456.261 431.947 456.261 431.947C456.261 431.947 555.756 432.133 557.149 430.044C558.542 427.955 562.024 356.576 563.764 341.952C565.504 327.329 574.296 307.308 574.296 307.308Z" fill="#5470D3"/>
<path d="M445.848 318.536C445.102 316.133 444.659 313.687 444.287 311.23C443.946 308.769 443.678 306.297 443.715 303.781C444.463 306.183 444.906 308.63 445.276 311.087C445.615 313.548 445.882 316.02 445.848 318.536Z" fill="#314EC6"/>
<path d="M483.054 303.586C479.21 302.15 470.102 304.647 468.437 305.227C466.772 305.806 469.416 298.69 470.395 297.809C471.374 296.928 472.941 294.876 475.944 295.804C478.947 296.732 481.471 300.17 481.907 301.302C482.343 302.433 483.054 303.586 483.054 303.586Z" fill="#314EC6"/>
<path d="M515.084 309.527C513.713 309.462 505.716 305.784 503.8 304.87C501.884 303.956 493.21 303.529 487.385 305.157C487.385 305.157 498.599 297.58 505.128 297.645C511.657 297.71 514.137 300.061 514.66 302.15C515.182 304.239 515.084 309.527 515.084 309.527Z" fill="#314EC6"/>
<path d="M472.313 415.943C473.381 414.898 538.358 416.988 539.664 410.198C540.97 403.408 541.868 391.06 541.868 391.06C534.046 395.238 522.689 393.499 522.689 393.499C530.262 391.026 541.23 378.6 541.752 374.944C543.361 363.681 537.344 332.63 537.344 332.63L541.752 323.76L546.91 320.887C546.91 320.887 556.69 325.758 565.054 334.718C564.489 337.197 564.038 339.643 563.763 341.953C562.122 355.741 558.933 419.965 557.406 429.02C537.281 429.762 500.798 431.098 476.386 431.936C464.558 431.964 456.259 431.949 456.259 431.949C456.259 431.949 456.106 426.07 455.751 417.638C462.562 417.238 471.65 416.59 472.313 415.943Z" fill="#314EC6"/>
<path d="M485.508 305.48C492.519 304.635 503.788 298.56 508.227 300.649C512.666 302.738 513.711 308.091 514.625 309.005C515.539 309.919 519.456 305.349 519.456 294.12C519.456 282.891 519.801 271.393 511.533 269.83C503.265 268.267 481.852 276.363 477.543 279.627C473.234 282.891 471.406 286.197 470.231 289.376C469.056 292.554 465.922 305.35 467.358 305.481C468.794 305.611 472.842 297.255 475.845 296.994C478.849 296.731 483.609 305.709 485.508 305.48Z" fill="#5470D3"/>
<path d="M481.519 295.426C479.731 291.183 477.773 287.461 477.838 284.523C477.903 281.585 478.556 279.561 481.82 278.647C485.084 277.733 486.455 279.496 486.651 283.935C486.848 288.375 481.519 295.426 481.519 295.426Z" fill="#314EC6"/>
<path d="M507.115 287.514C513.94 281.323 514.713 274.403 514.072 272.967C513.431 271.531 510.612 270.486 510.612 270.486C510.612 270.486 509.502 274.991 510.155 276.101C510.808 277.21 507.115 287.514 507.115 287.514Z" fill="#314EC6"/>
<path d="M496.251 302.481C497.914 301.734 499.649 301.151 501.419 300.671C503.197 300.238 505.024 299.894 506.921 300.017C507.857 300.088 508.863 300.291 509.7 300.954C510.438 301.651 511.001 302.281 511.628 302.997C512.872 304.409 513.728 306.123 514.516 307.735C514.691 308.106 514.965 308.543 515.086 308.582C515.1 308.587 515.094 308.61 515.235 308.522C515.353 308.439 515.49 308.297 515.616 308.141C516.124 307.49 516.541 306.677 516.949 305.885C517.77 304.322 518.212 302.59 518.561 300.826C518.902 299.061 519.097 297.259 519.224 295.452C519.38 293.645 519.431 291.829 519.456 290.008C519.815 293.634 519.821 297.306 519.319 300.953C519.075 302.771 518.619 304.609 517.798 306.303C517.392 307.134 516.981 307.955 516.381 308.749C516.222 308.946 516.051 309.144 515.799 309.327C515.678 309.418 515.512 309.504 515.314 309.552C515.108 309.601 514.859 309.568 514.673 309.48C514.299 309.292 514.141 309.042 513.99 308.829C513.845 308.609 513.732 308.396 513.624 308.186C512.834 306.532 512.051 304.952 510.902 303.603C510.352 302.934 509.708 302.197 509.141 301.629C508.549 301.136 507.702 300.891 506.846 300.783C505.109 300.577 503.292 300.819 501.527 301.15C499.744 301.462 497.992 301.946 496.251 302.481Z" fill="#314EC6"/>
<path d="M480.175 300.139C479.419 299.469 478.666 298.8 477.845 298.245C477.44 297.966 477.025 297.7 476.597 297.517C476.382 297.435 476.173 297.371 475.978 297.345C475.892 297.354 475.8 297.346 475.732 297.368C475.669 297.411 475.63 297.394 475.507 297.485C473.824 298.523 472.513 299.949 471.4 301.582C470.835 302.37 470.34 303.271 469.672 304.089C469.339 304.494 468.984 304.886 468.534 305.235C468.299 305.399 468.061 305.588 467.639 305.638C467.437 305.671 467.156 305.585 466.985 305.433C466.814 305.278 466.727 305.1 466.679 304.948C466.495 304.33 466.554 303.815 466.602 303.292C466.667 302.776 466.758 302.272 466.874 301.776C467.124 300.788 467.4 299.816 467.755 298.867C467.62 299.87 467.44 300.86 467.357 301.857C467.301 302.352 467.263 302.848 467.256 303.335C467.254 303.809 467.263 304.329 467.407 304.668C467.437 304.754 467.486 304.799 467.503 304.811C467.527 304.809 467.503 304.819 467.552 304.804C467.636 304.796 467.834 304.683 467.992 304.546C468.326 304.262 468.639 303.892 468.925 303.506C469.513 302.747 469.986 301.872 470.577 301.013C471.171 300.175 471.821 299.362 472.576 298.638C473.33 297.917 474.203 297.297 475.104 296.82C475.187 296.762 475.397 296.686 475.569 296.638C475.741 296.604 475.91 296.623 476.071 296.633C476.375 296.694 476.638 296.803 476.881 296.931C477.354 297.2 477.76 297.524 478.147 297.864C478.894 298.57 479.583 299.315 480.175 300.139Z" fill="#314EC6"/>
<path d="M480.561 269.92C480.577 272.679 480.686 275.43 480.973 278.175C481.677 284.908 480.987 293.787 481.519 295.426C482.113 297.254 485.638 303.783 485.638 303.783C485.638 303.783 491.905 300.91 494.517 297.777C497.129 294.644 500.523 294.485 505.093 289.864C509.663 285.243 512.77 277.903 511.752 271.794C511.622 271.011 510.819 263.19 510.642 255.094C510.465 246.999 501.959 240.848 493.864 240.848C485.769 240.848 480.923 252.86 480.669 260.956C480.565 264.277 480.547 267.396 480.561 269.92Z" fill="#F6A397"/>
<path d="M510.643 255.093C510.82 263.188 511.622 271.009 511.753 271.793C512.068 273.682 511.986 275.688 511.591 277.695C509.8 278.026 486.744 278.582 480.771 275.801C480.635 273.845 480.572 271.885 480.561 269.921C480.547 267.397 480.565 264.278 480.67 260.956C480.778 257.524 481.713 253.391 483.369 249.765L502.335 243.043C506.989 245.526 510.529 249.905 510.643 255.093Z" fill="#D65863"/>
<path d="M466.359 221.383C454.109 221.383 449.525 230.792 449.525 237.845C449.525 244.174 451.554 254.307 466.359 254.307C473.762 254.307 478.773 246.937 478.773 237.845C478.773 228.754 473.762 221.383 466.359 221.383Z" fill="#504984"/>
<path d="M465.818 225.415C456.568 225.415 453.106 232.52 453.106 237.845C453.106 242.624 454.638 250.276 465.818 250.276C471.408 250.276 475.192 244.711 475.192 237.845C475.192 230.98 471.408 225.415 465.818 225.415Z" fill="#372D5B"/>
<path d="M450.904 226.941C451.628 231.233 453.752 232.874 454.701 238.66C455.65 244.446 453.119 252.855 456.893 260.178C460.668 267.501 466.771 277.13 470.297 277.537C473.823 277.944 502.064 273.174 511.592 254.225C514.327 248.786 520.173 227.457 515.17 214.434C510.168 201.411 502.031 189.477 483.225 189.115C464.42 188.753 447.069 204.193 450.904 226.941Z" fill="#F6A397"/>
<path d="M466.632 250.401C467.637 250.424 468.74 250.041 469.235 249.382C469.669 248.805 469.85 248.045 469.722 247.335C468.252 248.547 466.45 248.755 464.64 248.439C464.416 249.79 465.457 250.374 466.632 250.401Z" fill="#D65863"/>
<path d="M499.9 226.94C499.184 222.475 496.2 219.899 496.2 219.899C496.2 219.899 489.012 216.915 483.452 216.373C477.892 215.83 472.196 214.203 472.196 214.203C472.196 214.203 473.959 218.668 476.943 220.571C476.943 220.571 463.653 219.898 459.448 215.966C459.448 215.966 460.262 219.207 461.075 221.384C461.075 221.384 454.565 220.713 452.531 218.136C452.531 218.136 450.904 223.81 450.904 226.94C450.904 226.94 443.083 216.237 445.073 207.738C447.062 199.239 449.774 195.985 449.774 195.985C449.774 195.985 444.169 196.527 441.095 195.985C441.095 195.985 448.328 189.656 453.753 185.497C459.178 181.338 475.452 181.157 475.452 181.157C475.452 181.157 474.186 176.817 475.633 169.946C475.633 169.946 482.595 180.162 489.963 183.282C497.331 186.402 496.339 186.137 504.152 188.108C511.965 190.08 519.392 195.081 522.511 199.285C525.63 203.489 529.021 207.829 531.055 208.507C531.055 208.507 526.173 207.829 523.732 205.795C523.732 205.795 527.803 215.04 522.422 226.94C517.042 238.84 503.562 235.319 500.948 232.692C498.333 230.065 499.9 226.94 499.9 226.94Z" fill="#BA6454"/>
<path d="M500.946 232.693C498.332 230.066 499.899 226.941 499.899 226.941C499.466 224.24 498.205 222.236 497.274 221.069C499.23 209.209 498.432 196.901 494.959 185.394C496.989 186.219 498.194 186.589 501.133 187.344C504.741 192.771 507.439 198.877 509.297 205.062C511.663 212.938 512.808 221.447 510.601 229.369C510.035 231.4 509.21 233.381 508.167 235.236C504.823 234.956 502.001 233.752 500.946 232.693Z" fill="#874438"/>
<path d="M504.628 222.52C504.628 222.52 505.558 192.775 489.962 183.282C489.962 183.282 502.032 181.926 508.948 193.996C515.864 206.066 515.396 216.418 515.222 222.22C515.048 228.021 504.628 222.52 504.628 222.52Z" fill="#504984"/>
<path d="M509.383 221.383C521.633 221.383 526.217 230.792 526.217 237.845C526.217 244.174 524.188 254.307 509.383 254.307C501.98 254.307 496.969 246.937 496.969 237.845C496.968 228.754 501.98 221.383 509.383 221.383Z" fill="#504984"/>
<path d="M502.779 237.845C502.779 229.774 508.107 223.231 514.679 223.231C521.251 223.231 526.217 229.774 526.217 237.845C526.217 245.916 521.251 252.459 514.679 252.459C508.106 252.459 502.779 245.916 502.779 237.845Z" fill="#372D5B"/>
<path d="M516.249 247.79C520.721 247.79 524.347 243.338 524.347 237.845C524.347 232.353 520.721 227.9 516.249 227.9C511.776 227.9 508.151 232.353 508.151 237.845C508.151 243.338 511.776 247.79 516.249 247.79Z" fill="#504984"/>
<path d="M478.333 254.308C475.023 256.131 464.21 256.738 463.474 256.637C462.738 256.536 464.249 264.746 466.897 265.05C469.545 265.354 474.841 264.645 477.048 262.519C479.255 260.391 478.333 254.308 478.333 254.308Z" fill="#D65863"/>
<path d="M477.641 256.701C477.437 255.973 477.278 255.388 477.124 254.819C473.482 256.062 466.313 256.588 464.103 256.641C464.283 257.739 464.599 258.85 465.047 259.942C465.117 259.897 465.03 260.047 465.1 260.002C469.872 260.753 474.727 259.206 477.641 256.701Z" fill="white"/>
<path d="M476.874 234.682C476.874 233.184 477.613 231.97 478.524 231.97C479.435 231.97 480.174 233.184 480.174 234.682C480.174 236.18 479.435 237.394 478.524 237.394C477.613 237.394 476.874 236.18 476.874 234.682Z" fill="#3F1751"/>
<path d="M457.994 235.946C457.994 234.448 458.629 233.234 459.413 233.234C460.196 233.234 460.831 234.448 460.831 235.946C460.831 237.444 460.196 238.658 459.413 238.658C458.629 238.659 457.994 237.444 457.994 235.946Z" fill="#3F1751"/>
<path d="M486.112 224.107C484.985 223.487 483.771 223.058 482.525 222.7C481.274 222.364 479.977 222.166 478.659 222.12C477.35 222.054 475.965 222.018 474.697 222.507C473.426 222.945 472.273 223.744 471.424 224.797L471.52 224.958C472.882 224.811 474.007 224.477 475.195 224.32C476.356 224.146 477.483 223.721 478.697 223.623C481.098 223.419 483.614 223.609 486.035 224.278L486.112 224.107Z" fill="#3F1751"/>
<path d="M453.222 227.612C453.81 227.384 454.429 227.242 455.046 227.17C455.66 227.087 456.275 227.056 456.883 227.049C457.497 227.041 458.105 227.261 458.703 227.114C459.005 227.046 459.312 226.987 459.627 226.856C459.943 226.748 460.266 226.609 460.613 226.366L460.633 226.178C460.043 225.602 459.375 225.356 458.697 225.233C458.012 225.104 457.334 225.38 456.676 225.56C456.014 225.733 455.366 225.963 454.757 226.274C454.158 226.606 453.572 226.953 453.106 227.463L453.222 227.612Z" fill="#3F1751"/>
<path d="M472.313 422.378C472.321 422.798 471.733 423.406 470.297 423.406C468.861 423.406 430.234 423.406 425.011 423.406C419.788 423.406 418.57 421.34 420.136 418.729C421.703 416.118 428.318 410.372 444.683 406.368C461.048 402.364 469.653 411.726 472.313 415.943C474.264 419.035 472.313 422.378 472.313 422.378Z" fill="#504984"/>
<path d="M419.75 419.511C420.651 422.507 455.206 420.944 455.206 420.944C455.206 420.944 451.703 416.211 447.829 416.076C443.955 415.941 442.071 417.287 436.877 418.181C431.682 419.075 435.534 416.067 435.534 416.067C435.534 416.067 431.864 415.254 430.37 414.096C430.37 414.096 438.929 411.567 442.52 410.979C446.111 410.391 455.251 410.783 456.426 410.979C457.257 411.118 461.474 408.668 466.572 409.898C469.417 411.976 471.3 414.332 472.314 415.941C474.265 419.033 472.314 422.376 472.314 422.376C472.322 422.796 471.734 423.404 470.298 423.404C468.862 423.404 430.235 423.404 425.012 423.404C420.324 423.404 418.869 421.739 419.75 419.511Z" fill="#372D5B"/>
<path d="M567.55 394.063C567.55 394.063 535.345 399.043 517.889 402.167C501.353 405.126 487.074 406.41 483.027 405.627C478.979 404.844 465.139 399.751 460.699 397.923C456.259 396.095 447.381 395.051 442.811 396.487C438.241 397.923 434.498 399.49 432.67 399.49C430.842 399.49 431.19 402.45 433.627 403.059C436.064 403.668 438.241 403.581 438.241 403.581C438.241 403.581 429.972 408.107 428.492 408.543C427.012 408.979 428.765 411.677 430.768 411.503C430.768 411.503 429.015 412.548 429.624 413.592C430.233 414.637 434.586 414.637 434.586 414.637C434.586 414.637 429.276 417.248 433.715 418.293C438.154 419.337 443.464 414.376 445.641 413.941C447.817 413.506 452.866 413.767 455.303 415.595C457.74 417.423 468.186 425.867 482.462 420.818C482.462 420.818 579.358 424.744 589.02 424.744C598.682 424.744 604.518 416.204 601.42 399.752C598.322 383.3 592.316 371.026 592.316 371.026L558.89 373.376L567.55 394.063Z" fill="#F6A397"/>
<path d="M445.87 400.967C446.723 400.766 447.403 400.649 447.829 400.623C447.829 400.623 447.002 400.765 445.87 400.967Z" fill="#D65863"/>
<path d="M438.241 403.582C438.241 403.582 436.065 403.669 433.627 403.06C432.942 402.889 432.428 402.529 432.075 402.104C434.786 403.302 438.122 402.537 439.949 402.102C441.102 401.827 443.934 401.311 445.869 400.966C443.932 401.422 441.091 402.313 438.241 403.582Z" fill="#D65863"/>
<path d="M438.667 407.499C438.876 407.404 439.053 407.329 439.167 407.294C439.167 407.294 438.98 407.372 438.667 407.499Z" fill="#D65863"/>
<path d="M428.509 410.483C428.54 410.511 429.496 411.353 431.508 410.478C433.184 409.749 437.251 408.08 438.668 407.5C436.886 408.309 432.054 411.036 430.768 411.504C429.878 411.581 429.039 411.09 428.509 410.483Z" fill="#D65863"/>
<path d="M433.51 413.679C434.99 413.244 438.08 411.372 439.973 410.477C441.866 409.582 444.282 409.478 444.282 409.478C444.282 409.478 443.564 409.543 441.67 410.477C439.777 411.41 434.585 414.636 434.585 414.636C434.585 414.636 431.792 414.635 430.369 414.097C430.384 414.098 432.036 414.113 433.51 413.679Z" fill="#D65863"/>
<path d="M461.06 415.812C463.802 417.51 471.897 419.729 476.728 418.815C481.559 417.901 482.604 413.853 482.604 413.853L483.953 418.205C483.953 418.205 551.153 420.12 564.82 419.506C578.33 418.899 599.401 418.592 602.153 410.477C601.398 419.895 596.296 424.743 589.02 424.743C579.358 424.743 482.462 420.817 482.462 420.817C468.186 425.866 457.741 417.422 455.303 415.594C453.277 414.074 449.451 413.64 446.966 413.786C450.673 412.487 458.318 414.115 461.06 415.812Z" fill="#D65863"/>
<path d="M567.55 394.064C567.55 394.064 580.14 392.353 582.665 392.092L580.75 384.258L564.82 387.479L567.55 394.064Z" fill="#D65863"/>
<path d="M601.198 372.134C601.672 373.36 601.371 374.739 600.431 375.658C594.579 381.372 586.898 389.154 578.997 390.351C570.379 391.657 556.016 392.179 555.233 390.351C554.45 388.523 551.577 365.281 546.354 353.53C541.131 341.779 537.736 335.772 536.431 328.983C535.125 322.193 546.877 306.264 552.099 304.958C557.322 303.652 569.334 302.869 574.296 307.308C579.258 311.747 582.914 328.722 588.659 341.518C593.295 351.842 599.121 366.759 601.198 372.134Z" fill="#5470D3"/>
<path d="M568.875 304.73C567.276 304.546 565.677 304.413 564.076 304.377C562.477 304.312 560.878 304.318 559.288 304.412C557.698 304.509 556.115 304.667 554.556 304.948C553.773 305.073 553.005 305.255 552.234 305.427C551.517 305.688 550.779 305.879 550.118 306.291C549.416 306.606 548.806 307.102 548.161 307.532C547.575 308.049 546.948 308.519 546.412 309.099C545.264 310.178 544.297 311.444 543.317 312.693C542.362 313.966 541.493 315.308 540.668 316.679C539.819 318.038 539.063 319.453 538.329 320.886C539.408 317.847 540.901 314.959 542.689 312.249C543.599 310.904 544.587 309.6 545.741 308.431C546.283 307.815 546.948 307.312 547.56 306.762C548.245 306.292 548.887 305.761 549.655 305.405C550.374 304.97 551.204 304.75 552.001 304.478C552.801 304.31 553.596 304.118 554.405 304.014C556.018 303.783 557.642 303.63 559.265 303.645C562.505 303.64 565.745 303.954 568.875 304.73Z" fill="#314EC6"/>
<path d="M594.678 376.944C594.635 372.772 585.824 334.519 578.041 313.199C581.35 320.484 584.442 332.123 588.659 341.516C593.295 351.841 599.121 366.758 601.198 372.133C601.672 373.359 601.372 374.738 600.431 375.657C598.19 377.846 595.678 380.336 592.99 382.645C593.193 382.448 594.718 380.84 594.678 376.944Z" fill="#314EC6"/>
<path d="M174.624 333.85C174.465 335.137 174.734 336.434 175.359 337.571C177.638 341.716 178.793 346.477 178.644 351.206C178.546 354.322 177.906 357.509 178.754 360.509C180.217 365.684 185.679 368.884 187.437 373.967C188.995 378.473 187.546 384.14 190.785 387.639C191.588 388.506 192.834 389.17 193.931 388.731C194.482 388.51 194.895 388.05 195.287 387.605C199 383.388 202.975 378.263 201.83 372.763C200.754 367.596 195.429 364.104 194.419 358.923C193.594 354.69 195.758 349.806 193.333 346.24C192.664 345.256 191.706 344.503 190.975 343.565C188.091 339.861 189.159 333.958 185.836 330.643C184.752 329.562 183.396 328.949 181.918 328.633C178.433 327.886 175.062 330.314 174.624 333.85Z" fill="#BA5E5B"/>
<path d="M195.74 399.508C195.963 396.751 196.058 393.994 196.161 391.229C196.035 388.473 195.888 385.716 195.652 382.962C195.416 380.208 195.106 377.453 194.619 374.715C194.124 371.994 193.47 369.215 192.325 366.656C190.326 361.6 188.709 356.314 187.076 351.075L184.708 343.177C183.735 340.597 182.785 338.012 181.867 335.408C182.269 338.148 182.896 340.837 183.446 343.546L185.82 351.462C187.463 356.727 189.064 361.981 191.113 367.163C192.221 369.64 192.834 372.262 193.325 374.945C193.802 377.625 194.108 380.346 194.342 383.074C194.571 385.803 194.732 388.542 194.837 391.285L195.74 399.508Z" fill="#FFA6A4"/>
<path d="M181.188 343.641C181.642 344.329 182.228 344.845 182.857 345.301C183.18 345.518 183.559 345.659 183.911 345.837C184.268 346.008 184.58 346.238 184.87 346.5L184.996 346.614L185.108 346.443C185.371 346.041 185.691 345.668 185.942 345.26C186.185 344.848 186.44 344.443 186.656 344.018C187.076 343.162 187.389 342.253 187.548 341.267L187.47 341.228C186.781 341.951 186.246 342.749 185.818 343.602C185.61 344.031 185.441 344.48 185.26 344.922C185.088 345.369 184.984 345.849 184.822 346.302L185.059 346.245C184.724 346.046 184.411 345.816 184.143 345.525C183.87 345.242 183.624 344.922 183.322 344.678C182.701 344.212 182.037 343.806 181.241 343.573L181.188 343.641Z" fill="#FFA6A4"/>
<path d="M181.858 353.063C182.332 353.453 182.82 353.875 183.331 354.227C183.842 354.589 184.361 354.937 184.922 355.218C185.489 355.49 186.091 355.705 186.636 356.014C187.184 356.317 187.684 356.699 188.173 357.096L188.345 357.236L188.519 357.008C189.275 356.018 189.921 354.966 190.531 353.893C191.105 352.8 191.617 351.672 191.984 350.462L191.908 350.419C191.061 351.358 190.359 352.378 189.719 353.434C189.115 354.51 188.547 355.607 188.089 356.765L188.435 356.677C187.863 356.41 187.3 356.13 186.784 355.773C186.265 355.422 185.801 354.98 185.301 354.598C184.795 354.224 184.243 353.923 183.68 353.641C183.109 353.368 182.543 353.102 181.876 352.976L181.858 353.063Z" fill="#FFA6A4"/>
<path d="M185.206 365.5C185.725 366.023 186.304 366.408 186.901 366.756C187.49 367.119 188.137 367.36 188.827 367.523C189.514 367.69 190.137 367.993 190.691 368.417C191.244 368.837 191.785 369.3 192.339 369.662L192.757 369.936L193.068 369.47C193.526 368.784 193.942 368.074 194.265 367.314C194.589 366.554 194.877 365.774 195.037 364.924L194.941 364.871C194.309 365.462 193.804 366.122 193.336 366.803C192.867 367.483 192.49 368.214 192.156 368.969L192.885 368.777C192.253 368.428 191.581 368.228 190.916 367.995C190.252 367.767 189.645 367.438 189.098 366.982C188.554 366.52 187.959 366.156 187.304 365.916C186.656 365.664 185.985 365.46 185.251 365.399L185.206 365.5Z" fill="#FFA6A4"/>
<path d="M200.124 400.047C202.278 399.693 210.355 397.109 209.791 395C207.37 385.948 204.949 375.679 213.333 371.251C217.368 369.121 222.432 368.038 224.729 364.096C227.095 360.036 225.353 354.875 223.23 350.683C221.107 346.491 218.55 342.003 219.46 337.393C220.413 332.565 224.978 329.002 225.709 324.136C226.706 317.491 220.254 312.137 214.055 309.543C211.947 308.661 209.629 307.907 207.407 308.443C205.82 308.826 204.444 309.843 203.356 311.06C199.002 315.928 199.18 323.274 200.173 329.73C201.166 336.186 202.687 343.003 200.256 349.066C198.529 353.372 194.832 357.422 195.822 361.954C196.219 363.769 197.351 365.353 197.782 367.16C198.946 372.033 194.898 376.422 193.043 381.075C190.649 387.079 192.292 394.416 196.83 398.971C197.694 399.837 198.917 400.246 200.124 400.047Z" fill="#E67471"/>
<path d="M199.362 400.147C199.861 396.564 200.36 392.993 200.999 389.449C201.151 388.562 201.337 387.681 201.479 386.795C201.614 385.908 201.693 385.013 201.84 384.128C202.108 382.354 202.406 380.586 202.744 378.828C203.428 375.317 204.246 371.821 205.446 368.496C206.048 366.841 206.762 365.221 207.705 363.824C208.173 363.128 208.726 362.511 209.338 362.095C210.145 361.565 210.915 360.882 211.517 360.069C212.759 358.423 213.134 356.332 213.089 354.447C213.047 352.537 212.686 350.714 212.282 348.933C211.452 345.378 210.407 341.944 209.826 338.447C209.236 334.968 209.121 331.404 210.04 328.067C210.323 327.252 210.545 326.424 210.813 325.594C211.087 324.768 211.442 323.965 211.843 323.18C212.648 321.608 213.697 320.145 214.859 318.754C213.434 319.872 212.113 321.163 211.01 322.657C210.456 323.4 209.938 324.183 209.497 325.013C209.041 325.835 208.655 326.709 208.455 327.632C207.45 331.285 207.593 335.109 208.205 338.718C208.81 342.346 209.873 345.832 210.68 349.3C211.075 351.032 211.41 352.772 211.445 354.474C211.481 356.169 211.153 357.824 210.195 359.09C209.721 359.726 209.127 360.264 208.428 360.724C207.545 361.326 206.891 362.096 206.351 362.89C205.274 364.488 204.534 366.202 203.901 367.93C202.651 371.396 201.824 374.95 201.129 378.515C200.785 380.299 200.484 382.089 200.213 383.882C200.089 384.78 199.922 385.672 199.813 386.572C199.721 387.474 199.681 388.382 199.624 389.287C199.43 392.91 199.295 396.529 199.362 400.147Z" fill="#FFA6A4"/>
<path d="M213.669 329.493C213.049 329.709 212.529 330.071 212.047 330.456C211.57 330.849 211.114 331.264 210.778 331.79C210.438 332.312 210.135 332.864 209.699 333.291C209.28 333.736 208.774 334.097 208.288 334.487L208.927 334.527C208.712 334.063 208.446 333.629 208.202 333.184C207.951 332.743 207.699 332.304 207.401 331.896C207.122 331.477 206.802 331.081 206.498 330.679C206.192 330.276 205.846 329.904 205.569 329.476L205.461 329.494C205.437 330.058 205.608 330.582 205.78 331.076C205.969 331.567 206.18 332.044 206.435 332.494C206.673 332.954 206.974 333.372 207.28 333.787C207.594 334.196 207.895 334.611 208.256 334.989L208.656 335.409L208.895 335.029C209.222 334.51 209.537 333.971 209.945 333.52C210.336 333.052 210.867 332.716 211.369 332.357C211.874 332.001 212.273 331.547 212.663 331.085C213.051 330.617 213.412 330.134 213.737 329.58L213.669 329.493Z" fill="#FFA6A4"/>
<path d="M205.839 343.199C206.095 343.815 206.43 344.377 206.803 344.905C207.184 345.426 207.581 345.934 208.037 346.386C208.503 346.83 209.037 347.208 209.537 347.617C210.027 348.035 210.459 348.505 210.851 349.018L210.976 349.181L211.152 349.04C211.804 348.521 212.322 348.047 212.836 347.495C213.323 346.939 213.841 346.412 214.294 345.834C214.751 345.259 215.177 344.662 215.582 344.048C215.991 343.437 216.358 342.797 216.784 342.2L216.722 342.109C216.007 342.447 215.45 342.97 214.898 343.469C214.354 343.982 213.85 344.526 213.383 345.097C212.911 345.664 212.51 346.287 212.072 346.877C211.644 347.454 211.283 348.171 210.877 348.678L211.178 348.701C210.682 348.294 210.235 347.836 209.851 347.322C209.476 346.798 209.14 346.241 208.746 345.739C208.342 345.246 207.882 344.805 207.425 344.361C206.959 343.924 206.465 343.514 205.924 343.13L205.839 343.199Z" fill="#FFA6A4"/>
<path d="M220.241 353.779C219.561 354.578 218.856 355.313 218.135 356.015C217.412 356.72 216.635 357.335 215.88 358.012C215.109 358.667 214.236 359.253 213.247 359.541C212.266 359.85 211.225 359.889 210.221 359.878L210.67 360.194C210.493 359.348 210.23 358.551 209.953 357.745C209.681 356.94 209.333 356.158 208.912 355.411C208.496 354.662 208.002 353.948 207.42 353.303C206.828 352.674 206.142 352.084 205.323 351.791L205.268 351.886C205.888 352.448 206.366 353.096 206.781 353.788C207.203 354.474 207.561 355.199 207.912 355.929L208.92 358.154C209.251 358.899 209.543 359.676 209.833 360.43L209.973 360.795L210.282 360.747C211.351 360.58 212.365 360.218 213.356 359.869C214.335 359.487 215.342 359.151 216.305 358.659C217.278 358.183 218.098 357.444 218.785 356.622C219.471 355.798 220.031 354.861 220.337 353.829L220.241 353.779Z" fill="#FFA6A4"/>
<path d="M200.764 361.876C200.434 362.669 200.321 363.533 200.343 364.389C200.379 365.243 200.514 366.105 200.813 366.911C201.128 367.711 201.589 368.446 202.106 369.112L203.613 371.115L203.72 371.258L203.894 371.134C204.709 370.555 205.637 370.115 206.522 369.654C207.405 369.179 208.32 368.775 209.236 368.385C210.151 367.991 211.064 367.591 212.004 367.239C212.936 366.857 213.895 366.552 214.868 366.186L214.852 366.078C212.775 366.033 210.677 366.474 208.767 367.315C207.809 367.733 206.908 368.269 206.036 368.836C205.167 369.416 204.392 370.114 203.633 370.834L203.914 370.853C203.356 370.265 202.847 369.615 202.523 368.867C202.161 368.138 201.983 367.344 201.735 366.601C201.253 365.101 200.947 363.557 200.872 361.904L200.764 361.876Z" fill="#FFA6A4"/>
<path d="M185.48 423.404H208.536C210.676 423.404 212.495 421.554 212.817 419.05L216.467 390.688C216.866 387.585 214.837 384.79 212.186 384.79H181.83C179.178 384.79 177.149 387.585 177.549 390.688L181.199 419.05C181.521 421.554 183.34 423.404 185.48 423.404Z" fill="#504984"/>
<path d="M181.831 384.791H197.35C194.698 384.791 192.669 387.586 193.069 390.689L196.719 419.051C197.041 421.555 198.86 423.405 201 423.405H185.48C183.34 423.405 181.521 421.555 181.199 419.051L177.549 390.689C177.15 387.586 179.179 384.791 181.831 384.791Z" fill="#372D5B"/>
<path d="M392.011 415.615H295.581C294.61 415.615 293.823 416.402 293.823 417.373V421.645C293.823 422.616 294.61 423.403 295.581 423.403H392.011V415.615Z" fill="#282142"/>
<path d="M416.828 420.987V422.724C416.828 423.099 416.524 423.403 416.149 423.403H391.858C391.102 423.403 390.489 422.79 390.489 422.035V416.975C390.489 416.158 391.2 415.523 392.011 415.615L416.224 420.313C416.568 420.351 416.828 420.642 416.828 420.987Z" fill="#504984"/>
<path d="M223.491 251.719H403.717C407.363 251.719 410.618 254.006 411.853 257.437L451.268 366.895C452.916 372.54 448.786 376.77 442.149 377.485C441.132 377.595 436.291 375.419 428.688 371.843H267.565C263.919 371.843 260.664 369.556 259.429 366.125L223.823 267.246C217.803 264.104 214.371 262.308 214.371 262.308C214.371 262.308 212.143 251.719 223.491 251.719Z" fill="#504984"/>
<path d="M398.074 257.36H217.849C215.289 257.36 213.505 259.899 214.372 262.308L253.787 371.766C255.022 375.197 258.277 377.484 261.923 377.484H442.149C444.709 377.484 446.493 374.945 445.626 372.536L406.21 263.078C404.975 259.647 401.721 257.36 398.074 257.36Z" fill="#372D5B"/>
<path d="M357.387 377.484L349.387 347.812L319.066 377.484H357.387Z" fill="#282142"/>
<path d="M313.507 295.802C314.3 300.696 317.466 302.668 321.258 302.668C325.05 302.668 327.903 299.535 327.239 295.802C326.575 292.07 323.28 288.936 319.488 288.936C315.696 288.936 312.9 292.059 313.507 295.802Z" fill="#504984"/>
<path d="M398.207 359.271L395.889 352.835H398.802L401.12 359.271H398.207Z" fill="#282142"/>
<path d="M392.072 359.271L389.755 352.835H392.668L394.986 359.271H392.072Z" fill="#282142"/>
<path d="M385.938 359.271L383.62 352.835H386.533L388.851 359.271H385.938Z" fill="#282142"/>
<path d="M379.803 359.271L377.486 352.835H380.399L382.717 359.271H379.803Z" fill="#282142"/>
<path d="M292.668 359.271L290.351 352.835H293.264L295.581 359.271H292.668Z" fill="#282142"/>
<path d="M286.534 359.271L284.216 352.835H287.129L289.447 359.271H286.534Z" fill="#282142"/>
<path d="M280.399 359.271L278.082 352.835H280.995L283.312 359.271H280.399Z" fill="#282142"/>
<path d="M274.265 359.271L271.947 352.835H274.86L277.178 359.271H274.265Z" fill="#282142"/>
<path d="M296.529 412.826C298.308 407.712 319.874 338.121 319.874 338.121H347.558L349.387 347.813C349.387 347.813 330.825 407.712 329.047 412.826C328.912 413.216 328.782 413.607 328.661 413.998H328.663C327.036 418.998 331.328 418.977 336.161 418.977C340.995 418.977 384.984 418.977 384.984 418.977V423.404H336.161H303.643C293.861 423.404 294.75 417.94 296.529 412.826Z" fill="#372D5B"/>
<path d="M347.558 338.121C347.558 338.121 325.991 407.712 324.213 412.826C322.434 417.94 321.545 423.404 331.328 423.404H298.81C289.027 423.404 289.917 417.94 291.695 412.826C293.474 407.712 315.04 338.121 315.04 338.121H347.558Z" fill="#504984"/>
<path d="M340.778 338.121C338.633 338.022 336.488 337.973 334.343 337.903C332.198 337.829 330.053 337.813 327.909 337.766C325.764 337.732 323.619 337.669 321.474 337.669L315.039 337.629L314.68 337.627L314.568 337.975C313.671 340.778 312.787 343.584 311.944 346.404L309.378 354.851C307.727 360.501 306.074 366.149 304.564 371.843C306.546 366.296 308.383 360.704 310.223 355.113L312.894 346.699C313.797 343.898 314.658 341.084 315.507 338.267L315.037 338.613L321.472 338.573C323.617 338.572 325.762 338.51 327.907 338.476C330.052 338.428 332.197 338.412 334.341 338.339C336.489 338.27 338.633 338.22 340.778 338.121Z" fill="#7F74D1"/>
<path d="M152.177 440.489H629.521C634.239 440.489 638.063 436.665 638.063 431.947C638.063 427.229 634.238 423.405 629.521 423.405H152.177C147.459 423.405 143.635 427.23 143.635 431.947C143.635 436.664 147.459 440.489 152.177 440.489Z" fill="#8E5058"/>
<path d="M152.177 440.489H629.521C634.239 440.489 638.063 436.665 638.063 431.947H143.635C143.635 436.664 147.459 440.489 152.177 440.489Z" fill="#64364A"/>
<path d="M251.148 169.395C260.191 130.757 236.2 92.1038 197.562 83.0604C158.924 74.0169 120.27 98.0081 111.227 136.646C102.183 175.284 126.175 213.938 164.813 222.981C203.451 232.025 242.104 208.033 251.148 169.395Z" fill="#5470D3"/>
<mask id="mask0_17_3" style="mask-type:luminance" maskUnits="userSpaceOnUse" x="109" y="67" width="145" height="158">
<path d="M253.038 153.029C253.038 192.711 220.869 224.879 181.188 224.879C141.506 224.879 109.338 192.71 109.338 153.029C109.338 113.347 141.507 67.2266 181.188 67.2266C220.87 67.2256 253.038 113.347 253.038 153.029Z" fill="white"/>
</mask>
<g mask="url(#mask0_17_3)">
<path d="M282.218 210.368C283.583 217.225 277.236 223.318 275.249 224.461C273.262 225.603 259.925 230.935 251.913 231.126C243.902 231.316 233.329 214.369 237.656 212.465C241.984 210.561 271.462 208.466 274.699 208.466C277.936 208.465 282.218 210.368 282.218 210.368Z" fill="#FFC5C7"/>
<path d="M261.208 206.751C257.712 227.317 249.407 243.312 246.815 243.598C244.224 243.884 219.328 235.314 212.464 232.173C205.601 229.031 214.572 180.764 218.843 181.614C223.114 182.464 232.479 191.737 240.212 196.183C247.946 200.629 261.208 206.751 261.208 206.751Z" fill="white"/>
<path d="M220.202 215.3C222.602 219.416 242.386 229.848 253.282 233.651C250.589 239.724 248.052 243.461 246.816 243.597C244.597 243.842 226.028 237.595 216.428 233.821C217.232 226.18 220.202 215.3 220.202 215.3Z" fill="#DCEDFF"/>
<path d="M282.247 209.417C282.443 217.576 275.094 218.748 266.296 216.653C257.499 214.558 243.135 194.754 236.74 185.805C230.346 176.855 218.415 160.907 215.948 159.479C213.481 158.051 207.823 157.293 202.982 149.246C198.141 141.199 204.509 124.346 206.797 122.347C209.085 120.347 228.689 127.023 230.966 130.398C233.243 133.772 229.353 151.91 230.043 154.195C230.734 156.48 247.418 175.141 254.703 179.711C261.987 184.281 282.105 203.514 282.247 209.417Z" fill="#FFC5C7"/>
<path d="M216.837 135.81C214.531 134.667 213.974 129.478 215.424 130.393C216.875 131.307 219.412 131.288 222.844 131.24C226.277 131.192 227.684 130.896 227.684 130.896C227.684 130.896 228.036 133.144 228.018 134.986C228.018 134.986 219.143 136.953 216.837 135.81Z" fill="#FE8A8B"/>
<path d="M201.571 136.99C202.969 134.391 204.048 132.42 204.048 132.42L217.534 145.401C221.222 142.203 225.733 139.285 225.733 139.285L226.92 141.401C224.738 145.093 222.837 152.9 222.794 154.804C222.794 154.804 220.723 157.089 219.567 157.28C219.567 157.28 233.995 180.131 243.27 191.366C252.49 202.535 258.805 212.195 263.152 215.3C254.382 210.244 242.42 193.755 236.739 185.804C230.345 176.854 218.414 160.906 215.947 159.478C213.48 158.05 207.822 157.292 202.981 149.245C201.061 146.053 200.918 141.477 201.571 136.99Z" fill="#FE8A8B"/>
<path d="M229.641 138.294C229.478 139.625 216.076 151.243 214.673 152.576C214.568 152.676 213.521 152.829 213.232 152.576C209.668 149.444 194.105 121.184 193.827 120.164C193.568 119.213 203.899 109.491 207.054 106.891C207.484 106.537 209.254 106.751 209.545 107.181C212.729 111.895 229.853 136.573 229.641 138.294Z" fill="#0C0835"/>
<path d="M228.201 138.294C228.038 139.625 214.636 151.243 213.233 152.576C211.831 153.909 192.688 121.266 192.388 120.164C192.128 119.213 203.631 109.649 206.786 107.048C207.215 106.694 207.815 106.75 208.105 107.18C211.289 111.895 228.412 136.573 228.201 138.294Z" fill="#252384"/>
<path d="M225.945 136.384C225.792 137.629 213.255 148.498 211.943 149.745C210.631 150.992 192.723 120.454 192.442 119.423C192.199 118.533 202.96 109.586 205.911 107.153C206.313 106.822 206.874 106.874 207.146 107.277C210.123 111.687 226.143 134.774 225.945 136.384Z" fill="#57AFF7"/>
<path d="M217.907 120.454C215.832 119.203 213.284 114.966 213.055 113.538C212.826 112.11 212.967 110.824 214.082 110.539C215.198 110.253 218.633 114.728 220.345 116.061C222.057 117.394 224.141 120.155 223.292 122.012C222.443 123.869 218.639 123.154 218.231 122.869C217.824 122.583 217.907 120.454 217.907 120.454Z" fill="#FFC5C7"/>
<path d="M213.44 110.915C212.782 112.538 217.069 119.055 220.828 120.93L219.43 122.528C219.43 122.528 218.796 122.388 217.981 122.195C217.87 121.472 217.906 120.455 217.906 120.455C215.831 119.204 213.283 114.967 213.054 113.539C212.881 112.456 212.925 111.461 213.44 110.915Z" fill="#FE8A8B"/>
<path d="M222.733 127.038C219.162 125.13 216.362 125.344 214.419 124.559C212.477 123.774 212.124 120.774 213.445 120.274C214.767 119.774 222.814 121.06 224.889 121.988C226.963 122.916 227.955 127.193 227.955 127.193L222.733 127.038Z" fill="#FFC5C7"/>
<path d="M221.169 124.813C223.188 125.194 223.883 124.813 223.883 124.813C223.826 125.602 224.57 125.995 225.409 127.117L222.733 127.038C219.162 125.13 216.362 125.344 214.42 124.559C213.534 124.201 212.996 123.381 212.78 122.549C213.644 124.194 219.159 124.434 221.169 124.813Z" fill="#FE8A8B"/>
<path d="M230.965 130.397C229.059 133.034 219.717 131.891 217.833 131.605C215.95 131.319 214.767 130.13 214.96 128.93C215.348 126.511 227.694 126.939 228.714 127.32C229.734 127.702 230.965 130.397 230.965 130.397Z" fill="#FFC5C7"/>
<path d="M215.028 129.513C216.304 130.782 219.373 131.505 222.722 131.775C225.621 132.009 227.289 131.897 227.674 131.863C224.153 132.424 219.156 131.805 217.833 131.605C216.261 131.367 215.23 130.492 215.028 129.513Z" fill="#FE8A8B"/>
<path d="M187.241 167.333C207.072 177.425 210.326 177.035 218.844 181.613C227.362 186.191 224.827 234.362 224.287 241.789C223.747 249.215 221.694 278.731 222.826 286.729C223.958 294.727 228.366 324.433 230.318 329.003C232.27 333.573 235.994 341.285 230.234 345.855C224.474 350.425 212.288 353.567 185.829 351.853C159.37 350.139 130.849 333.858 129.587 331.573C128.325 329.288 142.235 287.3 142.817 279.302C143.399 271.304 144.978 265.306 145.82 261.593C146.662 257.88 138.245 240.456 136.9 229.316C135.555 218.176 123.452 187.446 125.747 181.817C128.042 176.188 149.122 169.916 163.476 162.758C177.83 155.599 187.241 167.333 187.241 167.333Z" fill="white"/>
<path d="M206.903 179.824C203.638 190.554 196.991 200.229 188.145 207.125C177.405 204.49 166.485 199.758 157.69 193.055C167.518 200.294 178.237 206.383 189.713 210.541C199.406 202.602 205.158 192.23 206.903 179.824Z" fill="#DCEDFF"/>
<path d="M202.854 174.715C199.045 173.09 194.151 170.848 187.241 167.332C187.241 167.332 177.83 155.598 163.475 162.756C158.494 165.24 152.705 167.617 147.171 169.897C155.722 184.445 169.577 195.825 185.569 201.237C194.003 194.596 200.067 185.08 202.854 174.715Z" fill="#FFC5C7"/>
<path d="M129.587 331.573C128.325 329.288 142.235 287.3 142.817 279.302C143.399 271.305 144.978 265.306 145.82 261.593C146.662 257.88 138.245 240.456 136.9 229.316C136.666 227.38 136.103 224.845 135.352 221.96L144.294 215.3C149.538 229.927 152.809 255.634 157.779 261.918C162.749 268.202 175.13 270.773 175.13 270.773C175.13 270.773 162.901 273.629 157.569 272.487C157.569 272.487 151.876 295.052 151.811 306.192C151.747 317.332 152.781 334.184 152.912 336.469C152.961 337.322 152.773 340.296 152.518 343.687C139.703 338.614 130.3 332.863 129.587 331.573Z" fill="#DCEDFF"/>
<path d="M165.728 142.465C165.524 154.384 164.737 162.572 162.095 164.858C162.095 164.858 166.637 184.637 184.772 182.948C190.907 182.377 190.322 172.094 187.241 167.333L189.067 152.713L165.728 142.465Z" fill="#FFC5C7"/>
<path d="M163.476 162.758C165.028 159.102 165.565 151.978 165.728 142.465L189.067 152.714L187.896 162.089C183.759 163.945 163.476 162.758 163.476 162.758Z" fill="#FE8A8B"/>
<path d="M139.543 230.541C145.004 219.805 147.19 202.371 142.261 193.195C137.332 184.019 128.029 180.716 125.747 181.817C123.464 182.918 117.284 197.233 111.481 203.839C105.678 210.446 89.8311 228.981 89.3511 230.541C88.8711 232.101 100.805 244.692 123.251 253.94C125.923 255.041 139.543 230.541 139.543 230.541Z" fill="white"/>
<path d="M122.894 238.865L119.313 246.208C119.313 246.208 136.953 228.524 144.277 215.328C143.389 220.833 141.738 226.228 139.544 230.541C139.544 230.541 125.924 255.041 123.251 253.94C119.41 252.358 115.902 250.675 112.686 248.969L122.894 238.865Z" fill="#DCEDFF"/>
<path d="M190.416 143.534C189.203 138.62 189.229 133.595 188.936 128.57C188.717 124.813 188.526 121.374 185.116 119.127C182.624 117.485 179.499 117.162 176.567 117.534C168.687 118.534 166.992 126.213 167.595 133.483C168.057 139.048 170.231 144.392 172.389 149.511C169.491 149.383 165.534 147.864 163.804 145.452C164.581 148.626 166.053 151.542 168.355 153.787C159.956 153.642 152.162 148.147 147.713 140.767C143.265 133.387 141.855 124.377 142.329 115.69C142.891 105.382 146.105 95.05 152.481 87.113C165.305 71.15 190.011 69.289 205.056 83.007C210.228 87.723 213.98 94.044 215.856 100.9C218.323 109.912 218.272 119.582 216.35 128.698C215.554 132.473 215.19 135.74 214.815 139.52C214.699 140.692 213.278 154.298 214.1 154.249C208.795 154.571 202.701 153.5 199.107 149.445C200.718 152.23 202.109 154.913 203.719 157.698C197.02 156.583 192.097 150.341 190.416 143.534Z" fill="#372D5B"/>
<path d="M162.887 124.991C160.517 123.59 157.668 122.83 155.47 125.059C152.232 128.344 156.832 143.625 163.815 139.912C163.815 139.912 173.926 154.051 181.347 158.05C188.768 162.049 194.055 160.05 196.834 157.193C199.613 154.337 209.09 142.62 210.795 130.201C211.403 125.774 210.751 117.062 210.886 115.205C211.302 109.493 213.466 104.803 208.96 100.319C204.408 95.7902 198.103 93.0502 191.685 92.8232C183.602 92.5382 175.522 96.1702 170.169 102.234C164.256 108.935 163.231 116.5 162.887 124.991Z" fill="#FFC5C7"/>
<path d="M156.618 129.236C157.222 126.436 159.61 125.885 161.386 127.836C163.207 129.836 163.513 136.169 163.045 137.102C162.577 138.035 159.449 137.969 158.856 136.036C158.263 134.103 160.085 132.891 161.843 133.464C161.843 133.464 162.334 130.642 160.897 128.825C159.46 127.008 157.962 127.703 157.595 128.17C157.228 128.636 156.618 129.236 156.618 129.236Z" fill="#FE8A8B"/>
<path d="M175.946 116.85C176.622 116.22 177.339 115.636 178.091 115.081C178.848 114.535 179.656 114.045 180.514 113.644C181.365 113.244 182.256 112.812 183.199 112.74C184.133 112.657 185.072 112.733 185.926 113.1L185.914 113.228C185.457 113.411 185.022 113.528 184.594 113.652L183.335 114.001C182.516 114.242 181.667 114.315 180.837 114.591C180.012 114.866 179.198 115.217 178.396 115.621C177.588 116.015 176.807 116.483 176.018 116.95L175.946 116.85Z" fill="#3F1751"/>
<path d="M207.536 113.645C206.771 113.24 205.961 112.944 205.119 112.767C204.282 112.579 203.425 112.484 202.565 112.463C201.7 112.445 200.841 112.622 199.987 112.615C199.126 112.618 198.261 112.644 197.316 112.549L197.289 112.426C198.098 111.839 199.019 111.522 199.949 111.341C200.886 111.152 201.824 111.307 202.728 111.442C203.638 111.575 204.523 111.809 205.354 112.155C206.178 112.511 206.962 112.953 207.615 113.538L207.536 113.645Z" fill="#3F1751"/>
<path d="M184.427 121.871C184.395 120.663 183.787 119.741 183.068 119.811C182.349 119.882 181.792 120.918 181.824 122.127C181.856 123.335 182.464 124.257 183.183 124.187C183.902 124.116 184.458 123.079 184.427 121.871Z" fill="#3F1751"/>
<path d="M203.505 120.346C203.473 119.138 202.971 118.205 202.384 118.263C201.796 118.32 201.346 119.347 201.377 120.555C201.409 121.763 201.911 122.696 202.498 122.638C203.086 122.58 203.536 121.554 203.505 120.346Z" fill="#3F1751"/>
<path d="M190.401 133.615C192.055 134.765 194.493 134.74 196.293 133.555C196.088 134.486 195.672 135.393 194.766 135.724C193.861 136.055 192.86 135.958 192.028 135.576C191.196 135.193 190.927 134.356 190.401 133.615Z" fill="#FE8A8B"/>
<path d="M183.781 140.703C187.766 140.767 197.344 140.032 200.467 139.588C199.236 143.624 196.006 147.611 191.497 147.613C187.436 147.616 184.754 144.279 183.781 140.703Z" fill="#C31F2A"/>
<path d="M187.436 146.295C189.021 145.806 190.633 146.057 191.281 146.258C191.281 146.258 193.388 144.783 196.45 145.753C195.057 146.877 193.399 147.613 191.496 147.614C189.929 147.614 188.574 147.111 187.436 146.295Z" fill="#FB8384"/>
<path d="M197.764 142.964C193.731 144.221 189.329 143.859 185.53 142.49C185.505 141.894 185.459 141.293 185.413 140.693C189.351 140.609 195.725 140.132 199.138 139.752C198.844 140.868 198.401 141.959 197.764 142.964Z" fill="white"/>
<path d="M166.872 111.845C173.37 111.568 179.817 110.137 185.822 107.638C186.965 104.995 187.004 102.649 187.175 99.7754C188.808 102.771 189.779 106.124 189.946 109.532C193.73 109.287 197.533 109.083 201.317 108.838C202.377 105.839 202.505 102.751 202.337 99.5754C203.616 102.559 204.258 106.315 204.695 109.532C206.979 108.719 209.874 109.904 212.26 110.332C215.217 103.744 215.024 91.8094 208.768 86.8134C202.675 81.9474 192.092 80.6224 184.647 81.7004C168.807 83.9934 156.359 97.1454 157.342 113.529C157.903 122.876 162.592 131.715 169.316 138.232C165.318 130.256 164.524 120.452 166.872 111.845Z" fill="#372D5B"/>
</g>
<path d="M364.754 168.32C370.557 145.987 357.158 123.178 334.825 117.374C312.491 111.571 289.682 124.971 283.879 147.304C278.075 169.637 291.475 192.446 313.808 198.25C336.141 204.053 358.95 190.654 364.754 168.32Z" fill="#E67471"/>
<path d="M303.723 174.159H344.949C346.841 174.159 348.375 172.625 348.375 170.733V144.873C348.375 142.981 346.841 141.447 344.949 141.447H303.723C301.831 141.447 300.297 142.981 300.297 144.873V170.734C300.297 172.625 301.831 174.159 303.723 174.159Z" fill="#DBE9FF"/>
<path d="M303.723 174.159H344.949C346.841 174.159 348.375 172.625 348.375 170.733L324.336 155.616L300.297 170.733C300.297 172.625 301.831 174.159 303.723 174.159Z" fill="#CDDCF4"/>
<path d="M303.723 141.446H344.949C346.841 141.446 348.375 142.98 348.375 144.872L324.336 159.989L300.297 144.872C300.297 142.98 301.831 141.446 303.723 141.446Z" fill="#5470D3"/>
<path d="M629.993 258.641C652.473 253.432 666.475 230.986 661.267 208.505C656.059 186.025 633.612 172.022 611.132 177.231C588.651 182.439 574.649 204.885 579.857 227.366C585.065 249.847 607.512 263.849 629.993 258.641Z" fill="#E67471"/>
<path d="M632.28 209.756H628.079C627.699 208.099 627.045 206.55 626.168 205.152L629.141 202.179C629.546 201.773 629.546 201.116 629.141 200.711L625.837 197.407C625.431 197.002 624.774 197.002 624.369 197.407L621.396 200.38C619.998 199.503 618.449 198.849 616.792 198.469V194.268C616.792 193.695 616.327 193.23 615.754 193.23H611.082C610.509 193.23 610.044 193.695 610.044 194.268V198.469C608.387 198.849 606.838 199.503 605.44 200.38L602.467 197.407C602.061 197.002 601.404 197.002 600.999 197.407L597.695 200.711C597.289 201.116 597.289 201.774 597.695 202.179L600.668 205.152C599.791 206.55 599.137 208.099 598.757 209.756H594.556C593.983 209.756 593.518 210.221 593.518 210.794V215.466C593.518 216.039 593.983 216.504 594.556 216.504H598.757C599.137 218.161 599.791 219.71 600.668 221.108L597.695 224.081C597.289 224.487 597.289 225.144 597.695 225.549L600.999 228.853C601.405 229.259 602.062 229.259 602.467 228.853L605.44 225.88C606.838 226.757 608.387 227.411 610.044 227.791V231.992C610.044 232.565 610.509 233.03 611.082 233.03H615.754C616.328 233.03 616.792 232.565 616.792 231.992V227.791C618.449 227.411 619.998 226.757 621.396 225.88L624.369 228.853C624.775 229.259 625.432 229.259 625.837 228.853L629.141 225.549C629.546 225.143 629.546 224.486 629.141 224.081L626.168 221.108C627.045 219.71 627.699 218.161 628.079 216.504H632.28C632.853 216.504 633.318 216.039 633.318 215.466V210.794C633.318 210.221 632.853 209.756 632.28 209.756ZM613.417 219.578C609.857 219.578 606.97 216.692 606.97 213.131C606.97 209.571 609.856 206.684 613.417 206.684C616.977 206.684 619.864 209.57 619.864 213.131C619.864 216.691 616.978 219.578 613.417 219.578Z" fill="#DBE9FF"/>
<path d="M613.417 204.157C608.461 204.157 604.443 208.175 604.443 213.131C604.443 218.087 608.461 222.105 613.417 222.105C618.373 222.105 622.391 218.087 622.391 213.131C622.391 208.175 618.373 204.157 613.417 204.157ZM613.417 218.611C610.391 218.611 607.937 216.158 607.937 213.131C607.937 210.104 610.39 207.651 613.417 207.651C616.443 207.651 618.897 210.104 618.897 213.131C618.897 216.158 616.444 218.611 613.417 218.611Z" fill="#5470D3"/>
<path d="M650.222 228.16H648.076C647.882 227.313 647.548 226.522 647.1 225.808L648.619 224.289C648.826 224.082 648.826 223.746 648.619 223.539L646.931 221.851C646.724 221.644 646.388 221.644 646.181 221.851L644.662 223.37C643.948 222.922 643.156 222.588 642.31 222.394V220.248C642.31 219.955 642.072 219.718 641.78 219.718H639.393C639.1 219.718 638.863 219.955 638.863 220.248V222.394C638.016 222.588 637.225 222.922 636.511 223.37L634.992 221.851C634.785 221.644 634.449 221.644 634.242 221.851L632.554 223.539C632.347 223.746 632.347 224.082 632.554 224.289L634.073 225.808C633.625 226.522 633.291 227.314 633.097 228.16H630.951C630.658 228.16 630.42 228.398 630.42 228.69V231.077C630.42 231.37 630.658 231.607 630.951 231.607H633.097C633.291 232.454 633.625 233.245 634.073 233.959L632.554 235.478C632.347 235.685 632.347 236.021 632.554 236.228L634.242 237.916C634.449 238.123 634.785 238.123 634.992 237.916L636.511 236.397C637.225 236.845 638.016 237.179 638.863 237.373V239.519C638.863 239.812 639.1 240.049 639.393 240.049H641.78C642.073 240.049 642.31 239.812 642.31 239.519V237.373C643.157 237.179 643.948 236.845 644.662 236.397L646.181 237.916C646.388 238.123 646.724 238.123 646.931 237.916L648.619 236.228C648.826 236.021 648.826 235.685 648.619 235.478L647.1 233.959C647.548 233.245 647.882 232.454 648.076 231.607H650.222C650.515 231.607 650.752 231.37 650.752 231.077V228.69C650.753 228.398 650.516 228.16 650.222 228.16ZM640.586 233.178C638.767 233.178 637.293 231.703 637.293 229.885C637.293 228.066 638.767 226.592 640.586 226.592C642.405 226.592 643.879 228.067 643.879 229.885C643.88 231.703 642.405 233.178 640.586 233.178Z" fill="#DBE9FF"/>
<path d="M640.586 225.3C638.054 225.3 636.002 227.353 636.002 229.885C636.002 232.417 638.055 234.469 640.586 234.469C643.118 234.469 645.171 232.417 645.171 229.885C645.171 227.352 643.118 225.3 640.586 225.3ZM640.586 232.684C639.04 232.684 637.787 231.431 637.787 229.885C637.787 228.339 639.04 227.086 640.586 227.086C642.132 227.086 643.385 228.339 643.385 229.885C643.386 231.43 642.133 232.684 640.586 232.684Z" fill="#5470D3"/>
<path d="M447.658 138.355C469.068 129.746 479.445 105.41 470.835 83.9999C462.225 62.5899 437.89 52.2132 416.48 60.8229C395.07 69.4326 384.693 93.7684 393.303 115.178C401.912 136.588 426.248 146.965 447.658 138.355Z" fill="#E67471"/>
<path d="M411.328 121.053H452.8C454.625 121.053 456.104 119.574 456.104 117.749V83.2464C456.104 81.4214 454.625 79.9424 452.8 79.9424H411.328C409.504 79.9424 408.025 81.4214 408.025 83.2464V117.75C408.025 119.574 409.504 121.053 411.328 121.053Z" fill="white"/>
<path d="M408.025 88.5464H456.104V83.2464C456.104 81.4214 454.625 79.9424 452.8 79.9424H411.328C409.504 79.9424 408.025 81.4214 408.025 83.2464V88.5464Z" fill="#5470D3"/>
<path d="M444.619 81.7774C445.157 81.7774 445.594 81.3404 445.594 80.8024V79.0834C445.594 78.5454 445.157 78.1084 444.619 78.1084C444.081 78.1084 443.644 78.5454 443.644 79.0834V80.8024C443.644 81.3404 444.08 81.7774 444.619 81.7774Z" fill="white"/>
<path d="M447.406 81.7774C447.945 81.7774 448.381 81.3404 448.381 80.8024V79.0834C448.381 78.5454 447.945 78.1084 447.406 78.1084C446.868 78.1084 446.431 78.5454 446.431 79.0834V80.8024C446.431 81.3404 446.867 81.7774 447.406 81.7774Z" fill="white"/>
<path d="M416.722 81.7774C417.261 81.7774 417.697 81.3404 417.697 80.8024V79.0834C417.697 78.5454 417.261 78.1084 416.722 78.1084C416.184 78.1084 415.747 78.5454 415.747 79.0834V80.8024C415.747 81.3404 416.184 81.7774 416.722 81.7774Z" fill="white"/>
<path d="M419.509 81.7774C420.047 81.7774 420.484 81.3404 420.484 80.8024V79.0834C420.484 78.5454 420.048 78.1084 419.509 78.1084C418.97 78.1084 418.534 78.5454 418.534 79.0834V80.8024C418.534 81.3404 418.971 81.7774 419.509 81.7774Z" fill="white"/>
<path d="M435.098 97.8261H437.678C438.116 97.8261 438.471 97.4711 438.471 97.0331V94.4541C438.471 94.0161 438.116 93.6611 437.678 93.6611H435.098C434.66 93.6611 434.305 94.0161 434.305 94.4541V97.0331C434.305 97.4721 434.66 97.8261 435.098 97.8261Z" fill="#DBE9FF"/>
<path d="M425.187 97.8261H427.767C428.205 97.8261 428.56 97.4711 428.56 97.0331V94.4532C428.56 94.0152 428.205 93.6602 427.767 93.6602H425.188C424.75 93.6602 424.395 94.0152 424.395 94.4532V97.0331C424.395 97.4721 424.749 97.8261 425.187 97.8261Z" fill="#DBE9FF"/>
<path d="M415.277 97.8261H417.857C418.295 97.8261 418.65 97.4711 418.65 97.0331V94.4532C418.65 94.0152 418.295 93.6602 417.857 93.6602H415.277C414.839 93.6602 414.484 94.0152 414.484 94.4532V97.0331C414.484 97.4721 414.839 97.8261 415.277 97.8261Z" fill="#DBE9FF"/>
<path d="M445.009 106.361H447.589C448.027 106.361 448.382 106.006 448.382 105.568V102.988C448.382 102.55 448.027 102.195 447.589 102.195H445.01C444.572 102.195 444.217 102.55 444.217 102.988V105.567C444.216 106.006 444.571 106.361 445.009 106.361Z" fill="#DBE9FF"/>
<path d="M435.098 106.361H437.678C438.116 106.361 438.471 106.006 438.471 105.568V102.988C438.471 102.55 438.116 102.195 437.678 102.195H435.098C434.66 102.195 434.305 102.55 434.305 102.988V105.567C434.305 106.006 434.66 106.361 435.098 106.361Z" fill="#DBE9FF"/>
<path d="M425.187 106.361H427.766C428.204 106.361 428.559 106.006 428.559 105.568V102.988C428.559 102.55 428.204 102.195 427.766 102.195H425.186C424.748 102.195 424.393 102.55 424.393 102.988V105.568C424.395 106.006 424.749 106.361 425.187 106.361Z" fill="#DBE9FF"/>
<path d="M415.277 106.361H417.857C418.295 106.361 418.65 106.006 418.65 105.568V102.988C418.65 102.55 418.295 102.195 417.857 102.195H415.277C414.839 102.195 414.484 102.55 414.484 102.988V105.568C414.484 106.006 414.839 106.361 415.277 106.361Z" fill="#DBE9FF"/>
<path d="M445.009 114.895H447.589C448.027 114.895 448.382 114.54 448.382 114.102V111.522C448.382 111.084 448.027 110.729 447.589 110.729H445.01C444.572 110.729 444.217 111.084 444.217 111.522V114.102C444.216 114.54 444.571 114.895 445.009 114.895Z" fill="#DBE9FF"/>
<path d="M435.098 114.895H437.678C438.116 114.895 438.471 114.54 438.471 114.102V111.522C438.471 111.084 438.116 110.729 437.678 110.729H435.098C434.66 110.729 434.305 111.084 434.305 111.522V114.102C434.305 114.54 434.66 114.895 435.098 114.895Z" fill="#DBE9FF"/>
<path d="M425.187 114.895H427.766C428.204 114.895 428.559 114.54 428.559 114.102V111.522C428.559 111.084 428.204 110.729 427.766 110.729H425.187C424.749 110.729 424.394 111.084 424.394 111.522V114.102C424.395 114.54 424.749 114.895 425.187 114.895Z" fill="#DBE9FF"/>
<path d="M581.215 150.601C597.532 134.284 597.532 107.829 581.215 91.5119C564.898 75.1948 538.442 75.1948 522.125 91.5119C505.808 107.829 505.808 134.284 522.125 150.601C538.442 166.919 564.898 166.919 581.215 150.601Z" fill="#E67471"/>
<path d="M571.906 141.292C583.082 130.117 583.082 111.997 571.906 100.821C560.73 89.6449 542.61 89.645 531.434 100.821C520.258 111.997 520.258 130.117 531.434 141.292C542.61 152.468 560.73 152.468 571.906 141.292Z" fill="white"/>
<path d="M551.675 92.4355C535.87 92.4355 523.057 105.249 523.057 121.054C523.057 136.859 535.87 149.672 551.675 149.672C567.48 149.672 580.293 136.859 580.293 121.054C580.293 105.249 567.48 92.4355 551.675 92.4355ZM554.074 145.437V141.529C554.074 140.802 553.485 140.213 552.758 140.213H550.59C549.863 140.213 549.274 140.802 549.274 141.529V145.437C537.659 144.308 528.42 135.069 527.291 123.454H531.199C531.926 123.454 532.515 122.865 532.515 122.138V119.971C532.515 119.244 531.926 118.655 531.199 118.655H527.291C528.42 107.04 537.659 97.8005 549.274 96.6715V100.58C549.274 101.307 549.863 101.896 550.59 101.896H552.758C553.485 101.896 554.074 101.307 554.074 100.58V96.6715C565.689 97.8005 574.928 107.04 576.057 118.655H572.149C571.422 118.655 570.833 119.244 570.833 119.971V122.138C570.833 122.865 571.422 123.454 572.149 123.454H576.057C574.928 135.069 565.689 144.308 554.074 145.437Z" fill="#5470D3"/>
<path d="M539.32 127.415V126.107L544.232 120.731C544.808 120.101 545.283 119.554 545.656 119.089C546.029 118.619 546.305 118.178 546.484 117.766C546.668 117.35 546.76 116.914 546.76 116.459C546.76 115.936 546.634 115.483 546.382 115.1C546.135 114.717 545.796 114.422 545.365 114.214C544.934 114.005 544.449 113.901 543.912 113.901C543.34 113.901 542.841 114.02 542.415 114.257C541.994 114.49 541.667 114.817 541.434 115.238C541.207 115.659 541.093 116.154 541.093 116.72H539.378C539.378 115.848 539.579 115.083 539.981 114.424C540.383 113.766 540.931 113.252 541.623 112.884C542.321 112.516 543.103 112.332 543.97 112.332C544.842 112.332 545.614 112.516 546.288 112.884C546.961 113.252 547.489 113.749 547.872 114.373C548.254 114.998 548.446 115.693 548.446 116.459C548.446 117.006 548.346 117.541 548.148 118.064C547.954 118.583 547.615 119.161 547.13 119.801C546.651 120.435 545.985 121.21 545.132 122.126L541.79 125.7V125.817H548.707V127.415H539.32ZM551.039 124.364V122.881L557.578 112.535H558.654V114.831H557.927L552.986 122.649V122.765H561.792V124.364H551.039ZM558.043 127.415V123.913V123.223V112.535H559.758V127.415H558.043ZM569.804 111.838L565.009 129.653H563.44L568.235 111.838H569.804ZM572.273 127.415L578.928 114.25V114.134H571.255V112.535H580.788V114.221L574.162 127.415H572.273Z" fill="#D1C8D9"/>
</g>
<defs>
<clipPath id="clip0_17_3">
<rect width="750" height="500" fill="white"/>
</clipPath>
</defs>
</svg>
