<svg width="81" height="81" viewBox="0 0 81 81" fill="none" xmlns="http://www.w3.org/2000/svg">
<path d="M53.9837 27.9097C54.3308 27.5626 54.3308 26.9998 53.9837 26.6527C53.6365 26.3056 53.0737 26.3056 52.7265 26.6527L53.9837 27.9097ZM26.6526 52.7267C26.3054 53.0738 26.3054 53.6366 26.6526 53.9838C26.9997 54.3309 27.5625 54.3309 27.9096 53.9838L26.6526 52.7267ZM27.9102 26.6527C27.563 26.3056 27.0002 26.3056 26.6531 26.6527C26.3059 26.9998 26.3059 27.5626 26.6531 27.9097L27.9102 26.6527ZM52.7271 53.9838C53.0743 54.3309 53.6371 54.3309 53.9841 53.9838C54.3313 53.6366 54.3313 53.0738 53.9841 52.7267L52.7271 53.9838ZM52.7265 26.6527L26.6526 52.7267L27.9096 53.9838L53.9837 27.9097L52.7265 26.6527ZM26.6531 27.9097L52.7271 53.9838L53.9841 52.7267L27.9102 26.6527L26.6531 27.9097ZM78.5406 40.3182C78.5406 61.4278 61.4279 78.5405 40.3184 78.5405V80.3182C62.4097 80.3182 80.3184 62.4096 80.3184 40.3182H78.5406ZM40.3184 78.5405C19.2088 78.5405 2.09614 61.4278 2.09614 40.3182H0.318359C0.318359 62.4096 18.227 80.3182 40.3184 80.3182V78.5405ZM2.09614 40.3182C2.09614 19.2087 19.2088 2.09602 40.3184 2.09602V0.318237C18.227 0.318237 0.318359 18.2269 0.318359 40.3182H2.09614ZM40.3184 2.09602C61.4279 2.09602 78.5406 19.2087 78.5406 40.3182H80.3184C80.3184 18.2269 62.4097 0.318237 40.3184 0.318237V2.09602Z" fill="#FF4C27"/>
</svg>
