<svg width="81" height="81" viewBox="0 0 81 81" fill="none" xmlns="http://www.w3.org/2000/svg">
<path d="M62.6753 27.9097C63.0225 27.5626 63.0225 26.9998 62.6753 26.6527C62.3282 26.3056 61.7654 26.3056 61.4182 26.6527L62.6753 27.9097ZM31.6269 57.701L30.9984 58.3296C31.3456 58.6768 31.9083 58.6768 32.2554 58.3296L31.6269 57.701ZM19.2183 44.0353C18.8711 43.6882 18.3083 43.6882 17.9611 44.0353C17.614 44.3825 17.614 44.9453 17.9611 45.2925L19.2183 44.0353ZM61.4182 26.6527L30.9984 57.0725L32.2554 58.3296L62.6753 27.9097L61.4182 26.6527ZM17.9611 45.2925L30.9984 58.3296L32.2554 57.0725L19.2183 44.0353L17.9611 45.2925ZM78.5406 40.3182C78.5406 61.4278 61.4279 78.5405 40.3184 78.5405V80.3182C62.4097 80.3182 80.3184 62.4096 80.3184 40.3182H78.5406ZM40.3184 78.5405C19.2088 78.5405 2.09614 61.4278 2.09614 40.3182H0.318359C0.318359 62.4096 18.227 80.3182 40.3184 80.3182V78.5405ZM2.09614 40.3182C2.09614 19.2087 19.2088 2.09602 40.3184 2.09602V0.318237C18.227 0.318237 0.318359 18.2269 0.318359 40.3182H2.09614ZM40.3184 2.09602C61.4279 2.09602 78.5406 19.2087 78.5406 40.3182H80.3184C80.3184 18.2269 62.4097 0.318237 40.3184 0.318237V2.09602Z" fill="#2DF39C"/>
</svg>
