<svg xmlns="http://www.w3.org/2000/svg" xmlns:xlink="http://www.w3.org/1999/xlink" width="500" zoomAndPan="magnify" viewBox="0 0 375 374.999991" height="500" preserveAspectRatio="xMidYMid meet" version="1.0"><defs><clipPath id="6fbb873769"><path d="M 92 40 L 281 40 L 281 261 L 92 261 Z M 92 40 " clip-rule="nonzero"/></clipPath><clipPath id="db50836d3a"><path d="M 186.71875 2.0625 L 370.742188 186.085938 L 184.066406 372.761719 L 0.0429688 188.738281 Z M 186.71875 2.0625 " clip-rule="nonzero"/></clipPath><clipPath id="1811ea4ac5"><path d="M 186.71875 2.0625 L 370.742188 186.085938 L 184.066406 372.761719 L 0.0429688 188.738281 Z M 186.71875 2.0625 " clip-rule="nonzero"/></clipPath><clipPath id="60174f7689"><path d="M 186.71875 2.0625 L 370.742188 186.085938 L 184.066406 372.761719 L 0.0429688 188.738281 Z M 186.71875 2.0625 " clip-rule="nonzero"/></clipPath><clipPath id="77c0c923aa"><path d="M 90 114 L 279 114 L 279 334 L 90 334 Z M 90 114 " clip-rule="nonzero"/></clipPath><clipPath id="1c31ffd123"><path d="M 186.71875 2.0625 L 370.742188 186.085938 L 184.066406 372.761719 L 0.0429688 188.738281 Z M 186.71875 2.0625 " clip-rule="nonzero"/></clipPath><clipPath id="756afa4bfe"><path d="M 186.71875 2.0625 L 370.742188 186.085938 L 184.066406 372.761719 L 0.0429688 188.738281 Z M 186.71875 2.0625 " clip-rule="nonzero"/></clipPath><clipPath id="30ceb7510b"><path d="M 186.71875 2.0625 L 370.742188 186.085938 L 184.066406 372.761719 L 0.0429688 188.738281 Z M 186.71875 2.0625 " clip-rule="nonzero"/></clipPath></defs><g clip-path="url(#6fbb873769)"><g clip-path="url(#db50836d3a)"><g clip-path="url(#1811ea4ac5)"><g clip-path="url(#60174f7689)"><path fill="#4d4394" d="M 248.335938 143.398438 C 245.085938 140.148438 243.160156 135.820312 242.867188 131.230469 C 242.023438 118.050781 236.613281 105.125 226.550781 95.058594 C 204.539062 73.046875 168.835938 73.0625 146.816406 95.085938 C 124.785156 117.097656 124.792969 152.792969 146.804688 174.800781 L 186.660156 214.65625 L 199.9375 227.9375 C 207.273438 235.273438 207.273438 247.175781 199.933594 254.515625 C 192.589844 261.855469 180.6875 261.859375 173.351562 254.523438 L 120.21875 201.390625 C 83.546875 164.710938 83.5625 105.21875 120.261719 68.523438 C 156.964844 31.816406 216.433594 31.828125 253.125 68.484375 C 269.914062 85.289062 279.007812 106.875 280.414062 128.859375 C 281.527344 146.183594 260.605469 155.671875 248.335938 143.398438 Z M 248.335938 143.398438 " fill-opacity="1" fill-rule="nonzero"/></g></g></g></g><g clip-path="url(#77c0c923aa)"><g clip-path="url(#1c31ffd123)"><g clip-path="url(#756afa4bfe)"><g clip-path="url(#30ceb7510b)"><path fill="#09b7d3" d="M 122.4375 231.457031 C 125.683594 234.703125 127.609375 239.03125 127.90625 243.617188 C 128.753906 256.792969 134.152344 269.714844 144.21875 279.785156 C 166.292969 301.859375 202.148438 301.753906 224.140625 279.558594 C 246.054688 257.4375 245.542969 221.59375 223.539062 199.589844 L 170.84375 146.894531 C 163.507812 139.558594 163.507812 127.664062 170.851562 120.320312 C 178.191406 112.980469 190.085938 112.980469 197.421875 120.316406 L 250.558594 173.453125 C 287.230469 210.121094 287.226562 269.628906 250.53125 306.324219 C 213.828125 343.027344 154.347656 343.011719 117.660156 306.355469 C 100.875 289.546875 91.777344 267.96875 90.375 245.988281 C 89.25 228.667969 110.167969 219.183594 122.4375 231.457031 Z M 122.4375 231.457031 " fill-opacity="1" fill-rule="nonzero"/></g></g></g></g></svg>